<svg xmlns="http://www.w3.org/2000/svg">
  <!--<symbol fill="none" viewBox="0 0 80 88" id="features-1">
    <mask id="a" fill="#fff">
      <path d="M10.878 19.288C4.88 19.288 0 24.193 0 30.223c0 5.593 4.199 10.215 9.593 10.857v8.43c0 .714.575 1.292 1.285 1.292s1.285-.578 1.285-1.291V41.08c5.394-.642 9.593-5.264 9.593-10.857 0-6.03-4.88-10.935-10.878-10.935zm0 19.287c-4.581 0-8.308-3.747-8.308-8.352s3.727-8.352 8.308-8.352c4.581 0 8.308 3.747 8.308 8.352s-3.727 8.352-8.308 8.352z"></path>
      <path d="M10.878 24.799c-2.976 0-5.396 2.433-5.396 5.424 0 2.991 2.42 5.425 5.396 5.425 2.975 0 5.396-2.434 5.396-5.425 0-2.99-2.42-5.424-5.396-5.424zm0 8.266a2.837 2.837 0 01-2.827-2.842 2.837 2.837 0 012.827-2.841 2.837 2.837 0 012.826 2.841 2.837 2.837 0 01-2.826 2.842zm67.837-2.067h-.771V8.868c0-3.75-3.036-6.801-6.767-6.801h-2.826v-.775A1.289 1.289 0 0067.066 0H63.64c-1.842 0-3.34 1.506-3.34 3.358s1.498 3.358 3.34 3.358h3.426c.71 0 1.285-.578 1.285-1.291V4.65h2.826c2.315 0 4.197 1.892 4.197 4.219v22.129h-.77c-.71 0-1.285.578-1.285 1.291v2.067c0 5.745-4.65 10.419-10.364 10.419H46.509c-5.714 0-10.364-4.674-10.364-10.42V32.29c0-.713-.575-1.291-1.284-1.291h-.771V8.868c0-2.325 1.883-4.218 4.197-4.218h2.826v.775c0 .713.575 1.291 1.285 1.291h3.426c1.842 0 3.34-1.506 3.34-3.358S47.667 0 45.825 0h-3.426c-.71 0-1.285.578-1.285 1.292v.775h-2.826c-3.731 0-6.767 3.051-6.767 6.802v22.129h-.77c-.71 0-1.286.578-1.286 1.292v2.066c0 9.448 7.647 17.135 17.045 17.135h4.883v6.286c0 .713.575 1.291 1.284 1.291h.771v6.975c0 10.683-8.645 19.374-19.272 19.374h-2.74c-10.627 0-19.272-8.691-19.272-19.374V55.768c0-.714-.575-1.292-1.285-1.292s-1.285.578-1.285 1.292v10.275C9.593 78.15 19.391 88 31.435 88h2.74c12.044 0 21.842-9.85 21.842-21.957v-6.975h.771c.71 0 1.285-.578 1.285-1.291V51.49h4.882C72.353 51.491 80 43.804 80 34.356V32.29c0-.714-.576-1.292-1.285-1.292zM65.78 4.133h-2.14a.774.774 0 01-.77-.775c0-.427.345-.775.77-.775h2.141v1.55zm-22.098-1.55h2.141c.425 0 .771.348.771.775a.774.774 0 01-.77.775h-2.142v-1.55zM77.43 34.356c0 8.024-6.493 14.552-14.475 14.552h-6.167c-.71 0-1.285.578-1.285 1.291v6.286h-1.542V50.2c0-.714-.575-1.292-1.285-1.292H46.51c-7.982 0-14.476-6.528-14.476-14.552v-.775h1.542v.775c0 7.17 5.802 13.002 12.934 13.002h16.445c7.132 0 12.934-5.832 12.934-13.002v-.775h1.541v.775z"></path>
      <path d="M54.732 20.665c-5.809 0-10.535 4.752-10.535 10.591 0 5.338 3.938 8.525 10.535 8.525 6.597 0 10.535-3.187 10.535-8.525 0-5.84-4.726-10.59-10.535-10.59zm0 16.533c-2.975 0-7.966-.772-7.966-5.942 0-4.415 3.574-8.008 7.966-8.008s7.966 3.593 7.966 8.008c0 5.17-4.991 5.942-7.966 5.942zm-5.139-26.865c-2.626 0-4.368 3.265-4.368 5.424 0 2.422 1.96 4.392 4.368 4.392 2.409 0 4.368-1.97 4.368-4.392 0-2.16-1.742-5.424-4.368-5.424zm0 7.233a1.806 1.806 0 01-1.799-1.809c0-1.221 1.026-2.841 1.799-2.841.773 0 1.799 1.62 1.799 2.841 0 .997-.807 1.809-1.799 1.809zm10.278-7.233c-2.626 0-4.368 3.265-4.368 5.424 0 2.422 1.96 4.392 4.368 4.392 2.409 0 4.369-1.97 4.369-4.392 0-2.16-1.743-5.424-4.369-5.424zm0 7.233a1.806 1.806 0 01-1.799-1.809c0-1.221 1.026-2.841 1.8-2.841.773 0 1.798 1.62 1.798 2.841 0 .997-.807 1.809-1.799 1.809zm8.223-1.034c-2.626 0-4.368 3.265-4.368 5.425 0 2.422 1.96 4.391 4.368 4.391 2.409 0 4.368-1.97 4.368-4.391 0-2.16-1.742-5.425-4.368-5.425zm0 7.233a1.806 1.806 0 01-1.799-1.808c0-1.222 1.026-2.842 1.799-2.842.773 0 1.799 1.62 1.799 2.842 0 .997-.807 1.808-1.8 1.808zM41.37 16.532c-2.626 0-4.368 3.265-4.368 5.425 0 2.422 1.96 4.391 4.368 4.391 2.41 0 4.369-1.97 4.369-4.391 0-2.16-1.743-5.425-4.369-5.425zm0 7.233a1.806 1.806 0 01-1.798-1.808c0-1.222 1.025-2.842 1.798-2.842.774 0 1.8 1.62 1.8 2.842a1.807 1.807 0 01-1.8 1.808z"></path>
    </mask>
    <path d="M10.878 19.288C4.88 19.288 0 24.193 0 30.223c0 5.593 4.199 10.215 9.593 10.857v8.43c0 .714.575 1.292 1.285 1.292s1.285-.578 1.285-1.291V41.08c5.394-.642 9.593-5.264 9.593-10.857 0-6.03-4.88-10.935-10.878-10.935zm0 19.287c-4.581 0-8.308-3.747-8.308-8.352s3.727-8.352 8.308-8.352c4.581 0 8.308 3.747 8.308 8.352s-3.727 8.352-8.308 8.352z" fill="#A07B50"></path>
    <path d="M10.878 24.799c-2.976 0-5.396 2.433-5.396 5.424 0 2.991 2.42 5.425 5.396 5.425 2.975 0 5.396-2.434 5.396-5.425 0-2.99-2.42-5.424-5.396-5.424zm0 8.266a2.837 2.837 0 01-2.827-2.842 2.837 2.837 0 012.827-2.841 2.837 2.837 0 012.826 2.841 2.837 2.837 0 01-2.826 2.842zm67.837-2.067h-.771V8.868c0-3.75-3.036-6.801-6.767-6.801h-2.826v-.775A1.289 1.289 0 0067.066 0H63.64c-1.842 0-3.34 1.506-3.34 3.358s1.498 3.358 3.34 3.358h3.426c.71 0 1.285-.578 1.285-1.291V4.65h2.826c2.315 0 4.197 1.892 4.197 4.219v22.129h-.77c-.71 0-1.285.578-1.285 1.291v2.067c0 5.745-4.65 10.419-10.364 10.419H46.509c-5.714 0-10.364-4.674-10.364-10.42V32.29c0-.713-.575-1.291-1.284-1.291h-.771V8.868c0-2.325 1.883-4.218 4.197-4.218h2.826v.775c0 .713.575 1.291 1.285 1.291h3.426c1.842 0 3.34-1.506 3.34-3.358S47.667 0 45.825 0h-3.426c-.71 0-1.285.578-1.285 1.292v.775h-2.826c-3.731 0-6.767 3.051-6.767 6.802v22.129h-.77c-.71 0-1.286.578-1.286 1.292v2.066c0 9.448 7.647 17.135 17.045 17.135h4.883v6.286c0 .713.575 1.291 1.284 1.291h.771v6.975c0 10.683-8.645 19.374-19.272 19.374h-2.74c-10.627 0-19.272-8.691-19.272-19.374V55.768c0-.714-.575-1.292-1.285-1.292s-1.285.578-1.285 1.292v10.275C9.593 78.15 19.391 88 31.435 88h2.74c12.044 0 21.842-9.85 21.842-21.957v-6.975h.771c.71 0 1.285-.578 1.285-1.291V51.49h4.882C72.353 51.491 80 43.804 80 34.356V32.29c0-.714-.576-1.292-1.285-1.292zM65.78 4.133h-2.14a.774.774 0 01-.77-.775c0-.427.345-.775.77-.775h2.141v1.55zm-22.098-1.55h2.141c.425 0 .771.348.771.775a.774.774 0 01-.77.775h-2.142v-1.55zM77.43 34.356c0 8.024-6.493 14.552-14.475 14.552h-6.167c-.71 0-1.285.578-1.285 1.291v6.286h-1.542V50.2c0-.714-.575-1.292-1.285-1.292H46.51c-7.982 0-14.476-6.528-14.476-14.552v-.775h1.542v.775c0 7.17 5.802 13.002 12.934 13.002h16.445c7.132 0 12.934-5.832 12.934-13.002v-.775h1.541v.775z" fill="#A07B50"></path>
    <path d="M54.732 20.665c-5.809 0-10.535 4.752-10.535 10.591 0 5.338 3.938 8.525 10.535 8.525 6.597 0 10.535-3.187 10.535-8.525 0-5.84-4.726-10.59-10.535-10.59zm0 16.533c-2.975 0-7.966-.772-7.966-5.942 0-4.415 3.574-8.008 7.966-8.008s7.966 3.593 7.966 8.008c0 5.17-4.991 5.942-7.966 5.942zm-5.139-26.865c-2.626 0-4.368 3.265-4.368 5.424 0 2.422 1.96 4.392 4.368 4.392 2.409 0 4.368-1.97 4.368-4.392 0-2.16-1.742-5.424-4.368-5.424zm0 7.233a1.806 1.806 0 01-1.799-1.809c0-1.221 1.026-2.841 1.799-2.841.773 0 1.799 1.62 1.799 2.841 0 .997-.807 1.809-1.799 1.809zm10.278-7.233c-2.626 0-4.368 3.265-4.368 5.424 0 2.422 1.96 4.392 4.368 4.392 2.409 0 4.369-1.97 4.369-4.392 0-2.16-1.743-5.424-4.369-5.424zm0 7.233a1.806 1.806 0 01-1.799-1.809c0-1.221 1.026-2.841 1.8-2.841.773 0 1.798 1.62 1.798 2.841 0 .997-.807 1.809-1.799 1.809zm8.223-1.034c-2.626 0-4.368 3.265-4.368 5.425 0 2.422 1.96 4.391 4.368 4.391 2.409 0 4.368-1.97 4.368-4.391 0-2.16-1.742-5.425-4.368-5.425zm0 7.233a1.806 1.806 0 01-1.799-1.808c0-1.222 1.026-2.842 1.799-2.842.773 0 1.799 1.62 1.799 2.842 0 .997-.807 1.808-1.8 1.808zM41.37 16.532c-2.626 0-4.368 3.265-4.368 5.425 0 2.422 1.96 4.391 4.368 4.391 2.41 0 4.369-1.97 4.369-4.391 0-2.16-1.743-5.425-4.369-5.425zm0 7.233a1.806 1.806 0 01-1.798-1.808c0-1.222 1.025-2.842 1.798-2.842.774 0 1.8 1.62 1.8 2.842a1.807 1.807 0 01-1.8 1.808z" fill="#A07B50"></path>
    <path d="M10.878 19.288C4.88 19.288 0 24.193 0 30.223c0 5.593 4.199 10.215 9.593 10.857v8.43c0 .714.575 1.292 1.285 1.292s1.285-.578 1.285-1.291V41.08c5.394-.642 9.593-5.264 9.593-10.857 0-6.03-4.88-10.935-10.878-10.935zm0 19.287c-4.581 0-8.308-3.747-8.308-8.352s3.727-8.352 8.308-8.352c4.581 0 8.308 3.747 8.308 8.352s-3.727 8.352-8.308 8.352z" stroke="#1F1C1D" mask="url(#a)"></path>
    <path d="M10.878 24.799c-2.976 0-5.396 2.433-5.396 5.424 0 2.991 2.42 5.425 5.396 5.425 2.975 0 5.396-2.434 5.396-5.425 0-2.99-2.42-5.424-5.396-5.424zm0 8.266a2.837 2.837 0 01-2.827-2.842 2.837 2.837 0 012.827-2.841 2.837 2.837 0 012.826 2.841 2.837 2.837 0 01-2.826 2.842zm67.837-2.067h-.771V8.868c0-3.75-3.036-6.801-6.767-6.801h-2.826v-.775A1.289 1.289 0 0067.066 0H63.64c-1.842 0-3.34 1.506-3.34 3.358s1.498 3.358 3.34 3.358h3.426c.71 0 1.285-.578 1.285-1.291V4.65h2.826c2.315 0 4.197 1.892 4.197 4.219v22.129h-.77c-.71 0-1.285.578-1.285 1.291v2.067c0 5.745-4.65 10.419-10.364 10.419H46.509c-5.714 0-10.364-4.674-10.364-10.42V32.29c0-.713-.575-1.291-1.284-1.291h-.771V8.868c0-2.325 1.883-4.218 4.197-4.218h2.826v.775c0 .713.575 1.291 1.285 1.291h3.426c1.842 0 3.34-1.506 3.34-3.358S47.667 0 45.825 0h-3.426c-.71 0-1.285.578-1.285 1.292v.775h-2.826c-3.731 0-6.767 3.051-6.767 6.802v22.129h-.77c-.71 0-1.286.578-1.286 1.292v2.066c0 9.448 7.647 17.135 17.045 17.135h4.883v6.286c0 .713.575 1.291 1.284 1.291h.771v6.975c0 10.683-8.645 19.374-19.272 19.374h-2.74c-10.627 0-19.272-8.691-19.272-19.374V55.768c0-.714-.575-1.292-1.285-1.292s-1.285.578-1.285 1.292v10.275C9.593 78.15 19.391 88 31.435 88h2.74c12.044 0 21.842-9.85 21.842-21.957v-6.975h.771c.71 0 1.285-.578 1.285-1.291V51.49h4.882C72.353 51.491 80 43.804 80 34.356V32.29c0-.714-.576-1.292-1.285-1.292zM65.78 4.133h-2.14a.774.774 0 01-.77-.775c0-.427.345-.775.77-.775h2.141v1.55zm-22.098-1.55h2.141c.425 0 .771.348.771.775a.774.774 0 01-.77.775h-2.142v-1.55zM77.43 34.356c0 8.024-6.493 14.552-14.475 14.552h-6.167c-.71 0-1.285.578-1.285 1.291v6.286h-1.542V50.2c0-.714-.575-1.292-1.285-1.292H46.51c-7.982 0-14.476-6.528-14.476-14.552v-.775h1.542v.775c0 7.17 5.802 13.002 12.934 13.002h16.445c7.132 0 12.934-5.832 12.934-13.002v-.775h1.541v.775z" stroke="#1F1C1D" mask="url(#a)"></path>
    <path d="M54.732 20.665c-5.809 0-10.535 4.752-10.535 10.591 0 5.338 3.938 8.525 10.535 8.525 6.597 0 10.535-3.187 10.535-8.525 0-5.84-4.726-10.59-10.535-10.59zm0 16.533c-2.975 0-7.966-.772-7.966-5.942 0-4.415 3.574-8.008 7.966-8.008s7.966 3.593 7.966 8.008c0 5.17-4.991 5.942-7.966 5.942zm-5.139-26.865c-2.626 0-4.368 3.265-4.368 5.424 0 2.422 1.96 4.392 4.368 4.392 2.409 0 4.368-1.97 4.368-4.392 0-2.16-1.742-5.424-4.368-5.424zm0 7.233a1.806 1.806 0 01-1.799-1.809c0-1.221 1.026-2.841 1.799-2.841.773 0 1.799 1.62 1.799 2.841 0 .997-.807 1.809-1.799 1.809zm10.278-7.233c-2.626 0-4.368 3.265-4.368 5.424 0 2.422 1.96 4.392 4.368 4.392 2.409 0 4.369-1.97 4.369-4.392 0-2.16-1.743-5.424-4.369-5.424zm0 7.233a1.806 1.806 0 01-1.799-1.809c0-1.221 1.026-2.841 1.8-2.841.773 0 1.798 1.62 1.798 2.841 0 .997-.807 1.809-1.799 1.809zm8.223-1.034c-2.626 0-4.368 3.265-4.368 5.425 0 2.422 1.96 4.391 4.368 4.391 2.409 0 4.368-1.97 4.368-4.391 0-2.16-1.742-5.425-4.368-5.425zm0 7.233a1.806 1.806 0 01-1.799-1.808c0-1.222 1.026-2.842 1.799-2.842.773 0 1.799 1.62 1.799 2.842 0 .997-.807 1.808-1.8 1.808zM41.37 16.532c-2.626 0-4.368 3.265-4.368 5.425 0 2.422 1.96 4.391 4.368 4.391 2.41 0 4.369-1.97 4.369-4.391 0-2.16-1.743-5.425-4.369-5.425zm0 7.233a1.806 1.806 0 01-1.798-1.808c0-1.222 1.025-2.842 1.798-2.842.774 0 1.8 1.62 1.8 2.842a1.807 1.807 0 01-1.8 1.808z" stroke="#1F1C1D" mask="url(#a)"></path>
  </symbol>
  <symbol fill="none" viewBox="0 0 80 71" id="features-2">
    <mask id="a" fill="#fff">
      <path d="M32.411 31.209c-5.297 0-9.606 4.305-9.606 9.596 0 4.837 3.591 7.725 9.606 7.725s9.606-2.888 9.606-7.725c0-5.291-4.309-9.596-9.606-9.596zm0 14.98c-2.712 0-7.263-.7-7.263-5.384 0-4.001 3.258-7.256 7.263-7.256s7.263 3.255 7.263 7.256c0 4.684-4.55 5.384-7.263 5.384zm-4.686-24.343c-2.394 0-3.983 2.959-3.983 4.916a3.986 3.986 0 003.983 3.979 3.986 3.986 0 003.983-3.98c0-1.956-1.588-4.915-3.983-4.915zm0 6.554c-.904 0-1.64-.735-1.64-1.639 0-1.107.935-2.575 1.64-2.575.705 0 1.64 1.468 1.64 2.575a1.64 1.64 0 01-1.64 1.639zm9.372-6.554c-2.395 0-3.983 2.959-3.983 4.916a3.986 3.986 0 003.983 3.979 3.986 3.986 0 003.983-3.98c0-1.956-1.588-4.915-3.983-4.915zm0 6.554c-.904 0-1.64-.735-1.64-1.639 0-1.107.935-2.575 1.64-2.575.705 0 1.64 1.468 1.64 2.575 0 .904-.736 1.639-1.64 1.639zm7.497-.936c-2.394 0-3.983 2.958-3.983 4.915a3.986 3.986 0 003.983 3.98 3.985 3.985 0 003.984-3.98c0-1.957-1.589-4.915-3.984-4.915zm0 6.553c-.904 0-1.64-.735-1.64-1.638 0-1.107.935-2.575 1.64-2.575.706 0 1.64 1.468 1.64 2.575a1.64 1.64 0 01-1.64 1.638zm-24.366-6.553c-2.395 0-3.984 2.958-3.984 4.915a3.986 3.986 0 003.984 3.98 3.985 3.985 0 003.983-3.98c0-1.957-1.589-4.915-3.983-4.915zm0 6.553a1.64 1.64 0 01-1.64-1.638c0-1.107.934-2.575 1.64-2.575.705 0 1.64 1.468 1.64 2.575 0 .903-.736 1.638-1.64 1.638z"></path>
      <path d="M34.91 38.699h-1.327v-1.327a1.17 1.17 0 00-2.343 0V38.7h-1.328a1.17 1.17 0 100 2.34h1.328v1.327a1.17 1.17 0 002.343 0V41.04h1.327a1.17 1.17 0 100-2.34z"></path>
      <path d="M46.502 1.715A35.638 35.638 0 0035.535 0C26.043 0 17.12 3.693 10.408 10.398S0 26.018 0 35.5c0 9.482 3.696 18.397 10.408 25.102C17.12 67.307 26.043 71 35.535 71a1.17 1.17 0 100-2.34c-8.866 0-17.201-3.45-23.47-9.713-6.27-6.263-9.722-14.59-9.722-23.447s3.453-17.184 9.722-23.447C18.334 5.79 26.669 2.34 35.535 2.34c3.508 0 6.955.538 10.247 1.601a1.183 1.183 0 001.475-.753 1.181 1.181 0 00-.755-1.474z"></path>
      <path d="M79.71 32.084l-4.114-4.697a1.184 1.184 0 00-1.653-.11l-3.277 2.864a35.492 35.492 0 00-10.004-19.744 35.635 35.635 0 00-8.626-6.357 1.183 1.183 0 00-1.582.492 1.181 1.181 0 00.492 1.58 33.303 33.303 0 018.06 5.94c5.596 5.592 8.914 12.692 9.593 20.532.08.935 1.23 1.4 1.938.78l4.067-3.555 2.571 2.936-9.115 7.968a1.973 1.973 0 01-2.571 0l-9.116-7.968 2.572-2.936 3.739 3.268c.79.69 2.057.023 1.934-1.018C62.886 17.341 50.381 6.242 35.535 6.242 19.386 6.242 6.248 19.367 6.248 35.5s13.138 29.258 29.287 29.258a1.17 1.17 0 100-2.34c-14.857 0-26.944-12.076-26.944-26.918 0-14.843 12.087-26.918 26.944-26.918 12.555 0 23.289 8.628 26.18 20.538l-2.109-1.843a1.184 1.184 0 00-1.653.11l-4.114 4.698a1.17 1.17 0 00.11 1.651l9.997 8.738c1.6 1.398 4.058 1.398 5.657 0l9.997-8.738a1.17 1.17 0 00.11-1.651z"></path>
      <path d="M54.904 66.787h-8.696c3.873-2.88 9.867-8.236 9.867-13.81 0-4.087-3.328-7.412-7.42-7.412-4.09 0-7.419 3.325-7.419 7.412a1.17 1.17 0 002.343 0 5.08 5.08 0 015.077-5.072 5.08 5.08 0 015.076 5.072c0 6.739-11.808 13.905-11.927 13.976-.46.276-.676.847-.514 1.358.153.48.612.816 1.117.816h12.495a1.17 1.17 0 100-2.34zm18.743-4.994H71.07V46.735c0-.48-.304-.922-.753-1.093a1.183 1.183 0 00-1.347.38L56.474 62.25c-.581.755-.023 1.884.929 1.884h11.324v3.823a1.17 1.17 0 002.343 0v-3.823h2.577a1.17 1.17 0 100-2.34zm-4.92 0h-8.945l8.945-11.617v11.617z"></path>
    </mask>
    <path d="M32.411 31.209c-5.297 0-9.606 4.305-9.606 9.596 0 4.837 3.591 7.725 9.606 7.725s9.606-2.888 9.606-7.725c0-5.291-4.309-9.596-9.606-9.596zm0 14.98c-2.712 0-7.263-.7-7.263-5.384 0-4.001 3.258-7.256 7.263-7.256s7.263 3.255 7.263 7.256c0 4.684-4.55 5.384-7.263 5.384zm-4.686-24.343c-2.394 0-3.983 2.959-3.983 4.916a3.986 3.986 0 003.983 3.979 3.986 3.986 0 003.983-3.98c0-1.956-1.588-4.915-3.983-4.915zm0 6.554c-.904 0-1.64-.735-1.64-1.639 0-1.107.935-2.575 1.64-2.575.705 0 1.64 1.468 1.64 2.575a1.64 1.64 0 01-1.64 1.639zm9.372-6.554c-2.395 0-3.983 2.959-3.983 4.916a3.986 3.986 0 003.983 3.979 3.986 3.986 0 003.983-3.98c0-1.956-1.588-4.915-3.983-4.915zm0 6.554c-.904 0-1.64-.735-1.64-1.639 0-1.107.935-2.575 1.64-2.575.705 0 1.64 1.468 1.64 2.575 0 .904-.736 1.639-1.64 1.639zm7.497-.936c-2.394 0-3.983 2.958-3.983 4.915a3.986 3.986 0 003.983 3.98 3.985 3.985 0 003.984-3.98c0-1.957-1.589-4.915-3.984-4.915zm0 6.553c-.904 0-1.64-.735-1.64-1.638 0-1.107.935-2.575 1.64-2.575.706 0 1.64 1.468 1.64 2.575a1.64 1.64 0 01-1.64 1.638zm-24.366-6.553c-2.395 0-3.984 2.958-3.984 4.915a3.986 3.986 0 003.984 3.98 3.985 3.985 0 003.983-3.98c0-1.957-1.589-4.915-3.983-4.915zm0 6.553a1.64 1.64 0 01-1.64-1.638c0-1.107.934-2.575 1.64-2.575.705 0 1.64 1.468 1.64 2.575 0 .903-.736 1.638-1.64 1.638z" fill="#A07B50"></path>
    <path d="M34.91 38.699h-1.327v-1.327a1.17 1.17 0 00-2.343 0V38.7h-1.328a1.17 1.17 0 100 2.34h1.328v1.327a1.17 1.17 0 002.343 0V41.04h1.327a1.17 1.17 0 100-2.34z" fill="#A07B50"></path>
    <path d="M46.502 1.715A35.638 35.638 0 0035.535 0C26.043 0 17.12 3.693 10.408 10.398S0 26.018 0 35.5c0 9.482 3.696 18.397 10.408 25.102C17.12 67.307 26.043 71 35.535 71a1.17 1.17 0 100-2.34c-8.866 0-17.201-3.45-23.47-9.713-6.27-6.263-9.722-14.59-9.722-23.447s3.453-17.184 9.722-23.447C18.334 5.79 26.669 2.34 35.535 2.34c3.508 0 6.955.538 10.247 1.601a1.183 1.183 0 001.475-.753 1.181 1.181 0 00-.755-1.474z" fill="#A07B50"></path>
    <path d="M79.71 32.084l-4.114-4.697a1.184 1.184 0 00-1.653-.11l-3.277 2.864a35.492 35.492 0 00-10.004-19.744 35.635 35.635 0 00-8.626-6.357 1.183 1.183 0 00-1.582.492 1.181 1.181 0 00.492 1.58 33.303 33.303 0 018.06 5.94c5.596 5.592 8.914 12.692 9.593 20.532.08.935 1.23 1.4 1.938.78l4.067-3.555 2.571 2.936-9.115 7.968a1.973 1.973 0 01-2.571 0l-9.116-7.968 2.572-2.936 3.739 3.268c.79.69 2.057.023 1.934-1.018C62.886 17.341 50.381 6.242 35.535 6.242 19.386 6.242 6.248 19.367 6.248 35.5s13.138 29.258 29.287 29.258a1.17 1.17 0 100-2.34c-14.857 0-26.944-12.076-26.944-26.918 0-14.843 12.087-26.918 26.944-26.918 12.555 0 23.289 8.628 26.18 20.538l-2.109-1.843a1.184 1.184 0 00-1.653.11l-4.114 4.698a1.17 1.17 0 00.11 1.651l9.997 8.738c1.6 1.398 4.058 1.398 5.657 0l9.997-8.738a1.17 1.17 0 00.11-1.651z" fill="#A07B50"></path>
    <path d="M54.904 66.787h-8.696c3.873-2.88 9.867-8.236 9.867-13.81 0-4.087-3.328-7.412-7.42-7.412-4.09 0-7.419 3.325-7.419 7.412a1.17 1.17 0 002.343 0 5.08 5.08 0 015.077-5.072 5.08 5.08 0 015.076 5.072c0 6.739-11.808 13.905-11.927 13.976-.46.276-.676.847-.514 1.358.153.48.612.816 1.117.816h12.495a1.17 1.17 0 100-2.34zm18.743-4.994H71.07V46.735c0-.48-.304-.922-.753-1.093a1.183 1.183 0 00-1.347.38L56.474 62.25c-.581.755-.023 1.884.929 1.884h11.324v3.823a1.17 1.17 0 002.343 0v-3.823h2.577a1.17 1.17 0 100-2.34zm-4.92 0h-8.945l8.945-11.617v11.617z" fill="#A07B50"></path>
    <path d="M32.411 31.209c-5.297 0-9.606 4.305-9.606 9.596 0 4.837 3.591 7.725 9.606 7.725s9.606-2.888 9.606-7.725c0-5.291-4.309-9.596-9.606-9.596zm0 14.98c-2.712 0-7.263-.7-7.263-5.384 0-4.001 3.258-7.256 7.263-7.256s7.263 3.255 7.263 7.256c0 4.684-4.55 5.384-7.263 5.384zm-4.686-24.343c-2.394 0-3.983 2.959-3.983 4.916a3.986 3.986 0 003.983 3.979 3.986 3.986 0 003.983-3.98c0-1.956-1.588-4.915-3.983-4.915zm0 6.554c-.904 0-1.64-.735-1.64-1.639 0-1.107.935-2.575 1.64-2.575.705 0 1.64 1.468 1.64 2.575a1.64 1.64 0 01-1.64 1.639zm9.372-6.554c-2.395 0-3.983 2.959-3.983 4.916a3.986 3.986 0 003.983 3.979 3.986 3.986 0 003.983-3.98c0-1.956-1.588-4.915-3.983-4.915zm0 6.554c-.904 0-1.64-.735-1.64-1.639 0-1.107.935-2.575 1.64-2.575.705 0 1.64 1.468 1.64 2.575 0 .904-.736 1.639-1.64 1.639zm7.497-.936c-2.394 0-3.983 2.958-3.983 4.915a3.986 3.986 0 003.983 3.98 3.985 3.985 0 003.984-3.98c0-1.957-1.589-4.915-3.984-4.915zm0 6.553c-.904 0-1.64-.735-1.64-1.638 0-1.107.935-2.575 1.64-2.575.706 0 1.64 1.468 1.64 2.575a1.64 1.64 0 01-1.64 1.638zm-24.366-6.553c-2.395 0-3.984 2.958-3.984 4.915a3.986 3.986 0 003.984 3.98 3.985 3.985 0 003.983-3.98c0-1.957-1.589-4.915-3.983-4.915zm0 6.553a1.64 1.64 0 01-1.64-1.638c0-1.107.934-2.575 1.64-2.575.705 0 1.64 1.468 1.64 2.575 0 .903-.736 1.638-1.64 1.638z" stroke="#1F1C1D" mask="url(#a)"></path>
    <path d="M34.91 38.699h-1.327v-1.327a1.17 1.17 0 00-2.343 0V38.7h-1.328a1.17 1.17 0 100 2.34h1.328v1.327a1.17 1.17 0 002.343 0V41.04h1.327a1.17 1.17 0 100-2.34z" stroke="#1F1C1D" mask="url(#a)"></path>
    <path d="M46.502 1.715A35.638 35.638 0 0035.535 0C26.043 0 17.12 3.693 10.408 10.398S0 26.018 0 35.5c0 9.482 3.696 18.397 10.408 25.102C17.12 67.307 26.043 71 35.535 71a1.17 1.17 0 100-2.34c-8.866 0-17.201-3.45-23.47-9.713-6.27-6.263-9.722-14.59-9.722-23.447s3.453-17.184 9.722-23.447C18.334 5.79 26.669 2.34 35.535 2.34c3.508 0 6.955.538 10.247 1.601a1.183 1.183 0 001.475-.753 1.181 1.181 0 00-.755-1.474z" stroke="#1F1C1D" mask="url(#a)"></path>
    <path d="M79.71 32.084l-4.114-4.697a1.184 1.184 0 00-1.653-.11l-3.277 2.864a35.492 35.492 0 00-10.004-19.744 35.635 35.635 0 00-8.626-6.357 1.183 1.183 0 00-1.582.492 1.181 1.181 0 00.492 1.58 33.303 33.303 0 018.06 5.94c5.596 5.592 8.914 12.692 9.593 20.532.08.935 1.23 1.4 1.938.78l4.067-3.555 2.571 2.936-9.115 7.968a1.973 1.973 0 01-2.571 0l-9.116-7.968 2.572-2.936 3.739 3.268c.79.69 2.057.023 1.934-1.018C62.886 17.341 50.381 6.242 35.535 6.242 19.386 6.242 6.248 19.367 6.248 35.5s13.138 29.258 29.287 29.258a1.17 1.17 0 100-2.34c-14.857 0-26.944-12.076-26.944-26.918 0-14.843 12.087-26.918 26.944-26.918 12.555 0 23.289 8.628 26.18 20.538l-2.109-1.843a1.184 1.184 0 00-1.653.11l-4.114 4.698a1.17 1.17 0 00.11 1.651l9.997 8.738c1.6 1.398 4.058 1.398 5.657 0l9.997-8.738a1.17 1.17 0 00.11-1.651z" stroke="#1F1C1D" mask="url(#a)"></path>
    <path d="M54.904 66.787h-8.696c3.873-2.88 9.867-8.236 9.867-13.81 0-4.087-3.328-7.412-7.42-7.412-4.09 0-7.419 3.325-7.419 7.412a1.17 1.17 0 002.343 0 5.08 5.08 0 015.077-5.072 5.08 5.08 0 015.076 5.072c0 6.739-11.808 13.905-11.927 13.976-.46.276-.676.847-.514 1.358.153.48.612.816 1.117.816h12.495a1.17 1.17 0 100-2.34zm18.743-4.994H71.07V46.735c0-.48-.304-.922-.753-1.093a1.183 1.183 0 00-1.347.38L56.474 62.25c-.581.755-.023 1.884.929 1.884h11.324v3.823a1.17 1.17 0 002.343 0v-3.823h2.577a1.17 1.17 0 100-2.34zm-4.92 0h-8.945l8.945-11.617v11.617z" stroke="#1F1C1D" mask="url(#a)"></path>
  </symbol>
  <symbol fill="none" viewBox="0 0 57 88" id="features-3">
    <mask id="a" fill="#fff">
      <path d="M56.89 26.944l-5.335-12.15V1.293c0-.943-1.013-1.578-1.847-1.155l-4.874 2.466L39.96.137a1.262 1.262 0 00-1.141 0l-4.874 2.466L29.07.137a1.262 1.262 0 00-1.142 0l-4.874 2.466L18.181.137a1.261 1.261 0 00-1.141 0l-4.874 2.466L7.292.137C6.457-.286 5.445.35 5.445 1.292v13.502L.11 26.944c-.072.164-.11.345-.11.524v59.24C0 87.422.571 88 1.276 88h54.448c.705 0 1.276-.578 1.276-1.292v-59.24c0-.18-.037-.359-.11-.524zM7.997 3.38l3.598 1.821c.36.182.782.182 1.141 0l4.874-2.466 4.874 2.466c.36.182.783.182 1.142 0L28.5 2.736l4.874 2.466c.36.182.782.182 1.141 0l4.874-2.466 4.874 2.466c.36.182.783.182 1.142 0l3.598-1.82v10.395H7.997V3.381zM2.552 65.957h28.223l5.21 4.22-5.21 4.218H2.552v-8.438zM35.306 28.76h8.252v56.657H2.552v-8.439h28.67c.29 0 .571-.1.798-.282l6.805-5.511c.629-.51.629-1.508 0-2.017l-6.805-5.511a1.268 1.268 0 00-.798-.283H2.552V28.759h26.799c.704 0 1.276-.578 1.276-1.291 0-.714-.572-1.292-1.276-1.292H3.24l4.31-9.816h40.766l-4.31 9.816h-8.7c-.705 0-1.276.578-1.276 1.292 0 .713.571 1.291 1.276 1.291zm19.142 56.657H46.11V27.742l4.169-9.493 4.169 9.493v57.675z"></path>
      <path d="M23.055 41.33c-5.77 0-10.464 4.752-10.464 10.592 0 5.337 3.912 8.524 10.464 8.524 6.553 0 10.464-3.187 10.464-8.524 0-5.84-4.694-10.591-10.464-10.591zm0 16.533c-2.955 0-7.912-.772-7.912-5.941 0-4.416 3.55-8.008 7.912-8.008 4.363 0 7.912 3.592 7.912 8.008 0 5.17-4.957 5.941-7.912 5.941zM17.95 30.998c-2.608 0-4.338 3.265-4.338 5.425 0 2.421 1.946 4.391 4.339 4.391 2.392 0 4.338-1.97 4.338-4.391 0-2.16-1.73-5.425-4.338-5.425zm0 7.233a1.8 1.8 0 01-1.786-1.808c0-1.222 1.019-2.842 1.787-2.842s1.786 1.62 1.786 2.842a1.8 1.8 0 01-1.786 1.808zm10.21-7.233c-2.609 0-4.34 3.265-4.34 5.425 0 2.421 1.947 4.391 4.34 4.391 2.392 0 4.338-1.97 4.338-4.391 0-2.16-1.73-5.425-4.338-5.425zm0 7.233a1.8 1.8 0 01-1.787-1.808c0-1.222 1.019-2.842 1.787-2.842s1.786 1.62 1.786 2.842a1.8 1.8 0 01-1.787 1.808zm8.167-1.033c-2.608 0-4.34 3.265-4.34 5.424 0 2.422 1.947 4.392 4.34 4.392 2.392 0 4.339-1.97 4.339-4.392 0-2.16-1.731-5.424-4.34-5.424zm0 7.233a1.8 1.8 0 01-1.787-1.809c0-1.221 1.019-2.841 1.787-2.841s1.786 1.62 1.786 2.841a1.8 1.8 0 01-1.786 1.809zM9.783 37.198c-2.608 0-4.338 3.265-4.338 5.424 0 2.422 1.946 4.392 4.338 4.392 2.393 0 4.34-1.97 4.34-4.392 0-2.16-1.731-5.424-4.34-5.424zm0 7.233a1.8 1.8 0 01-1.786-1.809c0-1.221 1.018-2.841 1.786-2.841.769 0 1.787 1.62 1.787 2.841a1.8 1.8 0 01-1.787 1.809zm2.383 35.475H6.72c-.705 0-1.276.578-1.276 1.292 0 .713.571 1.291 1.276 1.291h5.445c.704 0 1.276-.578 1.276-1.291 0-.714-.572-1.292-1.276-1.292zm17.695 0h-12.25c-.705 0-1.277.578-1.277 1.292 0 .713.572 1.291 1.276 1.291h12.251c.705 0 1.276-.578 1.276-1.291 0-.714-.571-1.292-1.276-1.292zM16.25 68.885H6.72c-.704 0-1.275.578-1.275 1.291 0 .714.571 1.292 1.276 1.292h9.528c.705 0 1.276-.578 1.276-1.292 0-.713-.57-1.291-1.276-1.291zm12.25 0h-6.806c-.705 0-1.276.578-1.276 1.291 0 .714.571 1.292 1.276 1.292H28.5c.705 0 1.276-.578 1.276-1.292 0-.713-.571-1.291-1.276-1.291z"></path>
    </mask>
    <path d="M56.89 26.944l-5.335-12.15V1.293c0-.943-1.013-1.578-1.847-1.155l-4.874 2.466L39.96.137a1.262 1.262 0 00-1.141 0l-4.874 2.466L29.07.137a1.262 1.262 0 00-1.142 0l-4.874 2.466L18.181.137a1.261 1.261 0 00-1.141 0l-4.874 2.466L7.292.137C6.457-.286 5.445.35 5.445 1.292v13.502L.11 26.944c-.072.164-.11.345-.11.524v59.24C0 87.422.571 88 1.276 88h54.448c.705 0 1.276-.578 1.276-1.292v-59.24c0-.18-.037-.359-.11-.524zM7.997 3.38l3.598 1.821c.36.182.782.182 1.141 0l4.874-2.466 4.874 2.466c.36.182.783.182 1.142 0L28.5 2.736l4.874 2.466c.36.182.782.182 1.141 0l4.874-2.466 4.874 2.466c.36.182.783.182 1.142 0l3.598-1.82v10.395H7.997V3.381zM2.552 65.957h28.223l5.21 4.22-5.21 4.218H2.552v-8.438zM35.306 28.76h8.252v56.657H2.552v-8.439h28.67c.29 0 .571-.1.798-.282l6.805-5.511c.629-.51.629-1.508 0-2.017l-6.805-5.511a1.268 1.268 0 00-.798-.283H2.552V28.759h26.799c.704 0 1.276-.578 1.276-1.291 0-.714-.572-1.292-1.276-1.292H3.24l4.31-9.816h40.766l-4.31 9.816h-8.7c-.705 0-1.276.578-1.276 1.292 0 .713.571 1.291 1.276 1.291zm19.142 56.657H46.11V27.742l4.169-9.493 4.169 9.493v57.675z" fill="#A07B50"></path>
    <path d="M23.055 41.33c-5.77 0-10.464 4.752-10.464 10.592 0 5.337 3.912 8.524 10.464 8.524 6.553 0 10.464-3.187 10.464-8.524 0-5.84-4.694-10.591-10.464-10.591zm0 16.533c-2.955 0-7.912-.772-7.912-5.941 0-4.416 3.55-8.008 7.912-8.008 4.363 0 7.912 3.592 7.912 8.008 0 5.17-4.957 5.941-7.912 5.941zM17.95 30.998c-2.608 0-4.338 3.265-4.338 5.425 0 2.421 1.946 4.391 4.339 4.391 2.392 0 4.338-1.97 4.338-4.391 0-2.16-1.73-5.425-4.338-5.425zm0 7.233a1.8 1.8 0 01-1.786-1.808c0-1.222 1.019-2.842 1.787-2.842s1.786 1.62 1.786 2.842a1.8 1.8 0 01-1.786 1.808zm10.21-7.233c-2.609 0-4.34 3.265-4.34 5.425 0 2.421 1.947 4.391 4.34 4.391 2.392 0 4.338-1.97 4.338-4.391 0-2.16-1.73-5.425-4.338-5.425zm0 7.233a1.8 1.8 0 01-1.787-1.808c0-1.222 1.019-2.842 1.787-2.842s1.786 1.62 1.786 2.842a1.8 1.8 0 01-1.787 1.808zm8.167-1.033c-2.608 0-4.34 3.265-4.34 5.424 0 2.422 1.947 4.392 4.34 4.392 2.392 0 4.339-1.97 4.339-4.392 0-2.16-1.731-5.424-4.34-5.424zm0 7.233a1.8 1.8 0 01-1.787-1.809c0-1.221 1.019-2.841 1.787-2.841s1.786 1.62 1.786 2.841a1.8 1.8 0 01-1.786 1.809zM9.783 37.198c-2.608 0-4.338 3.265-4.338 5.424 0 2.422 1.946 4.392 4.338 4.392 2.393 0 4.34-1.97 4.34-4.392 0-2.16-1.731-5.424-4.34-5.424zm0 7.233a1.8 1.8 0 01-1.786-1.809c0-1.221 1.018-2.841 1.786-2.841.769 0 1.787 1.62 1.787 2.841a1.8 1.8 0 01-1.787 1.809zm2.383 35.475H6.72c-.705 0-1.276.578-1.276 1.292 0 .713.571 1.291 1.276 1.291h5.445c.704 0 1.276-.578 1.276-1.291 0-.714-.572-1.292-1.276-1.292zm17.695 0h-12.25c-.705 0-1.277.578-1.277 1.292 0 .713.572 1.291 1.276 1.291h12.251c.705 0 1.276-.578 1.276-1.291 0-.714-.571-1.292-1.276-1.292zM16.25 68.885H6.72c-.704 0-1.275.578-1.275 1.291 0 .714.571 1.292 1.276 1.292h9.528c.705 0 1.276-.578 1.276-1.292 0-.713-.57-1.291-1.276-1.291zm12.25 0h-6.806c-.705 0-1.276.578-1.276 1.291 0 .714.571 1.292 1.276 1.292H28.5c.705 0 1.276-.578 1.276-1.292 0-.713-.571-1.291-1.276-1.291z" fill="#A07B50"></path>
    <path d="M56.89 26.944l-5.335-12.15V1.293c0-.943-1.013-1.578-1.847-1.155l-4.874 2.466L39.96.137a1.262 1.262 0 00-1.141 0l-4.874 2.466L29.07.137a1.262 1.262 0 00-1.142 0l-4.874 2.466L18.181.137a1.261 1.261 0 00-1.141 0l-4.874 2.466L7.292.137C6.457-.286 5.445.35 5.445 1.292v13.502L.11 26.944c-.072.164-.11.345-.11.524v59.24C0 87.422.571 88 1.276 88h54.448c.705 0 1.276-.578 1.276-1.292v-59.24c0-.18-.037-.359-.11-.524zM7.997 3.38l3.598 1.821c.36.182.782.182 1.141 0l4.874-2.466 4.874 2.466c.36.182.783.182 1.142 0L28.5 2.736l4.874 2.466c.36.182.782.182 1.141 0l4.874-2.466 4.874 2.466c.36.182.783.182 1.142 0l3.598-1.82v10.395H7.997V3.381zM2.552 65.957h28.223l5.21 4.22-5.21 4.218H2.552v-8.438zM35.306 28.76h8.252v56.657H2.552v-8.439h28.67c.29 0 .571-.1.798-.282l6.805-5.511c.629-.51.629-1.508 0-2.017l-6.805-5.511a1.268 1.268 0 00-.798-.283H2.552V28.759h26.799c.704 0 1.276-.578 1.276-1.291 0-.714-.572-1.292-1.276-1.292H3.24l4.31-9.816h40.766l-4.31 9.816h-8.7c-.705 0-1.276.578-1.276 1.292 0 .713.571 1.291 1.276 1.291zm19.142 56.657H46.11V27.742l4.169-9.493 4.169 9.493v57.675z" stroke="#1F1C1D" mask="url(#a)"></path>
    <path d="M23.055 41.33c-5.77 0-10.464 4.752-10.464 10.592 0 5.337 3.912 8.524 10.464 8.524 6.553 0 10.464-3.187 10.464-8.524 0-5.84-4.694-10.591-10.464-10.591zm0 16.533c-2.955 0-7.912-.772-7.912-5.941 0-4.416 3.55-8.008 7.912-8.008 4.363 0 7.912 3.592 7.912 8.008 0 5.17-4.957 5.941-7.912 5.941zM17.95 30.998c-2.608 0-4.338 3.265-4.338 5.425 0 2.421 1.946 4.391 4.339 4.391 2.392 0 4.338-1.97 4.338-4.391 0-2.16-1.73-5.425-4.338-5.425zm0 7.233a1.8 1.8 0 01-1.786-1.808c0-1.222 1.019-2.842 1.787-2.842s1.786 1.62 1.786 2.842a1.8 1.8 0 01-1.786 1.808zm10.21-7.233c-2.609 0-4.34 3.265-4.34 5.425 0 2.421 1.947 4.391 4.34 4.391 2.392 0 4.338-1.97 4.338-4.391 0-2.16-1.73-5.425-4.338-5.425zm0 7.233a1.8 1.8 0 01-1.787-1.808c0-1.222 1.019-2.842 1.787-2.842s1.786 1.62 1.786 2.842a1.8 1.8 0 01-1.787 1.808zm8.167-1.033c-2.608 0-4.34 3.265-4.34 5.424 0 2.422 1.947 4.392 4.34 4.392 2.392 0 4.339-1.97 4.339-4.392 0-2.16-1.731-5.424-4.34-5.424zm0 7.233a1.8 1.8 0 01-1.787-1.809c0-1.221 1.019-2.841 1.787-2.841s1.786 1.62 1.786 2.841a1.8 1.8 0 01-1.786 1.809zM9.783 37.198c-2.608 0-4.338 3.265-4.338 5.424 0 2.422 1.946 4.392 4.338 4.392 2.393 0 4.34-1.97 4.34-4.392 0-2.16-1.731-5.424-4.34-5.424zm0 7.233a1.8 1.8 0 01-1.786-1.809c0-1.221 1.018-2.841 1.786-2.841.769 0 1.787 1.62 1.787 2.841a1.8 1.8 0 01-1.787 1.809zm2.383 35.475H6.72c-.705 0-1.276.578-1.276 1.292 0 .713.571 1.291 1.276 1.291h5.445c.704 0 1.276-.578 1.276-1.291 0-.714-.572-1.292-1.276-1.292zm17.695 0h-12.25c-.705 0-1.277.578-1.277 1.292 0 .713.572 1.291 1.276 1.291h12.251c.705 0 1.276-.578 1.276-1.291 0-.714-.571-1.292-1.276-1.292zM16.25 68.885H6.72c-.704 0-1.275.578-1.275 1.291 0 .714.571 1.292 1.276 1.292h9.528c.705 0 1.276-.578 1.276-1.292 0-.713-.57-1.291-1.276-1.291zm12.25 0h-6.806c-.705 0-1.276.578-1.276 1.291 0 .714.571 1.292 1.276 1.292H28.5c.705 0 1.276-.578 1.276-1.292 0-.713-.571-1.291-1.276-1.291z" stroke="#1F1C1D" mask="url(#a)"></path>
  </symbol>
  <view id="features-1-view" viewBox="0 0 80 88"></view>
  <view id="features-2-view" viewBox="0 0 80 71"></view>
  <view id="features-3-view" viewBox="0 0 57 88"></view>
  <use href="#features-1" width="80" height="88" x="0" y="0"></use>
  <use href="#features-2" width="80" height="71" x="0" y="100"></use>
  <use href="#features-3" width="57" height="88" x="0" y="200"></use>-->

  <defs>
    <style>
      .img { display: none }
      .img:target { display: inline }
    </style>
  </defs>
  <svg viewBox="0 0 80 88">
    <g id="features-1" class="img" fill="none">
      <mask fill="#fff">
        <path d="M10.878 19.288C4.88 19.288 0 24.193 0 30.223c0 5.593 4.199 10.215 9.593 10.857v8.43c0 .714.575 1.292 1.285 1.292s1.285-.578 1.285-1.291V41.08c5.394-.642 9.593-5.264 9.593-10.857 0-6.03-4.88-10.935-10.878-10.935zm0 19.287c-4.581 0-8.308-3.747-8.308-8.352s3.727-8.352 8.308-8.352c4.581 0 8.308 3.747 8.308 8.352s-3.727 8.352-8.308 8.352z"></path>
        <path d="M10.878 24.799c-2.976 0-5.396 2.433-5.396 5.424 0 2.991 2.42 5.425 5.396 5.425 2.975 0 5.396-2.434 5.396-5.425 0-2.99-2.42-5.424-5.396-5.424zm0 8.266a2.837 2.837 0 01-2.827-2.842 2.837 2.837 0 012.827-2.841 2.837 2.837 0 012.826 2.841 2.837 2.837 0 01-2.826 2.842zm67.837-2.067h-.771V8.868c0-3.75-3.036-6.801-6.767-6.801h-2.826v-.775A1.289 1.289 0 0067.066 0H63.64c-1.842 0-3.34 1.506-3.34 3.358s1.498 3.358 3.34 3.358h3.426c.71 0 1.285-.578 1.285-1.291V4.65h2.826c2.315 0 4.197 1.892 4.197 4.219v22.129h-.77c-.71 0-1.285.578-1.285 1.291v2.067c0 5.745-4.65 10.419-10.364 10.419H46.509c-5.714 0-10.364-4.674-10.364-10.42V32.29c0-.713-.575-1.291-1.284-1.291h-.771V8.868c0-2.325 1.883-4.218 4.197-4.218h2.826v.775c0 .713.575 1.291 1.285 1.291h3.426c1.842 0 3.34-1.506 3.34-3.358S47.667 0 45.825 0h-3.426c-.71 0-1.285.578-1.285 1.292v.775h-2.826c-3.731 0-6.767 3.051-6.767 6.802v22.129h-.77c-.71 0-1.286.578-1.286 1.292v2.066c0 9.448 7.647 17.135 17.045 17.135h4.883v6.286c0 .713.575 1.291 1.284 1.291h.771v6.975c0 10.683-8.645 19.374-19.272 19.374h-2.74c-10.627 0-19.272-8.691-19.272-19.374V55.768c0-.714-.575-1.292-1.285-1.292s-1.285.578-1.285 1.292v10.275C9.593 78.15 19.391 88 31.435 88h2.74c12.044 0 21.842-9.85 21.842-21.957v-6.975h.771c.71 0 1.285-.578 1.285-1.291V51.49h4.882C72.353 51.491 80 43.804 80 34.356V32.29c0-.714-.576-1.292-1.285-1.292zM65.78 4.133h-2.14a.774.774 0 01-.77-.775c0-.427.345-.775.77-.775h2.141v1.55zm-22.098-1.55h2.141c.425 0 .771.348.771.775a.774.774 0 01-.77.775h-2.142v-1.55zM77.43 34.356c0 8.024-6.493 14.552-14.475 14.552h-6.167c-.71 0-1.285.578-1.285 1.291v6.286h-1.542V50.2c0-.714-.575-1.292-1.285-1.292H46.51c-7.982 0-14.476-6.528-14.476-14.552v-.775h1.542v.775c0 7.17 5.802 13.002 12.934 13.002h16.445c7.132 0 12.934-5.832 12.934-13.002v-.775h1.541v.775z"></path>
        <path d="M54.732 20.665c-5.809 0-10.535 4.752-10.535 10.591 0 5.338 3.938 8.525 10.535 8.525 6.597 0 10.535-3.187 10.535-8.525 0-5.84-4.726-10.59-10.535-10.59zm0 16.533c-2.975 0-7.966-.772-7.966-5.942 0-4.415 3.574-8.008 7.966-8.008s7.966 3.593 7.966 8.008c0 5.17-4.991 5.942-7.966 5.942zm-5.139-26.865c-2.626 0-4.368 3.265-4.368 5.424 0 2.422 1.96 4.392 4.368 4.392 2.409 0 4.368-1.97 4.368-4.392 0-2.16-1.742-5.424-4.368-5.424zm0 7.233a1.806 1.806 0 01-1.799-1.809c0-1.221 1.026-2.841 1.799-2.841.773 0 1.799 1.62 1.799 2.841 0 .997-.807 1.809-1.799 1.809zm10.278-7.233c-2.626 0-4.368 3.265-4.368 5.424 0 2.422 1.96 4.392 4.368 4.392 2.409 0 4.369-1.97 4.369-4.392 0-2.16-1.743-5.424-4.369-5.424zm0 7.233a1.806 1.806 0 01-1.799-1.809c0-1.221 1.026-2.841 1.8-2.841.773 0 1.798 1.62 1.798 2.841 0 .997-.807 1.809-1.799 1.809zm8.223-1.034c-2.626 0-4.368 3.265-4.368 5.425 0 2.422 1.96 4.391 4.368 4.391 2.409 0 4.368-1.97 4.368-4.391 0-2.16-1.742-5.425-4.368-5.425zm0 7.233a1.806 1.806 0 01-1.799-1.808c0-1.222 1.026-2.842 1.799-2.842.773 0 1.799 1.62 1.799 2.842 0 .997-.807 1.808-1.8 1.808zM41.37 16.532c-2.626 0-4.368 3.265-4.368 5.425 0 2.422 1.96 4.391 4.368 4.391 2.41 0 4.369-1.97 4.369-4.391 0-2.16-1.743-5.425-4.369-5.425zm0 7.233a1.806 1.806 0 01-1.798-1.808c0-1.222 1.025-2.842 1.798-2.842.774 0 1.8 1.62 1.8 2.842a1.807 1.807 0 01-1.8 1.808z"></path>
      </mask>
      <path d="M10.878 19.288C4.88 19.288 0 24.193 0 30.223c0 5.593 4.199 10.215 9.593 10.857v8.43c0 .714.575 1.292 1.285 1.292s1.285-.578 1.285-1.291V41.08c5.394-.642 9.593-5.264 9.593-10.857 0-6.03-4.88-10.935-10.878-10.935zm0 19.287c-4.581 0-8.308-3.747-8.308-8.352s3.727-8.352 8.308-8.352c4.581 0 8.308 3.747 8.308 8.352s-3.727 8.352-8.308 8.352z" fill="#A07B50"></path>
      <path d="M10.878 24.799c-2.976 0-5.396 2.433-5.396 5.424 0 2.991 2.42 5.425 5.396 5.425 2.975 0 5.396-2.434 5.396-5.425 0-2.99-2.42-5.424-5.396-5.424zm0 8.266a2.837 2.837 0 01-2.827-2.842 2.837 2.837 0 012.827-2.841 2.837 2.837 0 012.826 2.841 2.837 2.837 0 01-2.826 2.842zm67.837-2.067h-.771V8.868c0-3.75-3.036-6.801-6.767-6.801h-2.826v-.775A1.289 1.289 0 0067.066 0H63.64c-1.842 0-3.34 1.506-3.34 3.358s1.498 3.358 3.34 3.358h3.426c.71 0 1.285-.578 1.285-1.291V4.65h2.826c2.315 0 4.197 1.892 4.197 4.219v22.129h-.77c-.71 0-1.285.578-1.285 1.291v2.067c0 5.745-4.65 10.419-10.364 10.419H46.509c-5.714 0-10.364-4.674-10.364-10.42V32.29c0-.713-.575-1.291-1.284-1.291h-.771V8.868c0-2.325 1.883-4.218 4.197-4.218h2.826v.775c0 .713.575 1.291 1.285 1.291h3.426c1.842 0 3.34-1.506 3.34-3.358S47.667 0 45.825 0h-3.426c-.71 0-1.285.578-1.285 1.292v.775h-2.826c-3.731 0-6.767 3.051-6.767 6.802v22.129h-.77c-.71 0-1.286.578-1.286 1.292v2.066c0 9.448 7.647 17.135 17.045 17.135h4.883v6.286c0 .713.575 1.291 1.284 1.291h.771v6.975c0 10.683-8.645 19.374-19.272 19.374h-2.74c-10.627 0-19.272-8.691-19.272-19.374V55.768c0-.714-.575-1.292-1.285-1.292s-1.285.578-1.285 1.292v10.275C9.593 78.15 19.391 88 31.435 88h2.74c12.044 0 21.842-9.85 21.842-21.957v-6.975h.771c.71 0 1.285-.578 1.285-1.291V51.49h4.882C72.353 51.491 80 43.804 80 34.356V32.29c0-.714-.576-1.292-1.285-1.292zM65.78 4.133h-2.14a.774.774 0 01-.77-.775c0-.427.345-.775.77-.775h2.141v1.55zm-22.098-1.55h2.141c.425 0 .771.348.771.775a.774.774 0 01-.77.775h-2.142v-1.55zM77.43 34.356c0 8.024-6.493 14.552-14.475 14.552h-6.167c-.71 0-1.285.578-1.285 1.291v6.286h-1.542V50.2c0-.714-.575-1.292-1.285-1.292H46.51c-7.982 0-14.476-6.528-14.476-14.552v-.775h1.542v.775c0 7.17 5.802 13.002 12.934 13.002h16.445c7.132 0 12.934-5.832 12.934-13.002v-.775h1.541v.775z" fill="#A07B50"></path>
      <path d="M54.732 20.665c-5.809 0-10.535 4.752-10.535 10.591 0 5.338 3.938 8.525 10.535 8.525 6.597 0 10.535-3.187 10.535-8.525 0-5.84-4.726-10.59-10.535-10.59zm0 16.533c-2.975 0-7.966-.772-7.966-5.942 0-4.415 3.574-8.008 7.966-8.008s7.966 3.593 7.966 8.008c0 5.17-4.991 5.942-7.966 5.942zm-5.139-26.865c-2.626 0-4.368 3.265-4.368 5.424 0 2.422 1.96 4.392 4.368 4.392 2.409 0 4.368-1.97 4.368-4.392 0-2.16-1.742-5.424-4.368-5.424zm0 7.233a1.806 1.806 0 01-1.799-1.809c0-1.221 1.026-2.841 1.799-2.841.773 0 1.799 1.62 1.799 2.841 0 .997-.807 1.809-1.799 1.809zm10.278-7.233c-2.626 0-4.368 3.265-4.368 5.424 0 2.422 1.96 4.392 4.368 4.392 2.409 0 4.369-1.97 4.369-4.392 0-2.16-1.743-5.424-4.369-5.424zm0 7.233a1.806 1.806 0 01-1.799-1.809c0-1.221 1.026-2.841 1.8-2.841.773 0 1.798 1.62 1.798 2.841 0 .997-.807 1.809-1.799 1.809zm8.223-1.034c-2.626 0-4.368 3.265-4.368 5.425 0 2.422 1.96 4.391 4.368 4.391 2.409 0 4.368-1.97 4.368-4.391 0-2.16-1.742-5.425-4.368-5.425zm0 7.233a1.806 1.806 0 01-1.799-1.808c0-1.222 1.026-2.842 1.799-2.842.773 0 1.799 1.62 1.799 2.842 0 .997-.807 1.808-1.8 1.808zM41.37 16.532c-2.626 0-4.368 3.265-4.368 5.425 0 2.422 1.96 4.391 4.368 4.391 2.41 0 4.369-1.97 4.369-4.391 0-2.16-1.743-5.425-4.369-5.425zm0 7.233a1.806 1.806 0 01-1.798-1.808c0-1.222 1.025-2.842 1.798-2.842.774 0 1.8 1.62 1.8 2.842a1.807 1.807 0 01-1.8 1.808z" fill="#A07B50"></path>
      <path d="M10.878 19.288C4.88 19.288 0 24.193 0 30.223c0 5.593 4.199 10.215 9.593 10.857v8.43c0 .714.575 1.292 1.285 1.292s1.285-.578 1.285-1.291V41.08c5.394-.642 9.593-5.264 9.593-10.857 0-6.03-4.88-10.935-10.878-10.935zm0 19.287c-4.581 0-8.308-3.747-8.308-8.352s3.727-8.352 8.308-8.352c4.581 0 8.308 3.747 8.308 8.352s-3.727 8.352-8.308 8.352z" stroke="#1F1C1D" mask="url(#a)"></path>
      <path d="M10.878 24.799c-2.976 0-5.396 2.433-5.396 5.424 0 2.991 2.42 5.425 5.396 5.425 2.975 0 5.396-2.434 5.396-5.425 0-2.99-2.42-5.424-5.396-5.424zm0 8.266a2.837 2.837 0 01-2.827-2.842 2.837 2.837 0 012.827-2.841 2.837 2.837 0 012.826 2.841 2.837 2.837 0 01-2.826 2.842zm67.837-2.067h-.771V8.868c0-3.75-3.036-6.801-6.767-6.801h-2.826v-.775A1.289 1.289 0 0067.066 0H63.64c-1.842 0-3.34 1.506-3.34 3.358s1.498 3.358 3.34 3.358h3.426c.71 0 1.285-.578 1.285-1.291V4.65h2.826c2.315 0 4.197 1.892 4.197 4.219v22.129h-.77c-.71 0-1.285.578-1.285 1.291v2.067c0 5.745-4.65 10.419-10.364 10.419H46.509c-5.714 0-10.364-4.674-10.364-10.42V32.29c0-.713-.575-1.291-1.284-1.291h-.771V8.868c0-2.325 1.883-4.218 4.197-4.218h2.826v.775c0 .713.575 1.291 1.285 1.291h3.426c1.842 0 3.34-1.506 3.34-3.358S47.667 0 45.825 0h-3.426c-.71 0-1.285.578-1.285 1.292v.775h-2.826c-3.731 0-6.767 3.051-6.767 6.802v22.129h-.77c-.71 0-1.286.578-1.286 1.292v2.066c0 9.448 7.647 17.135 17.045 17.135h4.883v6.286c0 .713.575 1.291 1.284 1.291h.771v6.975c0 10.683-8.645 19.374-19.272 19.374h-2.74c-10.627 0-19.272-8.691-19.272-19.374V55.768c0-.714-.575-1.292-1.285-1.292s-1.285.578-1.285 1.292v10.275C9.593 78.15 19.391 88 31.435 88h2.74c12.044 0 21.842-9.85 21.842-21.957v-6.975h.771c.71 0 1.285-.578 1.285-1.291V51.49h4.882C72.353 51.491 80 43.804 80 34.356V32.29c0-.714-.576-1.292-1.285-1.292zM65.78 4.133h-2.14a.774.774 0 01-.77-.775c0-.427.345-.775.77-.775h2.141v1.55zm-22.098-1.55h2.141c.425 0 .771.348.771.775a.774.774 0 01-.77.775h-2.142v-1.55zM77.43 34.356c0 8.024-6.493 14.552-14.475 14.552h-6.167c-.71 0-1.285.578-1.285 1.291v6.286h-1.542V50.2c0-.714-.575-1.292-1.285-1.292H46.51c-7.982 0-14.476-6.528-14.476-14.552v-.775h1.542v.775c0 7.17 5.802 13.002 12.934 13.002h16.445c7.132 0 12.934-5.832 12.934-13.002v-.775h1.541v.775z" stroke="#1F1C1D" mask="url(#a)"></path>
      <path d="M54.732 20.665c-5.809 0-10.535 4.752-10.535 10.591 0 5.338 3.938 8.525 10.535 8.525 6.597 0 10.535-3.187 10.535-8.525 0-5.84-4.726-10.59-10.535-10.59zm0 16.533c-2.975 0-7.966-.772-7.966-5.942 0-4.415 3.574-8.008 7.966-8.008s7.966 3.593 7.966 8.008c0 5.17-4.991 5.942-7.966 5.942zm-5.139-26.865c-2.626 0-4.368 3.265-4.368 5.424 0 2.422 1.96 4.392 4.368 4.392 2.409 0 4.368-1.97 4.368-4.392 0-2.16-1.742-5.424-4.368-5.424zm0 7.233a1.806 1.806 0 01-1.799-1.809c0-1.221 1.026-2.841 1.799-2.841.773 0 1.799 1.62 1.799 2.841 0 .997-.807 1.809-1.799 1.809zm10.278-7.233c-2.626 0-4.368 3.265-4.368 5.424 0 2.422 1.96 4.392 4.368 4.392 2.409 0 4.369-1.97 4.369-4.392 0-2.16-1.743-5.424-4.369-5.424zm0 7.233a1.806 1.806 0 01-1.799-1.809c0-1.221 1.026-2.841 1.8-2.841.773 0 1.798 1.62 1.798 2.841 0 .997-.807 1.809-1.799 1.809zm8.223-1.034c-2.626 0-4.368 3.265-4.368 5.425 0 2.422 1.96 4.391 4.368 4.391 2.409 0 4.368-1.97 4.368-4.391 0-2.16-1.742-5.425-4.368-5.425zm0 7.233a1.806 1.806 0 01-1.799-1.808c0-1.222 1.026-2.842 1.799-2.842.773 0 1.799 1.62 1.799 2.842 0 .997-.807 1.808-1.8 1.808zM41.37 16.532c-2.626 0-4.368 3.265-4.368 5.425 0 2.422 1.96 4.391 4.368 4.391 2.41 0 4.369-1.97 4.369-4.391 0-2.16-1.743-5.425-4.369-5.425zm0 7.233a1.806 1.806 0 01-1.798-1.808c0-1.222 1.025-2.842 1.798-2.842.774 0 1.8 1.62 1.8 2.842a1.807 1.807 0 01-1.8 1.808z" stroke="#1F1C1D" mask="url(#a)"></path>
    </g>
  </svg>
  <svg viewBox="0 0 80 71">
    <g id="features-2" class="img" fill="none">
      <mask fill="#fff">
        <path d="M32.411 31.209c-5.297 0-9.606 4.305-9.606 9.596 0 4.837 3.591 7.725 9.606 7.725s9.606-2.888 9.606-7.725c0-5.291-4.309-9.596-9.606-9.596zm0 14.98c-2.712 0-7.263-.7-7.263-5.384 0-4.001 3.258-7.256 7.263-7.256s7.263 3.255 7.263 7.256c0 4.684-4.55 5.384-7.263 5.384zm-4.686-24.343c-2.394 0-3.983 2.959-3.983 4.916a3.986 3.986 0 003.983 3.979 3.986 3.986 0 003.983-3.98c0-1.956-1.588-4.915-3.983-4.915zm0 6.554c-.904 0-1.64-.735-1.64-1.639 0-1.107.935-2.575 1.64-2.575.705 0 1.64 1.468 1.64 2.575a1.64 1.64 0 01-1.64 1.639zm9.372-6.554c-2.395 0-3.983 2.959-3.983 4.916a3.986 3.986 0 003.983 3.979 3.986 3.986 0 003.983-3.98c0-1.956-1.588-4.915-3.983-4.915zm0 6.554c-.904 0-1.64-.735-1.64-1.639 0-1.107.935-2.575 1.64-2.575.705 0 1.64 1.468 1.64 2.575 0 .904-.736 1.639-1.64 1.639zm7.497-.936c-2.394 0-3.983 2.958-3.983 4.915a3.986 3.986 0 003.983 3.98 3.985 3.985 0 003.984-3.98c0-1.957-1.589-4.915-3.984-4.915zm0 6.553c-.904 0-1.64-.735-1.64-1.638 0-1.107.935-2.575 1.64-2.575.706 0 1.64 1.468 1.64 2.575a1.64 1.64 0 01-1.64 1.638zm-24.366-6.553c-2.395 0-3.984 2.958-3.984 4.915a3.986 3.986 0 003.984 3.98 3.985 3.985 0 003.983-3.98c0-1.957-1.589-4.915-3.983-4.915zm0 6.553a1.64 1.64 0 01-1.64-1.638c0-1.107.934-2.575 1.64-2.575.705 0 1.64 1.468 1.64 2.575 0 .903-.736 1.638-1.64 1.638z"></path>
        <path d="M34.91 38.699h-1.327v-1.327a1.17 1.17 0 00-2.343 0V38.7h-1.328a1.17 1.17 0 100 2.34h1.328v1.327a1.17 1.17 0 002.343 0V41.04h1.327a1.17 1.17 0 100-2.34z"></path>
        <path d="M46.502 1.715A35.638 35.638 0 0035.535 0C26.043 0 17.12 3.693 10.408 10.398S0 26.018 0 35.5c0 9.482 3.696 18.397 10.408 25.102C17.12 67.307 26.043 71 35.535 71a1.17 1.17 0 100-2.34c-8.866 0-17.201-3.45-23.47-9.713-6.27-6.263-9.722-14.59-9.722-23.447s3.453-17.184 9.722-23.447C18.334 5.79 26.669 2.34 35.535 2.34c3.508 0 6.955.538 10.247 1.601a1.183 1.183 0 001.475-.753 1.181 1.181 0 00-.755-1.474z"></path>
        <path d="M79.71 32.084l-4.114-4.697a1.184 1.184 0 00-1.653-.11l-3.277 2.864a35.492 35.492 0 00-10.004-19.744 35.635 35.635 0 00-8.626-6.357 1.183 1.183 0 00-1.582.492 1.181 1.181 0 00.492 1.58 33.303 33.303 0 018.06 5.94c5.596 5.592 8.914 12.692 9.593 20.532.08.935 1.23 1.4 1.938.78l4.067-3.555 2.571 2.936-9.115 7.968a1.973 1.973 0 01-2.571 0l-9.116-7.968 2.572-2.936 3.739 3.268c.79.69 2.057.023 1.934-1.018C62.886 17.341 50.381 6.242 35.535 6.242 19.386 6.242 6.248 19.367 6.248 35.5s13.138 29.258 29.287 29.258a1.17 1.17 0 100-2.34c-14.857 0-26.944-12.076-26.944-26.918 0-14.843 12.087-26.918 26.944-26.918 12.555 0 23.289 8.628 26.18 20.538l-2.109-1.843a1.184 1.184 0 00-1.653.11l-4.114 4.698a1.17 1.17 0 00.11 1.651l9.997 8.738c1.6 1.398 4.058 1.398 5.657 0l9.997-8.738a1.17 1.17 0 00.11-1.651z"></path>
        <path d="M54.904 66.787h-8.696c3.873-2.88 9.867-8.236 9.867-13.81 0-4.087-3.328-7.412-7.42-7.412-4.09 0-7.419 3.325-7.419 7.412a1.17 1.17 0 002.343 0 5.08 5.08 0 015.077-5.072 5.08 5.08 0 015.076 5.072c0 6.739-11.808 13.905-11.927 13.976-.46.276-.676.847-.514 1.358.153.48.612.816 1.117.816h12.495a1.17 1.17 0 100-2.34zm18.743-4.994H71.07V46.735c0-.48-.304-.922-.753-1.093a1.183 1.183 0 00-1.347.38L56.474 62.25c-.581.755-.023 1.884.929 1.884h11.324v3.823a1.17 1.17 0 002.343 0v-3.823h2.577a1.17 1.17 0 100-2.34zm-4.92 0h-8.945l8.945-11.617v11.617z"></path>
      </mask>
      <path d="M32.411 31.209c-5.297 0-9.606 4.305-9.606 9.596 0 4.837 3.591 7.725 9.606 7.725s9.606-2.888 9.606-7.725c0-5.291-4.309-9.596-9.606-9.596zm0 14.98c-2.712 0-7.263-.7-7.263-5.384 0-4.001 3.258-7.256 7.263-7.256s7.263 3.255 7.263 7.256c0 4.684-4.55 5.384-7.263 5.384zm-4.686-24.343c-2.394 0-3.983 2.959-3.983 4.916a3.986 3.986 0 003.983 3.979 3.986 3.986 0 003.983-3.98c0-1.956-1.588-4.915-3.983-4.915zm0 6.554c-.904 0-1.64-.735-1.64-1.639 0-1.107.935-2.575 1.64-2.575.705 0 1.64 1.468 1.64 2.575a1.64 1.64 0 01-1.64 1.639zm9.372-6.554c-2.395 0-3.983 2.959-3.983 4.916a3.986 3.986 0 003.983 3.979 3.986 3.986 0 003.983-3.98c0-1.956-1.588-4.915-3.983-4.915zm0 6.554c-.904 0-1.64-.735-1.64-1.639 0-1.107.935-2.575 1.64-2.575.705 0 1.64 1.468 1.64 2.575 0 .904-.736 1.639-1.64 1.639zm7.497-.936c-2.394 0-3.983 2.958-3.983 4.915a3.986 3.986 0 003.983 3.98 3.985 3.985 0 003.984-3.98c0-1.957-1.589-4.915-3.984-4.915zm0 6.553c-.904 0-1.64-.735-1.64-1.638 0-1.107.935-2.575 1.64-2.575.706 0 1.64 1.468 1.64 2.575a1.64 1.64 0 01-1.64 1.638zm-24.366-6.553c-2.395 0-3.984 2.958-3.984 4.915a3.986 3.986 0 003.984 3.98 3.985 3.985 0 003.983-3.98c0-1.957-1.589-4.915-3.983-4.915zm0 6.553a1.64 1.64 0 01-1.64-1.638c0-1.107.934-2.575 1.64-2.575.705 0 1.64 1.468 1.64 2.575 0 .903-.736 1.638-1.64 1.638z" fill="#A07B50"></path>
      <path d="M34.91 38.699h-1.327v-1.327a1.17 1.17 0 00-2.343 0V38.7h-1.328a1.17 1.17 0 100 2.34h1.328v1.327a1.17 1.17 0 002.343 0V41.04h1.327a1.17 1.17 0 100-2.34z" fill="#A07B50"></path>
      <path d="M46.502 1.715A35.638 35.638 0 0035.535 0C26.043 0 17.12 3.693 10.408 10.398S0 26.018 0 35.5c0 9.482 3.696 18.397 10.408 25.102C17.12 67.307 26.043 71 35.535 71a1.17 1.17 0 100-2.34c-8.866 0-17.201-3.45-23.47-9.713-6.27-6.263-9.722-14.59-9.722-23.447s3.453-17.184 9.722-23.447C18.334 5.79 26.669 2.34 35.535 2.34c3.508 0 6.955.538 10.247 1.601a1.183 1.183 0 001.475-.753 1.181 1.181 0 00-.755-1.474z" fill="#A07B50"></path>
      <path d="M79.71 32.084l-4.114-4.697a1.184 1.184 0 00-1.653-.11l-3.277 2.864a35.492 35.492 0 00-10.004-19.744 35.635 35.635 0 00-8.626-6.357 1.183 1.183 0 00-1.582.492 1.181 1.181 0 00.492 1.58 33.303 33.303 0 018.06 5.94c5.596 5.592 8.914 12.692 9.593 20.532.08.935 1.23 1.4 1.938.78l4.067-3.555 2.571 2.936-9.115 7.968a1.973 1.973 0 01-2.571 0l-9.116-7.968 2.572-2.936 3.739 3.268c.79.69 2.057.023 1.934-1.018C62.886 17.341 50.381 6.242 35.535 6.242 19.386 6.242 6.248 19.367 6.248 35.5s13.138 29.258 29.287 29.258a1.17 1.17 0 100-2.34c-14.857 0-26.944-12.076-26.944-26.918 0-14.843 12.087-26.918 26.944-26.918 12.555 0 23.289 8.628 26.18 20.538l-2.109-1.843a1.184 1.184 0 00-1.653.11l-4.114 4.698a1.17 1.17 0 00.11 1.651l9.997 8.738c1.6 1.398 4.058 1.398 5.657 0l9.997-8.738a1.17 1.17 0 00.11-1.651z" fill="#A07B50"></path>
      <path d="M54.904 66.787h-8.696c3.873-2.88 9.867-8.236 9.867-13.81 0-4.087-3.328-7.412-7.42-7.412-4.09 0-7.419 3.325-7.419 7.412a1.17 1.17 0 002.343 0 5.08 5.08 0 015.077-5.072 5.08 5.08 0 015.076 5.072c0 6.739-11.808 13.905-11.927 13.976-.46.276-.676.847-.514 1.358.153.48.612.816 1.117.816h12.495a1.17 1.17 0 100-2.34zm18.743-4.994H71.07V46.735c0-.48-.304-.922-.753-1.093a1.183 1.183 0 00-1.347.38L56.474 62.25c-.581.755-.023 1.884.929 1.884h11.324v3.823a1.17 1.17 0 002.343 0v-3.823h2.577a1.17 1.17 0 100-2.34zm-4.92 0h-8.945l8.945-11.617v11.617z" fill="#A07B50"></path>
      <path d="M32.411 31.209c-5.297 0-9.606 4.305-9.606 9.596 0 4.837 3.591 7.725 9.606 7.725s9.606-2.888 9.606-7.725c0-5.291-4.309-9.596-9.606-9.596zm0 14.98c-2.712 0-7.263-.7-7.263-5.384 0-4.001 3.258-7.256 7.263-7.256s7.263 3.255 7.263 7.256c0 4.684-4.55 5.384-7.263 5.384zm-4.686-24.343c-2.394 0-3.983 2.959-3.983 4.916a3.986 3.986 0 003.983 3.979 3.986 3.986 0 003.983-3.98c0-1.956-1.588-4.915-3.983-4.915zm0 6.554c-.904 0-1.64-.735-1.64-1.639 0-1.107.935-2.575 1.64-2.575.705 0 1.64 1.468 1.64 2.575a1.64 1.64 0 01-1.64 1.639zm9.372-6.554c-2.395 0-3.983 2.959-3.983 4.916a3.986 3.986 0 003.983 3.979 3.986 3.986 0 003.983-3.98c0-1.956-1.588-4.915-3.983-4.915zm0 6.554c-.904 0-1.64-.735-1.64-1.639 0-1.107.935-2.575 1.64-2.575.705 0 1.64 1.468 1.64 2.575 0 .904-.736 1.639-1.64 1.639zm7.497-.936c-2.394 0-3.983 2.958-3.983 4.915a3.986 3.986 0 003.983 3.98 3.985 3.985 0 003.984-3.98c0-1.957-1.589-4.915-3.984-4.915zm0 6.553c-.904 0-1.64-.735-1.64-1.638 0-1.107.935-2.575 1.64-2.575.706 0 1.64 1.468 1.64 2.575a1.64 1.64 0 01-1.64 1.638zm-24.366-6.553c-2.395 0-3.984 2.958-3.984 4.915a3.986 3.986 0 003.984 3.98 3.985 3.985 0 003.983-3.98c0-1.957-1.589-4.915-3.983-4.915zm0 6.553a1.64 1.64 0 01-1.64-1.638c0-1.107.934-2.575 1.64-2.575.705 0 1.64 1.468 1.64 2.575 0 .903-.736 1.638-1.64 1.638z" stroke="#1F1C1D" mask="url(#a)"></path>
      <path d="M34.91 38.699h-1.327v-1.327a1.17 1.17 0 00-2.343 0V38.7h-1.328a1.17 1.17 0 100 2.34h1.328v1.327a1.17 1.17 0 002.343 0V41.04h1.327a1.17 1.17 0 100-2.34z" stroke="#1F1C1D" mask="url(#a)"></path>
      <path d="M46.502 1.715A35.638 35.638 0 0035.535 0C26.043 0 17.12 3.693 10.408 10.398S0 26.018 0 35.5c0 9.482 3.696 18.397 10.408 25.102C17.12 67.307 26.043 71 35.535 71a1.17 1.17 0 100-2.34c-8.866 0-17.201-3.45-23.47-9.713-6.27-6.263-9.722-14.59-9.722-23.447s3.453-17.184 9.722-23.447C18.334 5.79 26.669 2.34 35.535 2.34c3.508 0 6.955.538 10.247 1.601a1.183 1.183 0 001.475-.753 1.181 1.181 0 00-.755-1.474z" stroke="#1F1C1D" mask="url(#a)"></path>
      <path d="M79.71 32.084l-4.114-4.697a1.184 1.184 0 00-1.653-.11l-3.277 2.864a35.492 35.492 0 00-10.004-19.744 35.635 35.635 0 00-8.626-6.357 1.183 1.183 0 00-1.582.492 1.181 1.181 0 00.492 1.58 33.303 33.303 0 018.06 5.94c5.596 5.592 8.914 12.692 9.593 20.532.08.935 1.23 1.4 1.938.78l4.067-3.555 2.571 2.936-9.115 7.968a1.973 1.973 0 01-2.571 0l-9.116-7.968 2.572-2.936 3.739 3.268c.79.69 2.057.023 1.934-1.018C62.886 17.341 50.381 6.242 35.535 6.242 19.386 6.242 6.248 19.367 6.248 35.5s13.138 29.258 29.287 29.258a1.17 1.17 0 100-2.34c-14.857 0-26.944-12.076-26.944-26.918 0-14.843 12.087-26.918 26.944-26.918 12.555 0 23.289 8.628 26.18 20.538l-2.109-1.843a1.184 1.184 0 00-1.653.11l-4.114 4.698a1.17 1.17 0 00.11 1.651l9.997 8.738c1.6 1.398 4.058 1.398 5.657 0l9.997-8.738a1.17 1.17 0 00.11-1.651z" stroke="#1F1C1D" mask="url(#a)"></path>
      <path d="M54.904 66.787h-8.696c3.873-2.88 9.867-8.236 9.867-13.81 0-4.087-3.328-7.412-7.42-7.412-4.09 0-7.419 3.325-7.419 7.412a1.17 1.17 0 002.343 0 5.08 5.08 0 015.077-5.072 5.08 5.08 0 015.076 5.072c0 6.739-11.808 13.905-11.927 13.976-.46.276-.676.847-.514 1.358.153.48.612.816 1.117.816h12.495a1.17 1.17 0 100-2.34zm18.743-4.994H71.07V46.735c0-.48-.304-.922-.753-1.093a1.183 1.183 0 00-1.347.38L56.474 62.25c-.581.755-.023 1.884.929 1.884h11.324v3.823a1.17 1.17 0 002.343 0v-3.823h2.577a1.17 1.17 0 100-2.34zm-4.92 0h-8.945l8.945-11.617v11.617z" stroke="#1F1C1D" mask="url(#a)"></path>
    </g>
  </svg>
  <svg viewBox="0 0 57 88">
    <g id="features-3" class="img" fill="none">
      <mask fill="#fff">
        <path d="M56.89 26.944l-5.335-12.15V1.293c0-.943-1.013-1.578-1.847-1.155l-4.874 2.466L39.96.137a1.262 1.262 0 00-1.141 0l-4.874 2.466L29.07.137a1.262 1.262 0 00-1.142 0l-4.874 2.466L18.181.137a1.261 1.261 0 00-1.141 0l-4.874 2.466L7.292.137C6.457-.286 5.445.35 5.445 1.292v13.502L.11 26.944c-.072.164-.11.345-.11.524v59.24C0 87.422.571 88 1.276 88h54.448c.705 0 1.276-.578 1.276-1.292v-59.24c0-.18-.037-.359-.11-.524zM7.997 3.38l3.598 1.821c.36.182.782.182 1.141 0l4.874-2.466 4.874 2.466c.36.182.783.182 1.142 0L28.5 2.736l4.874 2.466c.36.182.782.182 1.141 0l4.874-2.466 4.874 2.466c.36.182.783.182 1.142 0l3.598-1.82v10.395H7.997V3.381zM2.552 65.957h28.223l5.21 4.22-5.21 4.218H2.552v-8.438zM35.306 28.76h8.252v56.657H2.552v-8.439h28.67c.29 0 .571-.1.798-.282l6.805-5.511c.629-.51.629-1.508 0-2.017l-6.805-5.511a1.268 1.268 0 00-.798-.283H2.552V28.759h26.799c.704 0 1.276-.578 1.276-1.291 0-.714-.572-1.292-1.276-1.292H3.24l4.31-9.816h40.766l-4.31 9.816h-8.7c-.705 0-1.276.578-1.276 1.292 0 .713.571 1.291 1.276 1.291zm19.142 56.657H46.11V27.742l4.169-9.493 4.169 9.493v57.675z"></path>
        <path d="M23.055 41.33c-5.77 0-10.464 4.752-10.464 10.592 0 5.337 3.912 8.524 10.464 8.524 6.553 0 10.464-3.187 10.464-8.524 0-5.84-4.694-10.591-10.464-10.591zm0 16.533c-2.955 0-7.912-.772-7.912-5.941 0-4.416 3.55-8.008 7.912-8.008 4.363 0 7.912 3.592 7.912 8.008 0 5.17-4.957 5.941-7.912 5.941zM17.95 30.998c-2.608 0-4.338 3.265-4.338 5.425 0 2.421 1.946 4.391 4.339 4.391 2.392 0 4.338-1.97 4.338-4.391 0-2.16-1.73-5.425-4.338-5.425zm0 7.233a1.8 1.8 0 01-1.786-1.808c0-1.222 1.019-2.842 1.787-2.842s1.786 1.62 1.786 2.842a1.8 1.8 0 01-1.786 1.808zm10.21-7.233c-2.609 0-4.34 3.265-4.34 5.425 0 2.421 1.947 4.391 4.34 4.391 2.392 0 4.338-1.97 4.338-4.391 0-2.16-1.73-5.425-4.338-5.425zm0 7.233a1.8 1.8 0 01-1.787-1.808c0-1.222 1.019-2.842 1.787-2.842s1.786 1.62 1.786 2.842a1.8 1.8 0 01-1.787 1.808zm8.167-1.033c-2.608 0-4.34 3.265-4.34 5.424 0 2.422 1.947 4.392 4.34 4.392 2.392 0 4.339-1.97 4.339-4.392 0-2.16-1.731-5.424-4.34-5.424zm0 7.233a1.8 1.8 0 01-1.787-1.809c0-1.221 1.019-2.841 1.787-2.841s1.786 1.62 1.786 2.841a1.8 1.8 0 01-1.786 1.809zM9.783 37.198c-2.608 0-4.338 3.265-4.338 5.424 0 2.422 1.946 4.392 4.338 4.392 2.393 0 4.34-1.97 4.34-4.392 0-2.16-1.731-5.424-4.34-5.424zm0 7.233a1.8 1.8 0 01-1.786-1.809c0-1.221 1.018-2.841 1.786-2.841.769 0 1.787 1.62 1.787 2.841a1.8 1.8 0 01-1.787 1.809zm2.383 35.475H6.72c-.705 0-1.276.578-1.276 1.292 0 .713.571 1.291 1.276 1.291h5.445c.704 0 1.276-.578 1.276-1.291 0-.714-.572-1.292-1.276-1.292zm17.695 0h-12.25c-.705 0-1.277.578-1.277 1.292 0 .713.572 1.291 1.276 1.291h12.251c.705 0 1.276-.578 1.276-1.291 0-.714-.571-1.292-1.276-1.292zM16.25 68.885H6.72c-.704 0-1.275.578-1.275 1.291 0 .714.571 1.292 1.276 1.292h9.528c.705 0 1.276-.578 1.276-1.292 0-.713-.57-1.291-1.276-1.291zm12.25 0h-6.806c-.705 0-1.276.578-1.276 1.291 0 .714.571 1.292 1.276 1.292H28.5c.705 0 1.276-.578 1.276-1.292 0-.713-.571-1.291-1.276-1.291z"></path>
      </mask>
      <path d="M56.89 26.944l-5.335-12.15V1.293c0-.943-1.013-1.578-1.847-1.155l-4.874 2.466L39.96.137a1.262 1.262 0 00-1.141 0l-4.874 2.466L29.07.137a1.262 1.262 0 00-1.142 0l-4.874 2.466L18.181.137a1.261 1.261 0 00-1.141 0l-4.874 2.466L7.292.137C6.457-.286 5.445.35 5.445 1.292v13.502L.11 26.944c-.072.164-.11.345-.11.524v59.24C0 87.422.571 88 1.276 88h54.448c.705 0 1.276-.578 1.276-1.292v-59.24c0-.18-.037-.359-.11-.524zM7.997 3.38l3.598 1.821c.36.182.782.182 1.141 0l4.874-2.466 4.874 2.466c.36.182.783.182 1.142 0L28.5 2.736l4.874 2.466c.36.182.782.182 1.141 0l4.874-2.466 4.874 2.466c.36.182.783.182 1.142 0l3.598-1.82v10.395H7.997V3.381zM2.552 65.957h28.223l5.21 4.22-5.21 4.218H2.552v-8.438zM35.306 28.76h8.252v56.657H2.552v-8.439h28.67c.29 0 .571-.1.798-.282l6.805-5.511c.629-.51.629-1.508 0-2.017l-6.805-5.511a1.268 1.268 0 00-.798-.283H2.552V28.759h26.799c.704 0 1.276-.578 1.276-1.291 0-.714-.572-1.292-1.276-1.292H3.24l4.31-9.816h40.766l-4.31 9.816h-8.7c-.705 0-1.276.578-1.276 1.292 0 .713.571 1.291 1.276 1.291zm19.142 56.657H46.11V27.742l4.169-9.493 4.169 9.493v57.675z" fill="#A07B50"></path>
      <path d="M23.055 41.33c-5.77 0-10.464 4.752-10.464 10.592 0 5.337 3.912 8.524 10.464 8.524 6.553 0 10.464-3.187 10.464-8.524 0-5.84-4.694-10.591-10.464-10.591zm0 16.533c-2.955 0-7.912-.772-7.912-5.941 0-4.416 3.55-8.008 7.912-8.008 4.363 0 7.912 3.592 7.912 8.008 0 5.17-4.957 5.941-7.912 5.941zM17.95 30.998c-2.608 0-4.338 3.265-4.338 5.425 0 2.421 1.946 4.391 4.339 4.391 2.392 0 4.338-1.97 4.338-4.391 0-2.16-1.73-5.425-4.338-5.425zm0 7.233a1.8 1.8 0 01-1.786-1.808c0-1.222 1.019-2.842 1.787-2.842s1.786 1.62 1.786 2.842a1.8 1.8 0 01-1.786 1.808zm10.21-7.233c-2.609 0-4.34 3.265-4.34 5.425 0 2.421 1.947 4.391 4.34 4.391 2.392 0 4.338-1.97 4.338-4.391 0-2.16-1.73-5.425-4.338-5.425zm0 7.233a1.8 1.8 0 01-1.787-1.808c0-1.222 1.019-2.842 1.787-2.842s1.786 1.62 1.786 2.842a1.8 1.8 0 01-1.787 1.808zm8.167-1.033c-2.608 0-4.34 3.265-4.34 5.424 0 2.422 1.947 4.392 4.34 4.392 2.392 0 4.339-1.97 4.339-4.392 0-2.16-1.731-5.424-4.34-5.424zm0 7.233a1.8 1.8 0 01-1.787-1.809c0-1.221 1.019-2.841 1.787-2.841s1.786 1.62 1.786 2.841a1.8 1.8 0 01-1.786 1.809zM9.783 37.198c-2.608 0-4.338 3.265-4.338 5.424 0 2.422 1.946 4.392 4.338 4.392 2.393 0 4.34-1.97 4.34-4.392 0-2.16-1.731-5.424-4.34-5.424zm0 7.233a1.8 1.8 0 01-1.786-1.809c0-1.221 1.018-2.841 1.786-2.841.769 0 1.787 1.62 1.787 2.841a1.8 1.8 0 01-1.787 1.809zm2.383 35.475H6.72c-.705 0-1.276.578-1.276 1.292 0 .713.571 1.291 1.276 1.291h5.445c.704 0 1.276-.578 1.276-1.291 0-.714-.572-1.292-1.276-1.292zm17.695 0h-12.25c-.705 0-1.277.578-1.277 1.292 0 .713.572 1.291 1.276 1.291h12.251c.705 0 1.276-.578 1.276-1.291 0-.714-.571-1.292-1.276-1.292zM16.25 68.885H6.72c-.704 0-1.275.578-1.275 1.291 0 .714.571 1.292 1.276 1.292h9.528c.705 0 1.276-.578 1.276-1.292 0-.713-.57-1.291-1.276-1.291zm12.25 0h-6.806c-.705 0-1.276.578-1.276 1.291 0 .714.571 1.292 1.276 1.292H28.5c.705 0 1.276-.578 1.276-1.292 0-.713-.571-1.291-1.276-1.291z" fill="#A07B50"></path>
      <path d="M56.89 26.944l-5.335-12.15V1.293c0-.943-1.013-1.578-1.847-1.155l-4.874 2.466L39.96.137a1.262 1.262 0 00-1.141 0l-4.874 2.466L29.07.137a1.262 1.262 0 00-1.142 0l-4.874 2.466L18.181.137a1.261 1.261 0 00-1.141 0l-4.874 2.466L7.292.137C6.457-.286 5.445.35 5.445 1.292v13.502L.11 26.944c-.072.164-.11.345-.11.524v59.24C0 87.422.571 88 1.276 88h54.448c.705 0 1.276-.578 1.276-1.292v-59.24c0-.18-.037-.359-.11-.524zM7.997 3.38l3.598 1.821c.36.182.782.182 1.141 0l4.874-2.466 4.874 2.466c.36.182.783.182 1.142 0L28.5 2.736l4.874 2.466c.36.182.782.182 1.141 0l4.874-2.466 4.874 2.466c.36.182.783.182 1.142 0l3.598-1.82v10.395H7.997V3.381zM2.552 65.957h28.223l5.21 4.22-5.21 4.218H2.552v-8.438zM35.306 28.76h8.252v56.657H2.552v-8.439h28.67c.29 0 .571-.1.798-.282l6.805-5.511c.629-.51.629-1.508 0-2.017l-6.805-5.511a1.268 1.268 0 00-.798-.283H2.552V28.759h26.799c.704 0 1.276-.578 1.276-1.291 0-.714-.572-1.292-1.276-1.292H3.24l4.31-9.816h40.766l-4.31 9.816h-8.7c-.705 0-1.276.578-1.276 1.292 0 .713.571 1.291 1.276 1.291zm19.142 56.657H46.11V27.742l4.169-9.493 4.169 9.493v57.675z" stroke="#1F1C1D" mask="url(#a)"></path>
      <path d="M23.055 41.33c-5.77 0-10.464 4.752-10.464 10.592 0 5.337 3.912 8.524 10.464 8.524 6.553 0 10.464-3.187 10.464-8.524 0-5.84-4.694-10.591-10.464-10.591zm0 16.533c-2.955 0-7.912-.772-7.912-5.941 0-4.416 3.55-8.008 7.912-8.008 4.363 0 7.912 3.592 7.912 8.008 0 5.17-4.957 5.941-7.912 5.941zM17.95 30.998c-2.608 0-4.338 3.265-4.338 5.425 0 2.421 1.946 4.391 4.339 4.391 2.392 0 4.338-1.97 4.338-4.391 0-2.16-1.73-5.425-4.338-5.425zm0 7.233a1.8 1.8 0 01-1.786-1.808c0-1.222 1.019-2.842 1.787-2.842s1.786 1.62 1.786 2.842a1.8 1.8 0 01-1.786 1.808zm10.21-7.233c-2.609 0-4.34 3.265-4.34 5.425 0 2.421 1.947 4.391 4.34 4.391 2.392 0 4.338-1.97 4.338-4.391 0-2.16-1.73-5.425-4.338-5.425zm0 7.233a1.8 1.8 0 01-1.787-1.808c0-1.222 1.019-2.842 1.787-2.842s1.786 1.62 1.786 2.842a1.8 1.8 0 01-1.787 1.808zm8.167-1.033c-2.608 0-4.34 3.265-4.34 5.424 0 2.422 1.947 4.392 4.34 4.392 2.392 0 4.339-1.97 4.339-4.392 0-2.16-1.731-5.424-4.34-5.424zm0 7.233a1.8 1.8 0 01-1.787-1.809c0-1.221 1.019-2.841 1.787-2.841s1.786 1.62 1.786 2.841a1.8 1.8 0 01-1.786 1.809zM9.783 37.198c-2.608 0-4.338 3.265-4.338 5.424 0 2.422 1.946 4.392 4.338 4.392 2.393 0 4.34-1.97 4.34-4.392 0-2.16-1.731-5.424-4.34-5.424zm0 7.233a1.8 1.8 0 01-1.786-1.809c0-1.221 1.018-2.841 1.786-2.841.769 0 1.787 1.62 1.787 2.841a1.8 1.8 0 01-1.787 1.809zm2.383 35.475H6.72c-.705 0-1.276.578-1.276 1.292 0 .713.571 1.291 1.276 1.291h5.445c.704 0 1.276-.578 1.276-1.291 0-.714-.572-1.292-1.276-1.292zm17.695 0h-12.25c-.705 0-1.277.578-1.277 1.292 0 .713.572 1.291 1.276 1.291h12.251c.705 0 1.276-.578 1.276-1.291 0-.714-.571-1.292-1.276-1.292zM16.25 68.885H6.72c-.704 0-1.275.578-1.275 1.291 0 .714.571 1.292 1.276 1.292h9.528c.705 0 1.276-.578 1.276-1.292 0-.713-.57-1.291-1.276-1.291zm12.25 0h-6.806c-.705 0-1.276.578-1.276 1.291 0 .714.571 1.292 1.276 1.292H28.5c.705 0 1.276-.578 1.276-1.292 0-.713-.571-1.291-1.276-1.291z" stroke="#1F1C1D" mask="url(#a)"></path>
    </g>
  </svg>
  <svg viewBox="0 0 80 88">
    <g id="features-1-light" class="img" fill="none">
      <mask fill="#fff">
        <path d="M10.878 19.288C4.88 19.288 0 24.193 0 30.223c0 5.593 4.199 10.215 9.593 10.857v8.43c0 .714.575 1.292 1.285 1.292s1.285-.578 1.285-1.291V41.08c5.394-.642 9.593-5.264 9.593-10.857 0-6.03-4.88-10.935-10.878-10.935zm0 19.287c-4.581 0-8.308-3.747-8.308-8.352s3.727-8.352 8.308-8.352c4.581 0 8.308 3.747 8.308 8.352s-3.727 8.352-8.308 8.352z"></path>
        <path d="M10.878 24.799c-2.976 0-5.396 2.433-5.396 5.424 0 2.991 2.42 5.425 5.396 5.425 2.975 0 5.396-2.434 5.396-5.425 0-2.99-2.42-5.424-5.396-5.424zm0 8.266a2.837 2.837 0 01-2.827-2.842 2.837 2.837 0 012.827-2.841 2.837 2.837 0 012.826 2.841 2.837 2.837 0 01-2.826 2.842zm67.837-2.067h-.771V8.868c0-3.75-3.036-6.801-6.767-6.801h-2.826v-.775A1.289 1.289 0 0067.066 0H63.64c-1.842 0-3.34 1.506-3.34 3.358s1.498 3.358 3.34 3.358h3.426c.71 0 1.285-.578 1.285-1.291V4.65h2.826c2.315 0 4.197 1.892 4.197 4.219v22.129h-.77c-.71 0-1.285.578-1.285 1.291v2.067c0 5.745-4.65 10.419-10.364 10.419H46.509c-5.714 0-10.364-4.674-10.364-10.42V32.29c0-.713-.575-1.291-1.284-1.291h-.771V8.868c0-2.325 1.883-4.218 4.197-4.218h2.826v.775c0 .713.575 1.291 1.285 1.291h3.426c1.842 0 3.34-1.506 3.34-3.358S47.667 0 45.825 0h-3.426c-.71 0-1.285.578-1.285 1.292v.775h-2.826c-3.731 0-6.767 3.051-6.767 6.802v22.129h-.77c-.71 0-1.286.578-1.286 1.292v2.066c0 9.448 7.647 17.135 17.045 17.135h4.883v6.286c0 .713.575 1.291 1.284 1.291h.771v6.975c0 10.683-8.645 19.374-19.272 19.374h-2.74c-10.627 0-19.272-8.691-19.272-19.374V55.768c0-.714-.575-1.292-1.285-1.292s-1.285.578-1.285 1.292v10.275C9.593 78.15 19.391 88 31.435 88h2.74c12.044 0 21.842-9.85 21.842-21.957v-6.975h.771c.71 0 1.285-.578 1.285-1.291V51.49h4.882C72.353 51.491 80 43.804 80 34.356V32.29c0-.714-.576-1.292-1.285-1.292zM65.78 4.133h-2.14a.774.774 0 01-.77-.775c0-.427.345-.775.77-.775h2.141v1.55zm-22.098-1.55h2.141c.425 0 .771.348.771.775a.774.774 0 01-.77.775h-2.142v-1.55zM77.43 34.356c0 8.024-6.493 14.552-14.475 14.552h-6.167c-.71 0-1.285.578-1.285 1.291v6.286h-1.542V50.2c0-.714-.575-1.292-1.285-1.292H46.51c-7.982 0-14.476-6.528-14.476-14.552v-.775h1.542v.775c0 7.17 5.802 13.002 12.934 13.002h16.445c7.132 0 12.934-5.832 12.934-13.002v-.775h1.541v.775z"></path>
        <path d="M54.732 20.665c-5.809 0-10.535 4.752-10.535 10.591 0 5.338 3.938 8.525 10.535 8.525 6.597 0 10.535-3.187 10.535-8.525 0-5.84-4.726-10.59-10.535-10.59zm0 16.533c-2.975 0-7.966-.772-7.966-5.942 0-4.415 3.574-8.008 7.966-8.008s7.966 3.593 7.966 8.008c0 5.17-4.991 5.942-7.966 5.942zm-5.139-26.865c-2.626 0-4.368 3.265-4.368 5.424 0 2.422 1.96 4.392 4.368 4.392 2.409 0 4.368-1.97 4.368-4.392 0-2.16-1.742-5.424-4.368-5.424zm0 7.233a1.806 1.806 0 01-1.799-1.809c0-1.221 1.026-2.841 1.799-2.841.773 0 1.799 1.62 1.799 2.841 0 .997-.807 1.809-1.799 1.809zm10.278-7.233c-2.626 0-4.368 3.265-4.368 5.424 0 2.422 1.96 4.392 4.368 4.392 2.409 0 4.369-1.97 4.369-4.392 0-2.16-1.743-5.424-4.369-5.424zm0 7.233a1.806 1.806 0 01-1.799-1.809c0-1.221 1.026-2.841 1.8-2.841.773 0 1.798 1.62 1.798 2.841 0 .997-.807 1.809-1.799 1.809zm8.223-1.034c-2.626 0-4.368 3.265-4.368 5.425 0 2.422 1.96 4.391 4.368 4.391 2.409 0 4.368-1.97 4.368-4.391 0-2.16-1.742-5.425-4.368-5.425zm0 7.233a1.806 1.806 0 01-1.799-1.808c0-1.222 1.026-2.842 1.799-2.842.773 0 1.799 1.62 1.799 2.842 0 .997-.807 1.808-1.8 1.808zM41.37 16.532c-2.626 0-4.368 3.265-4.368 5.425 0 2.422 1.96 4.391 4.368 4.391 2.41 0 4.369-1.97 4.369-4.391 0-2.16-1.743-5.425-4.369-5.425zm0 7.233a1.806 1.806 0 01-1.798-1.808c0-1.222 1.025-2.842 1.798-2.842.774 0 1.8 1.62 1.8 2.842a1.807 1.807 0 01-1.8 1.808z"></path>
      </mask>
      <path d="M10.878 19.288C4.88 19.288 0 24.193 0 30.223c0 5.593 4.199 10.215 9.593 10.857v8.43c0 .714.575 1.292 1.285 1.292s1.285-.578 1.285-1.291V41.08c5.394-.642 9.593-5.264 9.593-10.857 0-6.03-4.88-10.935-10.878-10.935zm0 19.287c-4.581 0-8.308-3.747-8.308-8.352s3.727-8.352 8.308-8.352c4.581 0 8.308 3.747 8.308 8.352s-3.727 8.352-8.308 8.352z" fill="#fff"></path>
      <path d="M10.878 24.799c-2.976 0-5.396 2.433-5.396 5.424 0 2.991 2.42 5.425 5.396 5.425 2.975 0 5.396-2.434 5.396-5.425 0-2.99-2.42-5.424-5.396-5.424zm0 8.266a2.837 2.837 0 01-2.827-2.842 2.837 2.837 0 012.827-2.841 2.837 2.837 0 012.826 2.841 2.837 2.837 0 01-2.826 2.842zm67.837-2.067h-.771V8.868c0-3.75-3.036-6.801-6.767-6.801h-2.826v-.775A1.289 1.289 0 0067.066 0H63.64c-1.842 0-3.34 1.506-3.34 3.358s1.498 3.358 3.34 3.358h3.426c.71 0 1.285-.578 1.285-1.291V4.65h2.826c2.315 0 4.197 1.892 4.197 4.219v22.129h-.77c-.71 0-1.285.578-1.285 1.291v2.067c0 5.745-4.65 10.419-10.364 10.419H46.509c-5.714 0-10.364-4.674-10.364-10.42V32.29c0-.713-.575-1.291-1.284-1.291h-.771V8.868c0-2.325 1.883-4.218 4.197-4.218h2.826v.775c0 .713.575 1.291 1.285 1.291h3.426c1.842 0 3.34-1.506 3.34-3.358S47.667 0 45.825 0h-3.426c-.71 0-1.285.578-1.285 1.292v.775h-2.826c-3.731 0-6.767 3.051-6.767 6.802v22.129h-.77c-.71 0-1.286.578-1.286 1.292v2.066c0 9.448 7.647 17.135 17.045 17.135h4.883v6.286c0 .713.575 1.291 1.284 1.291h.771v6.975c0 10.683-8.645 19.374-19.272 19.374h-2.74c-10.627 0-19.272-8.691-19.272-19.374V55.768c0-.714-.575-1.292-1.285-1.292s-1.285.578-1.285 1.292v10.275C9.593 78.15 19.391 88 31.435 88h2.74c12.044 0 21.842-9.85 21.842-21.957v-6.975h.771c.71 0 1.285-.578 1.285-1.291V51.49h4.882C72.353 51.491 80 43.804 80 34.356V32.29c0-.714-.576-1.292-1.285-1.292zM65.78 4.133h-2.14a.774.774 0 01-.77-.775c0-.427.345-.775.77-.775h2.141v1.55zm-22.098-1.55h2.141c.425 0 .771.348.771.775a.774.774 0 01-.77.775h-2.142v-1.55zM77.43 34.356c0 8.024-6.493 14.552-14.475 14.552h-6.167c-.71 0-1.285.578-1.285 1.291v6.286h-1.542V50.2c0-.714-.575-1.292-1.285-1.292H46.51c-7.982 0-14.476-6.528-14.476-14.552v-.775h1.542v.775c0 7.17 5.802 13.002 12.934 13.002h16.445c7.132 0 12.934-5.832 12.934-13.002v-.775h1.541v.775z" fill="#fff"></path>
      <path d="M54.732 20.665c-5.809 0-10.535 4.752-10.535 10.591 0 5.338 3.938 8.525 10.535 8.525 6.597 0 10.535-3.187 10.535-8.525 0-5.84-4.726-10.59-10.535-10.59zm0 16.533c-2.975 0-7.966-.772-7.966-5.942 0-4.415 3.574-8.008 7.966-8.008s7.966 3.593 7.966 8.008c0 5.17-4.991 5.942-7.966 5.942zm-5.139-26.865c-2.626 0-4.368 3.265-4.368 5.424 0 2.422 1.96 4.392 4.368 4.392 2.409 0 4.368-1.97 4.368-4.392 0-2.16-1.742-5.424-4.368-5.424zm0 7.233a1.806 1.806 0 01-1.799-1.809c0-1.221 1.026-2.841 1.799-2.841.773 0 1.799 1.62 1.799 2.841 0 .997-.807 1.809-1.799 1.809zm10.278-7.233c-2.626 0-4.368 3.265-4.368 5.424 0 2.422 1.96 4.392 4.368 4.392 2.409 0 4.369-1.97 4.369-4.392 0-2.16-1.743-5.424-4.369-5.424zm0 7.233a1.806 1.806 0 01-1.799-1.809c0-1.221 1.026-2.841 1.8-2.841.773 0 1.798 1.62 1.798 2.841 0 .997-.807 1.809-1.799 1.809zm8.223-1.034c-2.626 0-4.368 3.265-4.368 5.425 0 2.422 1.96 4.391 4.368 4.391 2.409 0 4.368-1.97 4.368-4.391 0-2.16-1.742-5.425-4.368-5.425zm0 7.233a1.806 1.806 0 01-1.799-1.808c0-1.222 1.026-2.842 1.799-2.842.773 0 1.799 1.62 1.799 2.842 0 .997-.807 1.808-1.8 1.808zM41.37 16.532c-2.626 0-4.368 3.265-4.368 5.425 0 2.422 1.96 4.391 4.368 4.391 2.41 0 4.369-1.97 4.369-4.391 0-2.16-1.743-5.425-4.369-5.425zm0 7.233a1.806 1.806 0 01-1.798-1.808c0-1.222 1.025-2.842 1.798-2.842.774 0 1.8 1.62 1.8 2.842a1.807 1.807 0 01-1.8 1.808z" fill="#fff"></path>
      <path d="M10.878 19.288C4.88 19.288 0 24.193 0 30.223c0 5.593 4.199 10.215 9.593 10.857v8.43c0 .714.575 1.292 1.285 1.292s1.285-.578 1.285-1.291V41.08c5.394-.642 9.593-5.264 9.593-10.857 0-6.03-4.88-10.935-10.878-10.935zm0 19.287c-4.581 0-8.308-3.747-8.308-8.352s3.727-8.352 8.308-8.352c4.581 0 8.308 3.747 8.308 8.352s-3.727 8.352-8.308 8.352z" stroke="#A07B50" mask="url(#a)"></path>
      <path d="M10.878 24.799c-2.976 0-5.396 2.433-5.396 5.424 0 2.991 2.42 5.425 5.396 5.425 2.975 0 5.396-2.434 5.396-5.425 0-2.99-2.42-5.424-5.396-5.424zm0 8.266a2.837 2.837 0 01-2.827-2.842 2.837 2.837 0 012.827-2.841 2.837 2.837 0 012.826 2.841 2.837 2.837 0 01-2.826 2.842zm67.837-2.067h-.771V8.868c0-3.75-3.036-6.801-6.767-6.801h-2.826v-.775A1.289 1.289 0 0067.066 0H63.64c-1.842 0-3.34 1.506-3.34 3.358s1.498 3.358 3.34 3.358h3.426c.71 0 1.285-.578 1.285-1.291V4.65h2.826c2.315 0 4.197 1.892 4.197 4.219v22.129h-.77c-.71 0-1.285.578-1.285 1.291v2.067c0 5.745-4.65 10.419-10.364 10.419H46.509c-5.714 0-10.364-4.674-10.364-10.42V32.29c0-.713-.575-1.291-1.284-1.291h-.771V8.868c0-2.325 1.883-4.218 4.197-4.218h2.826v.775c0 .713.575 1.291 1.285 1.291h3.426c1.842 0 3.34-1.506 3.34-3.358S47.667 0 45.825 0h-3.426c-.71 0-1.285.578-1.285 1.292v.775h-2.826c-3.731 0-6.767 3.051-6.767 6.802v22.129h-.77c-.71 0-1.286.578-1.286 1.292v2.066c0 9.448 7.647 17.135 17.045 17.135h4.883v6.286c0 .713.575 1.291 1.284 1.291h.771v6.975c0 10.683-8.645 19.374-19.272 19.374h-2.74c-10.627 0-19.272-8.691-19.272-19.374V55.768c0-.714-.575-1.292-1.285-1.292s-1.285.578-1.285 1.292v10.275C9.593 78.15 19.391 88 31.435 88h2.74c12.044 0 21.842-9.85 21.842-21.957v-6.975h.771c.71 0 1.285-.578 1.285-1.291V51.49h4.882C72.353 51.491 80 43.804 80 34.356V32.29c0-.714-.576-1.292-1.285-1.292zM65.78 4.133h-2.14a.774.774 0 01-.77-.775c0-.427.345-.775.77-.775h2.141v1.55zm-22.098-1.55h2.141c.425 0 .771.348.771.775a.774.774 0 01-.77.775h-2.142v-1.55zM77.43 34.356c0 8.024-6.493 14.552-14.475 14.552h-6.167c-.71 0-1.285.578-1.285 1.291v6.286h-1.542V50.2c0-.714-.575-1.292-1.285-1.292H46.51c-7.982 0-14.476-6.528-14.476-14.552v-.775h1.542v.775c0 7.17 5.802 13.002 12.934 13.002h16.445c7.132 0 12.934-5.832 12.934-13.002v-.775h1.541v.775z" stroke="#A07B50" mask="url(#a)"></path>
      <path d="M54.732 20.665c-5.809 0-10.535 4.752-10.535 10.591 0 5.338 3.938 8.525 10.535 8.525 6.597 0 10.535-3.187 10.535-8.525 0-5.84-4.726-10.59-10.535-10.59zm0 16.533c-2.975 0-7.966-.772-7.966-5.942 0-4.415 3.574-8.008 7.966-8.008s7.966 3.593 7.966 8.008c0 5.17-4.991 5.942-7.966 5.942zm-5.139-26.865c-2.626 0-4.368 3.265-4.368 5.424 0 2.422 1.96 4.392 4.368 4.392 2.409 0 4.368-1.97 4.368-4.392 0-2.16-1.742-5.424-4.368-5.424zm0 7.233a1.806 1.806 0 01-1.799-1.809c0-1.221 1.026-2.841 1.799-2.841.773 0 1.799 1.62 1.799 2.841 0 .997-.807 1.809-1.799 1.809zm10.278-7.233c-2.626 0-4.368 3.265-4.368 5.424 0 2.422 1.96 4.392 4.368 4.392 2.409 0 4.369-1.97 4.369-4.392 0-2.16-1.743-5.424-4.369-5.424zm0 7.233a1.806 1.806 0 01-1.799-1.809c0-1.221 1.026-2.841 1.8-2.841.773 0 1.798 1.62 1.798 2.841 0 .997-.807 1.809-1.799 1.809zm8.223-1.034c-2.626 0-4.368 3.265-4.368 5.425 0 2.422 1.96 4.391 4.368 4.391 2.409 0 4.368-1.97 4.368-4.391 0-2.16-1.742-5.425-4.368-5.425zm0 7.233a1.806 1.806 0 01-1.799-1.808c0-1.222 1.026-2.842 1.799-2.842.773 0 1.799 1.62 1.799 2.842 0 .997-.807 1.808-1.8 1.808zM41.37 16.532c-2.626 0-4.368 3.265-4.368 5.425 0 2.422 1.96 4.391 4.368 4.391 2.41 0 4.369-1.97 4.369-4.391 0-2.16-1.743-5.425-4.369-5.425zm0 7.233a1.806 1.806 0 01-1.798-1.808c0-1.222 1.025-2.842 1.798-2.842.774 0 1.8 1.62 1.8 2.842a1.807 1.807 0 01-1.8 1.808z" stroke="#A07B50" mask="url(#a)"></path>
    </g>
  </svg>
  <svg viewBox="0 0 80 71">
    <g id="features-2-light" class="img" fill="none">
      <mask fill="#fff">
        <path d="M32.411 31.209c-5.297 0-9.606 4.305-9.606 9.596 0 4.837 3.591 7.725 9.606 7.725s9.606-2.888 9.606-7.725c0-5.291-4.309-9.596-9.606-9.596zm0 14.98c-2.712 0-7.263-.7-7.263-5.384 0-4.001 3.258-7.256 7.263-7.256s7.263 3.255 7.263 7.256c0 4.684-4.55 5.384-7.263 5.384zm-4.686-24.343c-2.394 0-3.983 2.959-3.983 4.916a3.986 3.986 0 003.983 3.979 3.986 3.986 0 003.983-3.98c0-1.956-1.588-4.915-3.983-4.915zm0 6.554c-.904 0-1.64-.735-1.64-1.639 0-1.107.935-2.575 1.64-2.575.705 0 1.64 1.468 1.64 2.575a1.64 1.64 0 01-1.64 1.639zm9.372-6.554c-2.395 0-3.983 2.959-3.983 4.916a3.986 3.986 0 003.983 3.979 3.986 3.986 0 003.983-3.98c0-1.956-1.588-4.915-3.983-4.915zm0 6.554c-.904 0-1.64-.735-1.64-1.639 0-1.107.935-2.575 1.64-2.575.705 0 1.64 1.468 1.64 2.575 0 .904-.736 1.639-1.64 1.639zm7.497-.936c-2.394 0-3.983 2.958-3.983 4.915a3.986 3.986 0 003.983 3.98 3.985 3.985 0 003.984-3.98c0-1.957-1.589-4.915-3.984-4.915zm0 6.553c-.904 0-1.64-.735-1.64-1.638 0-1.107.935-2.575 1.64-2.575.706 0 1.64 1.468 1.64 2.575a1.64 1.64 0 01-1.64 1.638zm-24.366-6.553c-2.395 0-3.984 2.958-3.984 4.915a3.986 3.986 0 003.984 3.98 3.985 3.985 0 003.983-3.98c0-1.957-1.589-4.915-3.983-4.915zm0 6.553a1.64 1.64 0 01-1.64-1.638c0-1.107.934-2.575 1.64-2.575.705 0 1.64 1.468 1.64 2.575 0 .903-.736 1.638-1.64 1.638z"></path>
        <path d="M34.91 38.699h-1.327v-1.327a1.17 1.17 0 00-2.343 0V38.7h-1.328a1.17 1.17 0 100 2.34h1.328v1.327a1.17 1.17 0 002.343 0V41.04h1.327a1.17 1.17 0 100-2.34z"></path>
        <path d="M46.502 1.715A35.638 35.638 0 0035.535 0C26.043 0 17.12 3.693 10.408 10.398S0 26.018 0 35.5c0 9.482 3.696 18.397 10.408 25.102C17.12 67.307 26.043 71 35.535 71a1.17 1.17 0 100-2.34c-8.866 0-17.201-3.45-23.47-9.713-6.27-6.263-9.722-14.59-9.722-23.447s3.453-17.184 9.722-23.447C18.334 5.79 26.669 2.34 35.535 2.34c3.508 0 6.955.538 10.247 1.601a1.183 1.183 0 001.475-.753 1.181 1.181 0 00-.755-1.474z"></path>
        <path d="M79.71 32.084l-4.114-4.697a1.184 1.184 0 00-1.653-.11l-3.277 2.864a35.492 35.492 0 00-10.004-19.744 35.635 35.635 0 00-8.626-6.357 1.183 1.183 0 00-1.582.492 1.181 1.181 0 00.492 1.58 33.303 33.303 0 018.06 5.94c5.596 5.592 8.914 12.692 9.593 20.532.08.935 1.23 1.4 1.938.78l4.067-3.555 2.571 2.936-9.115 7.968a1.973 1.973 0 01-2.571 0l-9.116-7.968 2.572-2.936 3.739 3.268c.79.69 2.057.023 1.934-1.018C62.886 17.341 50.381 6.242 35.535 6.242 19.386 6.242 6.248 19.367 6.248 35.5s13.138 29.258 29.287 29.258a1.17 1.17 0 100-2.34c-14.857 0-26.944-12.076-26.944-26.918 0-14.843 12.087-26.918 26.944-26.918 12.555 0 23.289 8.628 26.18 20.538l-2.109-1.843a1.184 1.184 0 00-1.653.11l-4.114 4.698a1.17 1.17 0 00.11 1.651l9.997 8.738c1.6 1.398 4.058 1.398 5.657 0l9.997-8.738a1.17 1.17 0 00.11-1.651z"></path>
        <path d="M54.904 66.787h-8.696c3.873-2.88 9.867-8.236 9.867-13.81 0-4.087-3.328-7.412-7.42-7.412-4.09 0-7.419 3.325-7.419 7.412a1.17 1.17 0 002.343 0 5.08 5.08 0 015.077-5.072 5.08 5.08 0 015.076 5.072c0 6.739-11.808 13.905-11.927 13.976-.46.276-.676.847-.514 1.358.153.48.612.816 1.117.816h12.495a1.17 1.17 0 100-2.34zm18.743-4.994H71.07V46.735c0-.48-.304-.922-.753-1.093a1.183 1.183 0 00-1.347.38L56.474 62.25c-.581.755-.023 1.884.929 1.884h11.324v3.823a1.17 1.17 0 002.343 0v-3.823h2.577a1.17 1.17 0 100-2.34zm-4.92 0h-8.945l8.945-11.617v11.617z"></path>
      </mask>
      <path d="M32.411 31.209c-5.297 0-9.606 4.305-9.606 9.596 0 4.837 3.591 7.725 9.606 7.725s9.606-2.888 9.606-7.725c0-5.291-4.309-9.596-9.606-9.596zm0 14.98c-2.712 0-7.263-.7-7.263-5.384 0-4.001 3.258-7.256 7.263-7.256s7.263 3.255 7.263 7.256c0 4.684-4.55 5.384-7.263 5.384zm-4.686-24.343c-2.394 0-3.983 2.959-3.983 4.916a3.986 3.986 0 003.983 3.979 3.986 3.986 0 003.983-3.98c0-1.956-1.588-4.915-3.983-4.915zm0 6.554c-.904 0-1.64-.735-1.64-1.639 0-1.107.935-2.575 1.64-2.575.705 0 1.64 1.468 1.64 2.575a1.64 1.64 0 01-1.64 1.639zm9.372-6.554c-2.395 0-3.983 2.959-3.983 4.916a3.986 3.986 0 003.983 3.979 3.986 3.986 0 003.983-3.98c0-1.956-1.588-4.915-3.983-4.915zm0 6.554c-.904 0-1.64-.735-1.64-1.639 0-1.107.935-2.575 1.64-2.575.705 0 1.64 1.468 1.64 2.575 0 .904-.736 1.639-1.64 1.639zm7.497-.936c-2.394 0-3.983 2.958-3.983 4.915a3.986 3.986 0 003.983 3.98 3.985 3.985 0 003.984-3.98c0-1.957-1.589-4.915-3.984-4.915zm0 6.553c-.904 0-1.64-.735-1.64-1.638 0-1.107.935-2.575 1.64-2.575.706 0 1.64 1.468 1.64 2.575a1.64 1.64 0 01-1.64 1.638zm-24.366-6.553c-2.395 0-3.984 2.958-3.984 4.915a3.986 3.986 0 003.984 3.98 3.985 3.985 0 003.983-3.98c0-1.957-1.589-4.915-3.983-4.915zm0 6.553a1.64 1.64 0 01-1.64-1.638c0-1.107.934-2.575 1.64-2.575.705 0 1.64 1.468 1.64 2.575 0 .903-.736 1.638-1.64 1.638z" fill="#fff"></path>
      <path d="M34.91 38.699h-1.327v-1.327a1.17 1.17 0 00-2.343 0V38.7h-1.328a1.17 1.17 0 100 2.34h1.328v1.327a1.17 1.17 0 002.343 0V41.04h1.327a1.17 1.17 0 100-2.34z" fill="#fff"></path>
      <path d="M46.502 1.715A35.638 35.638 0 0035.535 0C26.043 0 17.12 3.693 10.408 10.398S0 26.018 0 35.5c0 9.482 3.696 18.397 10.408 25.102C17.12 67.307 26.043 71 35.535 71a1.17 1.17 0 100-2.34c-8.866 0-17.201-3.45-23.47-9.713-6.27-6.263-9.722-14.59-9.722-23.447s3.453-17.184 9.722-23.447C18.334 5.79 26.669 2.34 35.535 2.34c3.508 0 6.955.538 10.247 1.601a1.183 1.183 0 001.475-.753 1.181 1.181 0 00-.755-1.474z" fill="#fff"></path>
      <path d="M79.71 32.084l-4.114-4.697a1.184 1.184 0 00-1.653-.11l-3.277 2.864a35.492 35.492 0 00-10.004-19.744 35.635 35.635 0 00-8.626-6.357 1.183 1.183 0 00-1.582.492 1.181 1.181 0 00.492 1.58 33.303 33.303 0 018.06 5.94c5.596 5.592 8.914 12.692 9.593 20.532.08.935 1.23 1.4 1.938.78l4.067-3.555 2.571 2.936-9.115 7.968a1.973 1.973 0 01-2.571 0l-9.116-7.968 2.572-2.936 3.739 3.268c.79.69 2.057.023 1.934-1.018C62.886 17.341 50.381 6.242 35.535 6.242 19.386 6.242 6.248 19.367 6.248 35.5s13.138 29.258 29.287 29.258a1.17 1.17 0 100-2.34c-14.857 0-26.944-12.076-26.944-26.918 0-14.843 12.087-26.918 26.944-26.918 12.555 0 23.289 8.628 26.18 20.538l-2.109-1.843a1.184 1.184 0 00-1.653.11l-4.114 4.698a1.17 1.17 0 00.11 1.651l9.997 8.738c1.6 1.398 4.058 1.398 5.657 0l9.997-8.738a1.17 1.17 0 00.11-1.651z" fill="#fff"></path>
      <path d="M54.904 66.787h-8.696c3.873-2.88 9.867-8.236 9.867-13.81 0-4.087-3.328-7.412-7.42-7.412-4.09 0-7.419 3.325-7.419 7.412a1.17 1.17 0 002.343 0 5.08 5.08 0 015.077-5.072 5.08 5.08 0 015.076 5.072c0 6.739-11.808 13.905-11.927 13.976-.46.276-.676.847-.514 1.358.153.48.612.816 1.117.816h12.495a1.17 1.17 0 100-2.34zm18.743-4.994H71.07V46.735c0-.48-.304-.922-.753-1.093a1.183 1.183 0 00-1.347.38L56.474 62.25c-.581.755-.023 1.884.929 1.884h11.324v3.823a1.17 1.17 0 002.343 0v-3.823h2.577a1.17 1.17 0 100-2.34zm-4.92 0h-8.945l8.945-11.617v11.617z" fill="#fff"></path>
      <path d="M32.411 31.209c-5.297 0-9.606 4.305-9.606 9.596 0 4.837 3.591 7.725 9.606 7.725s9.606-2.888 9.606-7.725c0-5.291-4.309-9.596-9.606-9.596zm0 14.98c-2.712 0-7.263-.7-7.263-5.384 0-4.001 3.258-7.256 7.263-7.256s7.263 3.255 7.263 7.256c0 4.684-4.55 5.384-7.263 5.384zm-4.686-24.343c-2.394 0-3.983 2.959-3.983 4.916a3.986 3.986 0 003.983 3.979 3.986 3.986 0 003.983-3.98c0-1.956-1.588-4.915-3.983-4.915zm0 6.554c-.904 0-1.64-.735-1.64-1.639 0-1.107.935-2.575 1.64-2.575.705 0 1.64 1.468 1.64 2.575a1.64 1.64 0 01-1.64 1.639zm9.372-6.554c-2.395 0-3.983 2.959-3.983 4.916a3.986 3.986 0 003.983 3.979 3.986 3.986 0 003.983-3.98c0-1.956-1.588-4.915-3.983-4.915zm0 6.554c-.904 0-1.64-.735-1.64-1.639 0-1.107.935-2.575 1.64-2.575.705 0 1.64 1.468 1.64 2.575 0 .904-.736 1.639-1.64 1.639zm7.497-.936c-2.394 0-3.983 2.958-3.983 4.915a3.986 3.986 0 003.983 3.98 3.985 3.985 0 003.984-3.98c0-1.957-1.589-4.915-3.984-4.915zm0 6.553c-.904 0-1.64-.735-1.64-1.638 0-1.107.935-2.575 1.64-2.575.706 0 1.64 1.468 1.64 2.575a1.64 1.64 0 01-1.64 1.638zm-24.366-6.553c-2.395 0-3.984 2.958-3.984 4.915a3.986 3.986 0 003.984 3.98 3.985 3.985 0 003.983-3.98c0-1.957-1.589-4.915-3.983-4.915zm0 6.553a1.64 1.64 0 01-1.64-1.638c0-1.107.934-2.575 1.64-2.575.705 0 1.64 1.468 1.64 2.575 0 .903-.736 1.638-1.64 1.638z" stroke="#A07B50" mask="url(#a)"></path>
      <path d="M34.91 38.699h-1.327v-1.327a1.17 1.17 0 00-2.343 0V38.7h-1.328a1.17 1.17 0 100 2.34h1.328v1.327a1.17 1.17 0 002.343 0V41.04h1.327a1.17 1.17 0 100-2.34z" stroke="#A07B50" mask="url(#a)"></path>
      <path d="M46.502 1.715A35.638 35.638 0 0035.535 0C26.043 0 17.12 3.693 10.408 10.398S0 26.018 0 35.5c0 9.482 3.696 18.397 10.408 25.102C17.12 67.307 26.043 71 35.535 71a1.17 1.17 0 100-2.34c-8.866 0-17.201-3.45-23.47-9.713-6.27-6.263-9.722-14.59-9.722-23.447s3.453-17.184 9.722-23.447C18.334 5.79 26.669 2.34 35.535 2.34c3.508 0 6.955.538 10.247 1.601a1.183 1.183 0 001.475-.753 1.181 1.181 0 00-.755-1.474z" stroke="#A07B50" mask="url(#a)"></path>
      <path d="M79.71 32.084l-4.114-4.697a1.184 1.184 0 00-1.653-.11l-3.277 2.864a35.492 35.492 0 00-10.004-19.744 35.635 35.635 0 00-8.626-6.357 1.183 1.183 0 00-1.582.492 1.181 1.181 0 00.492 1.58 33.303 33.303 0 018.06 5.94c5.596 5.592 8.914 12.692 9.593 20.532.08.935 1.23 1.4 1.938.78l4.067-3.555 2.571 2.936-9.115 7.968a1.973 1.973 0 01-2.571 0l-9.116-7.968 2.572-2.936 3.739 3.268c.79.69 2.057.023 1.934-1.018C62.886 17.341 50.381 6.242 35.535 6.242 19.386 6.242 6.248 19.367 6.248 35.5s13.138 29.258 29.287 29.258a1.17 1.17 0 100-2.34c-14.857 0-26.944-12.076-26.944-26.918 0-14.843 12.087-26.918 26.944-26.918 12.555 0 23.289 8.628 26.18 20.538l-2.109-1.843a1.184 1.184 0 00-1.653.11l-4.114 4.698a1.17 1.17 0 00.11 1.651l9.997 8.738c1.6 1.398 4.058 1.398 5.657 0l9.997-8.738a1.17 1.17 0 00.11-1.651z" stroke="#A07B50" mask="url(#a)"></path>
      <path d="M54.904 66.787h-8.696c3.873-2.88 9.867-8.236 9.867-13.81 0-4.087-3.328-7.412-7.42-7.412-4.09 0-7.419 3.325-7.419 7.412a1.17 1.17 0 002.343 0 5.08 5.08 0 015.077-5.072 5.08 5.08 0 015.076 5.072c0 6.739-11.808 13.905-11.927 13.976-.46.276-.676.847-.514 1.358.153.48.612.816 1.117.816h12.495a1.17 1.17 0 100-2.34zm18.743-4.994H71.07V46.735c0-.48-.304-.922-.753-1.093a1.183 1.183 0 00-1.347.38L56.474 62.25c-.581.755-.023 1.884.929 1.884h11.324v3.823a1.17 1.17 0 002.343 0v-3.823h2.577a1.17 1.17 0 100-2.34zm-4.92 0h-8.945l8.945-11.617v11.617z" stroke="#A07B50" mask="url(#a)"></path>
    </g>
  </svg>
  <svg viewBox="0 0 57 88">
    <g id="features-3-light" class="img" fill="none">
      <mask fill="#fff">
        <path d="M56.89 26.944l-5.335-12.15V1.293c0-.943-1.013-1.578-1.847-1.155l-4.874 2.466L39.96.137a1.262 1.262 0 00-1.141 0l-4.874 2.466L29.07.137a1.262 1.262 0 00-1.142 0l-4.874 2.466L18.181.137a1.261 1.261 0 00-1.141 0l-4.874 2.466L7.292.137C6.457-.286 5.445.35 5.445 1.292v13.502L.11 26.944c-.072.164-.11.345-.11.524v59.24C0 87.422.571 88 1.276 88h54.448c.705 0 1.276-.578 1.276-1.292v-59.24c0-.18-.037-.359-.11-.524zM7.997 3.38l3.598 1.821c.36.182.782.182 1.141 0l4.874-2.466 4.874 2.466c.36.182.783.182 1.142 0L28.5 2.736l4.874 2.466c.36.182.782.182 1.141 0l4.874-2.466 4.874 2.466c.36.182.783.182 1.142 0l3.598-1.82v10.395H7.997V3.381zM2.552 65.957h28.223l5.21 4.22-5.21 4.218H2.552v-8.438zM35.306 28.76h8.252v56.657H2.552v-8.439h28.67c.29 0 .571-.1.798-.282l6.805-5.511c.629-.51.629-1.508 0-2.017l-6.805-5.511a1.268 1.268 0 00-.798-.283H2.552V28.759h26.799c.704 0 1.276-.578 1.276-1.291 0-.714-.572-1.292-1.276-1.292H3.24l4.31-9.816h40.766l-4.31 9.816h-8.7c-.705 0-1.276.578-1.276 1.292 0 .713.571 1.291 1.276 1.291zm19.142 56.657H46.11V27.742l4.169-9.493 4.169 9.493v57.675z"></path>
        <path d="M23.055 41.33c-5.77 0-10.464 4.752-10.464 10.592 0 5.337 3.912 8.524 10.464 8.524 6.553 0 10.464-3.187 10.464-8.524 0-5.84-4.694-10.591-10.464-10.591zm0 16.533c-2.955 0-7.912-.772-7.912-5.941 0-4.416 3.55-8.008 7.912-8.008 4.363 0 7.912 3.592 7.912 8.008 0 5.17-4.957 5.941-7.912 5.941zM17.95 30.998c-2.608 0-4.338 3.265-4.338 5.425 0 2.421 1.946 4.391 4.339 4.391 2.392 0 4.338-1.97 4.338-4.391 0-2.16-1.73-5.425-4.338-5.425zm0 7.233a1.8 1.8 0 01-1.786-1.808c0-1.222 1.019-2.842 1.787-2.842s1.786 1.62 1.786 2.842a1.8 1.8 0 01-1.786 1.808zm10.21-7.233c-2.609 0-4.34 3.265-4.34 5.425 0 2.421 1.947 4.391 4.34 4.391 2.392 0 4.338-1.97 4.338-4.391 0-2.16-1.73-5.425-4.338-5.425zm0 7.233a1.8 1.8 0 01-1.787-1.808c0-1.222 1.019-2.842 1.787-2.842s1.786 1.62 1.786 2.842a1.8 1.8 0 01-1.787 1.808zm8.167-1.033c-2.608 0-4.34 3.265-4.34 5.424 0 2.422 1.947 4.392 4.34 4.392 2.392 0 4.339-1.97 4.339-4.392 0-2.16-1.731-5.424-4.34-5.424zm0 7.233a1.8 1.8 0 01-1.787-1.809c0-1.221 1.019-2.841 1.787-2.841s1.786 1.62 1.786 2.841a1.8 1.8 0 01-1.786 1.809zM9.783 37.198c-2.608 0-4.338 3.265-4.338 5.424 0 2.422 1.946 4.392 4.338 4.392 2.393 0 4.34-1.97 4.34-4.392 0-2.16-1.731-5.424-4.34-5.424zm0 7.233a1.8 1.8 0 01-1.786-1.809c0-1.221 1.018-2.841 1.786-2.841.769 0 1.787 1.62 1.787 2.841a1.8 1.8 0 01-1.787 1.809zm2.383 35.475H6.72c-.705 0-1.276.578-1.276 1.292 0 .713.571 1.291 1.276 1.291h5.445c.704 0 1.276-.578 1.276-1.291 0-.714-.572-1.292-1.276-1.292zm17.695 0h-12.25c-.705 0-1.277.578-1.277 1.292 0 .713.572 1.291 1.276 1.291h12.251c.705 0 1.276-.578 1.276-1.291 0-.714-.571-1.292-1.276-1.292zM16.25 68.885H6.72c-.704 0-1.275.578-1.275 1.291 0 .714.571 1.292 1.276 1.292h9.528c.705 0 1.276-.578 1.276-1.292 0-.713-.57-1.291-1.276-1.291zm12.25 0h-6.806c-.705 0-1.276.578-1.276 1.291 0 .714.571 1.292 1.276 1.292H28.5c.705 0 1.276-.578 1.276-1.292 0-.713-.571-1.291-1.276-1.291z"></path>
      </mask>
      <path d="M56.89 26.944l-5.335-12.15V1.293c0-.943-1.013-1.578-1.847-1.155l-4.874 2.466L39.96.137a1.262 1.262 0 00-1.141 0l-4.874 2.466L29.07.137a1.262 1.262 0 00-1.142 0l-4.874 2.466L18.181.137a1.261 1.261 0 00-1.141 0l-4.874 2.466L7.292.137C6.457-.286 5.445.35 5.445 1.292v13.502L.11 26.944c-.072.164-.11.345-.11.524v59.24C0 87.422.571 88 1.276 88h54.448c.705 0 1.276-.578 1.276-1.292v-59.24c0-.18-.037-.359-.11-.524zM7.997 3.38l3.598 1.821c.36.182.782.182 1.141 0l4.874-2.466 4.874 2.466c.36.182.783.182 1.142 0L28.5 2.736l4.874 2.466c.36.182.782.182 1.141 0l4.874-2.466 4.874 2.466c.36.182.783.182 1.142 0l3.598-1.82v10.395H7.997V3.381zM2.552 65.957h28.223l5.21 4.22-5.21 4.218H2.552v-8.438zM35.306 28.76h8.252v56.657H2.552v-8.439h28.67c.29 0 .571-.1.798-.282l6.805-5.511c.629-.51.629-1.508 0-2.017l-6.805-5.511a1.268 1.268 0 00-.798-.283H2.552V28.759h26.799c.704 0 1.276-.578 1.276-1.291 0-.714-.572-1.292-1.276-1.292H3.24l4.31-9.816h40.766l-4.31 9.816h-8.7c-.705 0-1.276.578-1.276 1.292 0 .713.571 1.291 1.276 1.291zm19.142 56.657H46.11V27.742l4.169-9.493 4.169 9.493v57.675z" fill="#fff"></path>
      <path d="M23.055 41.33c-5.77 0-10.464 4.752-10.464 10.592 0 5.337 3.912 8.524 10.464 8.524 6.553 0 10.464-3.187 10.464-8.524 0-5.84-4.694-10.591-10.464-10.591zm0 16.533c-2.955 0-7.912-.772-7.912-5.941 0-4.416 3.55-8.008 7.912-8.008 4.363 0 7.912 3.592 7.912 8.008 0 5.17-4.957 5.941-7.912 5.941zM17.95 30.998c-2.608 0-4.338 3.265-4.338 5.425 0 2.421 1.946 4.391 4.339 4.391 2.392 0 4.338-1.97 4.338-4.391 0-2.16-1.73-5.425-4.338-5.425zm0 7.233a1.8 1.8 0 01-1.786-1.808c0-1.222 1.019-2.842 1.787-2.842s1.786 1.62 1.786 2.842a1.8 1.8 0 01-1.786 1.808zm10.21-7.233c-2.609 0-4.34 3.265-4.34 5.425 0 2.421 1.947 4.391 4.34 4.391 2.392 0 4.338-1.97 4.338-4.391 0-2.16-1.73-5.425-4.338-5.425zm0 7.233a1.8 1.8 0 01-1.787-1.808c0-1.222 1.019-2.842 1.787-2.842s1.786 1.62 1.786 2.842a1.8 1.8 0 01-1.787 1.808zm8.167-1.033c-2.608 0-4.34 3.265-4.34 5.424 0 2.422 1.947 4.392 4.34 4.392 2.392 0 4.339-1.97 4.339-4.392 0-2.16-1.731-5.424-4.34-5.424zm0 7.233a1.8 1.8 0 01-1.787-1.809c0-1.221 1.019-2.841 1.787-2.841s1.786 1.62 1.786 2.841a1.8 1.8 0 01-1.786 1.809zM9.783 37.198c-2.608 0-4.338 3.265-4.338 5.424 0 2.422 1.946 4.392 4.338 4.392 2.393 0 4.34-1.97 4.34-4.392 0-2.16-1.731-5.424-4.34-5.424zm0 7.233a1.8 1.8 0 01-1.786-1.809c0-1.221 1.018-2.841 1.786-2.841.769 0 1.787 1.62 1.787 2.841a1.8 1.8 0 01-1.787 1.809zm2.383 35.475H6.72c-.705 0-1.276.578-1.276 1.292 0 .713.571 1.291 1.276 1.291h5.445c.704 0 1.276-.578 1.276-1.291 0-.714-.572-1.292-1.276-1.292zm17.695 0h-12.25c-.705 0-1.277.578-1.277 1.292 0 .713.572 1.291 1.276 1.291h12.251c.705 0 1.276-.578 1.276-1.291 0-.714-.571-1.292-1.276-1.292zM16.25 68.885H6.72c-.704 0-1.275.578-1.275 1.291 0 .714.571 1.292 1.276 1.292h9.528c.705 0 1.276-.578 1.276-1.292 0-.713-.57-1.291-1.276-1.291zm12.25 0h-6.806c-.705 0-1.276.578-1.276 1.291 0 .714.571 1.292 1.276 1.292H28.5c.705 0 1.276-.578 1.276-1.292 0-.713-.571-1.291-1.276-1.291z" fill="#fff"></path>
      <path d="M56.89 26.944l-5.335-12.15V1.293c0-.943-1.013-1.578-1.847-1.155l-4.874 2.466L39.96.137a1.262 1.262 0 00-1.141 0l-4.874 2.466L29.07.137a1.262 1.262 0 00-1.142 0l-4.874 2.466L18.181.137a1.261 1.261 0 00-1.141 0l-4.874 2.466L7.292.137C6.457-.286 5.445.35 5.445 1.292v13.502L.11 26.944c-.072.164-.11.345-.11.524v59.24C0 87.422.571 88 1.276 88h54.448c.705 0 1.276-.578 1.276-1.292v-59.24c0-.18-.037-.359-.11-.524zM7.997 3.38l3.598 1.821c.36.182.782.182 1.141 0l4.874-2.466 4.874 2.466c.36.182.783.182 1.142 0L28.5 2.736l4.874 2.466c.36.182.782.182 1.141 0l4.874-2.466 4.874 2.466c.36.182.783.182 1.142 0l3.598-1.82v10.395H7.997V3.381zM2.552 65.957h28.223l5.21 4.22-5.21 4.218H2.552v-8.438zM35.306 28.76h8.252v56.657H2.552v-8.439h28.67c.29 0 .571-.1.798-.282l6.805-5.511c.629-.51.629-1.508 0-2.017l-6.805-5.511a1.268 1.268 0 00-.798-.283H2.552V28.759h26.799c.704 0 1.276-.578 1.276-1.291 0-.714-.572-1.292-1.276-1.292H3.24l4.31-9.816h40.766l-4.31 9.816h-8.7c-.705 0-1.276.578-1.276 1.292 0 .713.571 1.291 1.276 1.291zm19.142 56.657H46.11V27.742l4.169-9.493 4.169 9.493v57.675z" stroke="#A07B50" mask="url(#a)"></path>
      <path d="M23.055 41.33c-5.77 0-10.464 4.752-10.464 10.592 0 5.337 3.912 8.524 10.464 8.524 6.553 0 10.464-3.187 10.464-8.524 0-5.84-4.694-10.591-10.464-10.591zm0 16.533c-2.955 0-7.912-.772-7.912-5.941 0-4.416 3.55-8.008 7.912-8.008 4.363 0 7.912 3.592 7.912 8.008 0 5.17-4.957 5.941-7.912 5.941zM17.95 30.998c-2.608 0-4.338 3.265-4.338 5.425 0 2.421 1.946 4.391 4.339 4.391 2.392 0 4.338-1.97 4.338-4.391 0-2.16-1.73-5.425-4.338-5.425zm0 7.233a1.8 1.8 0 01-1.786-1.808c0-1.222 1.019-2.842 1.787-2.842s1.786 1.62 1.786 2.842a1.8 1.8 0 01-1.786 1.808zm10.21-7.233c-2.609 0-4.34 3.265-4.34 5.425 0 2.421 1.947 4.391 4.34 4.391 2.392 0 4.338-1.97 4.338-4.391 0-2.16-1.73-5.425-4.338-5.425zm0 7.233a1.8 1.8 0 01-1.787-1.808c0-1.222 1.019-2.842 1.787-2.842s1.786 1.62 1.786 2.842a1.8 1.8 0 01-1.787 1.808zm8.167-1.033c-2.608 0-4.34 3.265-4.34 5.424 0 2.422 1.947 4.392 4.34 4.392 2.392 0 4.339-1.97 4.339-4.392 0-2.16-1.731-5.424-4.34-5.424zm0 7.233a1.8 1.8 0 01-1.787-1.809c0-1.221 1.019-2.841 1.787-2.841s1.786 1.62 1.786 2.841a1.8 1.8 0 01-1.786 1.809zM9.783 37.198c-2.608 0-4.338 3.265-4.338 5.424 0 2.422 1.946 4.392 4.338 4.392 2.393 0 4.34-1.97 4.34-4.392 0-2.16-1.731-5.424-4.34-5.424zm0 7.233a1.8 1.8 0 01-1.786-1.809c0-1.221 1.018-2.841 1.786-2.841.769 0 1.787 1.62 1.787 2.841a1.8 1.8 0 01-1.787 1.809zm2.383 35.475H6.72c-.705 0-1.276.578-1.276 1.292 0 .713.571 1.291 1.276 1.291h5.445c.704 0 1.276-.578 1.276-1.291 0-.714-.572-1.292-1.276-1.292zm17.695 0h-12.25c-.705 0-1.277.578-1.277 1.292 0 .713.572 1.291 1.276 1.291h12.251c.705 0 1.276-.578 1.276-1.291 0-.714-.571-1.292-1.276-1.292zM16.25 68.885H6.72c-.704 0-1.275.578-1.275 1.291 0 .714.571 1.292 1.276 1.292h9.528c.705 0 1.276-.578 1.276-1.292 0-.713-.57-1.291-1.276-1.291zm12.25 0h-6.806c-.705 0-1.276.578-1.276 1.291 0 .714.571 1.292 1.276 1.292H28.5c.705 0 1.276-.578 1.276-1.292 0-.713-.571-1.291-1.276-1.291z" stroke="#A07B50" mask="url(#a)"></path>
    </g>
  </svg>
</svg>