<svg width="6" height="12" viewBox="0 0 6 12" fill="none" xmlns="http://www.w3.org/2000/svg">
<path d="M1.09903 2.26821C1.09903 2.54804 1.09903 3.79704 1.09903 3.79704H0V5.66651H1.09903V11.2219H3.35667V5.66666H4.87165C4.87165 5.66666 5.01354 4.77027 5.08231 3.79015C4.88513 3.79015 3.36521 3.79015 3.36521 3.79015C3.36521 3.79015 3.36521 2.70256 3.36521 2.51192C3.36521 2.32088 3.61136 2.06389 3.85465 2.06389C4.09748 2.06389 4.61 2.06389 5.08469 2.06389C5.08469 1.80936 5.08469 0.929906 5.08469 0.117676C4.45099 0.117676 3.73004 0.117676 3.41225 0.117676C1.04322 0.117547 1.09903 1.98887 1.09903 2.26821Z" fill="white"/>
</svg>
