<svg width="107" height="98" viewBox="0 0 107 98" fill="none" xmlns="http://www.w3.org/2000/svg">
<mask id="path-1-inside-1" fill="white">
<path d="M43.3499 43.0056C36.2653 43.0056 30.5015 48.8799 30.5015 56.1002C30.5015 62.6996 35.3046 66.6397 43.3499 66.6397C51.3952 66.6397 56.1982 62.6996 56.1982 56.1002C56.1982 48.8799 50.4345 43.0056 43.3499 43.0056ZM43.3499 63.4457C39.7219 63.4457 33.6353 62.4913 33.6353 56.1C33.6353 50.6404 37.9932 46.1992 43.3499 46.1992C48.7064 46.1992 53.0645 50.6404 53.0645 56.1C53.0645 62.4913 46.9779 63.4457 43.3499 63.4457Z"/>
<path d="M37.0824 30.2305C33.8797 30.2305 31.755 34.2675 31.755 36.9376C31.755 39.9313 34.1447 42.3671 37.0824 42.3671C40.0201 42.3671 42.4098 39.9315 42.4098 36.9376C42.4098 34.2673 40.2851 30.2305 37.0824 30.2305ZM37.0824 39.1731C35.8728 39.1731 34.8887 38.1703 34.8887 36.9373C34.8887 35.4268 36.1393 33.4241 37.0824 33.4241C38.0255 33.4241 39.2761 35.4268 39.2761 36.9373C39.2761 38.1701 38.292 39.1731 37.0824 39.1731Z"/>
<path d="M49.6173 30.2305C46.4146 30.2305 44.2899 34.2675 44.2899 36.9376C44.2899 39.9313 46.6796 42.3671 49.6173 42.3671C52.555 42.3671 54.9447 39.9315 54.9447 36.9376C54.9447 34.2673 52.82 30.2305 49.6173 30.2305ZM49.6173 39.1731C48.4077 39.1731 47.4236 38.1703 47.4236 36.9373C47.4236 35.4268 48.6741 33.4241 49.6173 33.4241C50.5604 33.4241 51.811 35.4268 51.811 36.9373C51.811 38.1701 50.8269 39.1731 49.6173 39.1731Z"/>
<path d="M59.6451 37.8956C56.4424 37.8956 54.3177 41.9326 54.3177 44.6026C54.3177 47.5964 56.7074 50.0321 59.6451 50.0321C62.5828 50.0321 64.9725 47.5966 64.9725 44.6026C64.9725 41.9324 62.8478 37.8956 59.6451 37.8956ZM59.6451 46.8381C58.4355 46.8381 57.4514 45.8354 57.4514 44.6024C57.4514 43.0919 58.702 41.0891 59.6451 41.0891C60.5883 41.0891 61.8388 43.0919 61.8388 44.6024C61.8388 45.8352 60.8547 46.8381 59.6451 46.8381Z"/>
<path d="M27.0544 37.8956C23.8517 37.8956 21.727 41.9326 21.727 44.6026C21.727 47.5964 24.1167 50.0321 27.0544 50.0321C29.9921 50.0321 32.3818 47.5966 32.3818 44.6026C32.3818 41.9324 30.2571 37.8956 27.0544 37.8956ZM27.0544 46.8381C25.8448 46.8381 24.8607 45.8354 24.8607 44.6024C24.8607 43.0919 26.1112 41.0891 27.0544 41.0891C27.9975 41.0891 29.2481 43.0919 29.2481 44.6024C29.2481 45.8352 28.264 46.8381 27.0544 46.8381Z"/>
<path d="M46.6925 53.2257H44.9168V51.4159C44.9168 50.5337 44.2152 49.8191 43.35 49.8191C42.4848 49.8191 41.7833 50.5339 41.7833 51.4159V53.2257H40.0075C39.1421 53.2257 38.4408 53.9405 38.4408 54.8224C38.4408 55.7047 39.1423 56.4192 40.0075 56.4192H41.7833V58.229C41.7833 59.1112 42.4848 59.8258 43.35 59.8258C44.2152 59.8258 44.9168 59.111 44.9168 58.229V56.4192H46.6925C47.5579 56.4192 48.2593 55.7044 48.2593 54.8224C48.2593 53.9405 47.5577 53.2257 46.6925 53.2257Z"/>
<path d="M62.1969 2.76208C57.4824 1.20917 52.547 0.42218 47.5281 0.42218C34.8327 0.42218 22.8974 5.46064 13.9204 14.6096C4.94374 23.7585 0 35.9225 0 48.861C0 61.7994 4.94373 73.9634 13.9207 83.1126C22.8976 92.2615 34.8329 97.3 47.5283 97.3C48.3937 97.3 49.095 96.5852 49.095 95.7032C49.095 94.821 48.3935 94.1064 47.5283 94.1064C35.6701 94.1064 24.5216 89.4 16.1367 80.8545C7.75165 72.3083 3.13372 60.9464 3.13372 48.861C3.13372 36.7756 7.75165 25.4137 16.1365 16.8679C24.5216 8.32194 35.6699 3.61595 47.5281 3.61595C52.2196 3.61595 56.8304 4.35119 61.2333 5.80143C62.0458 6.07001 62.9434 5.60079 63.2061 4.77312C63.4688 3.9448 63.0094 3.02959 62.1969 2.76208Z"/>
<path d="M106.612 44.2007L101.11 37.791C100.548 37.1365 99.5411 37.0677 98.8987 37.6406L94.516 41.549C93.004 31.4016 88.319 21.9301 81.1356 14.6091C77.712 11.1199 73.8306 8.20152 69.5984 5.93532C68.8425 5.52979 67.8797 5.83564 67.4825 6.60581C67.0854 7.37619 67.3847 8.35743 68.1405 8.76232C72.0929 10.8792 75.7194 13.6061 78.9195 16.8676C86.4058 24.4973 90.8429 34.1847 91.751 44.882C91.8594 46.1583 93.3957 46.7917 94.3438 45.9461L99.7827 41.0957L103.222 45.1016L91.0304 55.9737C90.0584 56.8405 88.5633 56.8405 87.5911 55.9737L75.3996 45.1016L78.8389 41.0957L83.8392 45.5549C84.8963 46.4974 86.5911 45.5862 86.4273 44.1664C84.1082 24.0835 67.3851 8.93868 47.5282 8.93868C25.9288 8.93868 8.35659 26.8476 8.35659 48.8609C8.35659 70.8741 25.9288 88.7831 47.5282 88.7831C48.3936 88.7831 49.095 88.0683 49.095 87.1861C49.095 86.3039 48.3934 85.5893 47.5282 85.5893C27.6569 85.5893 11.4903 69.1132 11.4903 48.8609C11.4903 28.6086 27.6567 12.1324 47.528 12.1324C64.3199 12.1324 78.6765 23.905 82.544 40.156L79.7235 37.6409C79.0811 37.0681 78.0742 37.1371 77.5127 37.7912L72.0099 44.2009C71.44 44.8646 71.506 45.8733 72.1574 46.4541L85.528 58.3774C87.6666 60.2845 90.9558 60.2845 93.0945 58.3774L106.465 46.4541C107.116 45.8733 107.182 44.8646 106.612 44.2007Z"/>
<path d="M73.4335 91.5509H61.8029C66.9836 87.6221 75.0005 80.3138 75.0005 72.7076C75.0005 67.1311 70.5487 62.594 65.077 62.594C59.6054 62.594 55.1536 67.1311 55.1536 72.7076C55.1536 73.5898 55.8552 74.3043 56.7204 74.3043C57.5856 74.3043 58.2871 73.5895 58.2871 72.7076C58.2871 68.8919 61.3331 65.7878 65.0768 65.7878C68.8206 65.7878 71.8665 68.8919 71.8665 72.7076C71.8665 81.9027 56.0732 91.6808 55.9139 91.7781C55.2987 92.1543 55.0096 92.934 55.2268 93.6309C55.431 94.2865 56.0456 94.7444 56.7202 94.7444H73.4333C74.2987 94.7444 75 94.0296 75 93.1477C75.0005 92.2657 74.2989 91.5509 73.4335 91.5509Z"/>
<path d="M98.5034 84.7377H95.0563V64.1911C95.0563 63.5365 94.6492 62.9334 94.0496 62.6995C93.4101 62.4501 92.665 62.6639 92.2475 63.2171L75.5344 85.3605C74.7566 86.3911 75.503 87.931 76.7764 87.931H91.9227V93.1475C91.9227 94.0297 92.6243 94.7443 93.4895 94.7443C94.3547 94.7443 95.0563 94.0295 95.0563 93.1475V87.931H98.5034C99.3689 87.931 100.07 87.2162 100.07 86.3342C100.07 85.4522 99.3686 84.7377 98.5034 84.7377ZM91.9225 84.7377H79.9582L91.9225 68.8862V84.7377Z"/>
</mask>
<path d="M43.3499 43.0056C36.2653 43.0056 30.5015 48.8799 30.5015 56.1002C30.5015 62.6996 35.3046 66.6397 43.3499 66.6397C51.3952 66.6397 56.1982 62.6996 56.1982 56.1002C56.1982 48.8799 50.4345 43.0056 43.3499 43.0056ZM43.3499 63.4457C39.7219 63.4457 33.6353 62.4913 33.6353 56.1C33.6353 50.6404 37.9932 46.1992 43.3499 46.1992C48.7064 46.1992 53.0645 50.6404 53.0645 56.1C53.0645 62.4913 46.9779 63.4457 43.3499 63.4457Z" fill="#A07B50"/>
<path d="M37.0824 30.2305C33.8797 30.2305 31.755 34.2675 31.755 36.9376C31.755 39.9313 34.1447 42.3671 37.0824 42.3671C40.0201 42.3671 42.4098 39.9315 42.4098 36.9376C42.4098 34.2673 40.2851 30.2305 37.0824 30.2305ZM37.0824 39.1731C35.8728 39.1731 34.8887 38.1703 34.8887 36.9373C34.8887 35.4268 36.1393 33.4241 37.0824 33.4241C38.0255 33.4241 39.2761 35.4268 39.2761 36.9373C39.2761 38.1701 38.292 39.1731 37.0824 39.1731Z" fill="#A07B50"/>
<path d="M49.6173 30.2305C46.4146 30.2305 44.2899 34.2675 44.2899 36.9376C44.2899 39.9313 46.6796 42.3671 49.6173 42.3671C52.555 42.3671 54.9447 39.9315 54.9447 36.9376C54.9447 34.2673 52.82 30.2305 49.6173 30.2305ZM49.6173 39.1731C48.4077 39.1731 47.4236 38.1703 47.4236 36.9373C47.4236 35.4268 48.6741 33.4241 49.6173 33.4241C50.5604 33.4241 51.811 35.4268 51.811 36.9373C51.811 38.1701 50.8269 39.1731 49.6173 39.1731Z" fill="#A07B50"/>
<path d="M59.6451 37.8956C56.4424 37.8956 54.3177 41.9326 54.3177 44.6026C54.3177 47.5964 56.7074 50.0321 59.6451 50.0321C62.5828 50.0321 64.9725 47.5966 64.9725 44.6026C64.9725 41.9324 62.8478 37.8956 59.6451 37.8956ZM59.6451 46.8381C58.4355 46.8381 57.4514 45.8354 57.4514 44.6024C57.4514 43.0919 58.702 41.0891 59.6451 41.0891C60.5883 41.0891 61.8388 43.0919 61.8388 44.6024C61.8388 45.8352 60.8547 46.8381 59.6451 46.8381Z" fill="#A07B50"/>
<path d="M27.0544 37.8956C23.8517 37.8956 21.727 41.9326 21.727 44.6026C21.727 47.5964 24.1167 50.0321 27.0544 50.0321C29.9921 50.0321 32.3818 47.5966 32.3818 44.6026C32.3818 41.9324 30.2571 37.8956 27.0544 37.8956ZM27.0544 46.8381C25.8448 46.8381 24.8607 45.8354 24.8607 44.6024C24.8607 43.0919 26.1112 41.0891 27.0544 41.0891C27.9975 41.0891 29.2481 43.0919 29.2481 44.6024C29.2481 45.8352 28.264 46.8381 27.0544 46.8381Z" fill="#A07B50"/>
<path d="M46.6925 53.2257H44.9168V51.4159C44.9168 50.5337 44.2152 49.8191 43.35 49.8191C42.4848 49.8191 41.7833 50.5339 41.7833 51.4159V53.2257H40.0075C39.1421 53.2257 38.4408 53.9405 38.4408 54.8224C38.4408 55.7047 39.1423 56.4192 40.0075 56.4192H41.7833V58.229C41.7833 59.1112 42.4848 59.8258 43.35 59.8258C44.2152 59.8258 44.9168 59.111 44.9168 58.229V56.4192H46.6925C47.5579 56.4192 48.2593 55.7044 48.2593 54.8224C48.2593 53.9405 47.5577 53.2257 46.6925 53.2257Z" fill="#A07B50"/>
<path d="M62.1969 2.76208C57.4824 1.20917 52.547 0.42218 47.5281 0.42218C34.8327 0.42218 22.8974 5.46064 13.9204 14.6096C4.94374 23.7585 0 35.9225 0 48.861C0 61.7994 4.94373 73.9634 13.9207 83.1126C22.8976 92.2615 34.8329 97.3 47.5283 97.3C48.3937 97.3 49.095 96.5852 49.095 95.7032C49.095 94.821 48.3935 94.1064 47.5283 94.1064C35.6701 94.1064 24.5216 89.4 16.1367 80.8545C7.75165 72.3083 3.13372 60.9464 3.13372 48.861C3.13372 36.7756 7.75165 25.4137 16.1365 16.8679C24.5216 8.32194 35.6699 3.61595 47.5281 3.61595C52.2196 3.61595 56.8304 4.35119 61.2333 5.80143C62.0458 6.07001 62.9434 5.60079 63.2061 4.77312C63.4688 3.9448 63.0094 3.02959 62.1969 2.76208Z" fill="#A07B50"/>
<path d="M106.612 44.2007L101.11 37.791C100.548 37.1365 99.5411 37.0677 98.8987 37.6406L94.516 41.549C93.004 31.4016 88.319 21.9301 81.1356 14.6091C77.712 11.1199 73.8306 8.20152 69.5984 5.93532C68.8425 5.52979 67.8797 5.83564 67.4825 6.60581C67.0854 7.37619 67.3847 8.35743 68.1405 8.76232C72.0929 10.8792 75.7194 13.6061 78.9195 16.8676C86.4058 24.4973 90.8429 34.1847 91.751 44.882C91.8594 46.1583 93.3957 46.7917 94.3438 45.9461L99.7827 41.0957L103.222 45.1016L91.0304 55.9737C90.0584 56.8405 88.5633 56.8405 87.5911 55.9737L75.3996 45.1016L78.8389 41.0957L83.8392 45.5549C84.8963 46.4974 86.5911 45.5862 86.4273 44.1664C84.1082 24.0835 67.3851 8.93868 47.5282 8.93868C25.9288 8.93868 8.35659 26.8476 8.35659 48.8609C8.35659 70.8741 25.9288 88.7831 47.5282 88.7831C48.3936 88.7831 49.095 88.0683 49.095 87.1861C49.095 86.3039 48.3934 85.5893 47.5282 85.5893C27.6569 85.5893 11.4903 69.1132 11.4903 48.8609C11.4903 28.6086 27.6567 12.1324 47.528 12.1324C64.3199 12.1324 78.6765 23.905 82.544 40.156L79.7235 37.6409C79.0811 37.0681 78.0742 37.1371 77.5127 37.7912L72.0099 44.2009C71.44 44.8646 71.506 45.8733 72.1574 46.4541L85.528 58.3774C87.6666 60.2845 90.9558 60.2845 93.0945 58.3774L106.465 46.4541C107.116 45.8733 107.182 44.8646 106.612 44.2007Z" fill="#A07B50"/>
<path d="M73.4335 91.5509H61.8029C66.9836 87.6221 75.0005 80.3138 75.0005 72.7076C75.0005 67.1311 70.5487 62.594 65.077 62.594C59.6054 62.594 55.1536 67.1311 55.1536 72.7076C55.1536 73.5898 55.8552 74.3043 56.7204 74.3043C57.5856 74.3043 58.2871 73.5895 58.2871 72.7076C58.2871 68.8919 61.3331 65.7878 65.0768 65.7878C68.8206 65.7878 71.8665 68.8919 71.8665 72.7076C71.8665 81.9027 56.0732 91.6808 55.9139 91.7781C55.2987 92.1543 55.0096 92.934 55.2268 93.6309C55.431 94.2865 56.0456 94.7444 56.7202 94.7444H73.4333C74.2987 94.7444 75 94.0296 75 93.1477C75.0005 92.2657 74.2989 91.5509 73.4335 91.5509Z" fill="#A07B50"/>
<path d="M98.5034 84.7377H95.0563V64.1911C95.0563 63.5365 94.6492 62.9334 94.0496 62.6995C93.4101 62.4501 92.665 62.6639 92.2475 63.2171L75.5344 85.3605C74.7566 86.3911 75.503 87.931 76.7764 87.931H91.9227V93.1475C91.9227 94.0297 92.6243 94.7443 93.4895 94.7443C94.3547 94.7443 95.0563 94.0295 95.0563 93.1475V87.931H98.5034C99.3689 87.931 100.07 87.2162 100.07 86.3342C100.07 85.4522 99.3686 84.7377 98.5034 84.7377ZM91.9225 84.7377H79.9582L91.9225 68.8862V84.7377Z" fill="#A07B50"/>
<path d="M43.3499 43.0056C36.2653 43.0056 30.5015 48.8799 30.5015 56.1002C30.5015 62.6996 35.3046 66.6397 43.3499 66.6397C51.3952 66.6397 56.1982 62.6996 56.1982 56.1002C56.1982 48.8799 50.4345 43.0056 43.3499 43.0056ZM43.3499 63.4457C39.7219 63.4457 33.6353 62.4913 33.6353 56.1C33.6353 50.6404 37.9932 46.1992 43.3499 46.1992C48.7064 46.1992 53.0645 50.6404 53.0645 56.1C53.0645 62.4913 46.9779 63.4457 43.3499 63.4457Z" stroke="#1F1C1D" stroke-width="2" mask="url(#path-1-inside-1)"/>
<path d="M37.0824 30.2305C33.8797 30.2305 31.755 34.2675 31.755 36.9376C31.755 39.9313 34.1447 42.3671 37.0824 42.3671C40.0201 42.3671 42.4098 39.9315 42.4098 36.9376C42.4098 34.2673 40.2851 30.2305 37.0824 30.2305ZM37.0824 39.1731C35.8728 39.1731 34.8887 38.1703 34.8887 36.9373C34.8887 35.4268 36.1393 33.4241 37.0824 33.4241C38.0255 33.4241 39.2761 35.4268 39.2761 36.9373C39.2761 38.1701 38.292 39.1731 37.0824 39.1731Z" stroke="#1F1C1D" stroke-width="2" mask="url(#path-1-inside-1)"/>
<path d="M49.6173 30.2305C46.4146 30.2305 44.2899 34.2675 44.2899 36.9376C44.2899 39.9313 46.6796 42.3671 49.6173 42.3671C52.555 42.3671 54.9447 39.9315 54.9447 36.9376C54.9447 34.2673 52.82 30.2305 49.6173 30.2305ZM49.6173 39.1731C48.4077 39.1731 47.4236 38.1703 47.4236 36.9373C47.4236 35.4268 48.6741 33.4241 49.6173 33.4241C50.5604 33.4241 51.811 35.4268 51.811 36.9373C51.811 38.1701 50.8269 39.1731 49.6173 39.1731Z" stroke="#1F1C1D" stroke-width="2" mask="url(#path-1-inside-1)"/>
<path d="M59.6451 37.8956C56.4424 37.8956 54.3177 41.9326 54.3177 44.6026C54.3177 47.5964 56.7074 50.0321 59.6451 50.0321C62.5828 50.0321 64.9725 47.5966 64.9725 44.6026C64.9725 41.9324 62.8478 37.8956 59.6451 37.8956ZM59.6451 46.8381C58.4355 46.8381 57.4514 45.8354 57.4514 44.6024C57.4514 43.0919 58.702 41.0891 59.6451 41.0891C60.5883 41.0891 61.8388 43.0919 61.8388 44.6024C61.8388 45.8352 60.8547 46.8381 59.6451 46.8381Z" stroke="#1F1C1D" stroke-width="2" mask="url(#path-1-inside-1)"/>
<path d="M27.0544 37.8956C23.8517 37.8956 21.727 41.9326 21.727 44.6026C21.727 47.5964 24.1167 50.0321 27.0544 50.0321C29.9921 50.0321 32.3818 47.5966 32.3818 44.6026C32.3818 41.9324 30.2571 37.8956 27.0544 37.8956ZM27.0544 46.8381C25.8448 46.8381 24.8607 45.8354 24.8607 44.6024C24.8607 43.0919 26.1112 41.0891 27.0544 41.0891C27.9975 41.0891 29.2481 43.0919 29.2481 44.6024C29.2481 45.8352 28.264 46.8381 27.0544 46.8381Z" stroke="#1F1C1D" stroke-width="2" mask="url(#path-1-inside-1)"/>
<path d="M46.6925 53.2257H44.9168V51.4159C44.9168 50.5337 44.2152 49.8191 43.35 49.8191C42.4848 49.8191 41.7833 50.5339 41.7833 51.4159V53.2257H40.0075C39.1421 53.2257 38.4408 53.9405 38.4408 54.8224C38.4408 55.7047 39.1423 56.4192 40.0075 56.4192H41.7833V58.229C41.7833 59.1112 42.4848 59.8258 43.35 59.8258C44.2152 59.8258 44.9168 59.111 44.9168 58.229V56.4192H46.6925C47.5579 56.4192 48.2593 55.7044 48.2593 54.8224C48.2593 53.9405 47.5577 53.2257 46.6925 53.2257Z" stroke="#1F1C1D" stroke-width="2" mask="url(#path-1-inside-1)"/>
<path d="M62.1969 2.76208C57.4824 1.20917 52.547 0.42218 47.5281 0.42218C34.8327 0.42218 22.8974 5.46064 13.9204 14.6096C4.94374 23.7585 0 35.9225 0 48.861C0 61.7994 4.94373 73.9634 13.9207 83.1126C22.8976 92.2615 34.8329 97.3 47.5283 97.3C48.3937 97.3 49.095 96.5852 49.095 95.7032C49.095 94.821 48.3935 94.1064 47.5283 94.1064C35.6701 94.1064 24.5216 89.4 16.1367 80.8545C7.75165 72.3083 3.13372 60.9464 3.13372 48.861C3.13372 36.7756 7.75165 25.4137 16.1365 16.8679C24.5216 8.32194 35.6699 3.61595 47.5281 3.61595C52.2196 3.61595 56.8304 4.35119 61.2333 5.80143C62.0458 6.07001 62.9434 5.60079 63.2061 4.77312C63.4688 3.9448 63.0094 3.02959 62.1969 2.76208Z" stroke="#1F1C1D" stroke-width="2" mask="url(#path-1-inside-1)"/>
<path d="M106.612 44.2007L101.11 37.791C100.548 37.1365 99.5411 37.0677 98.8987 37.6406L94.516 41.549C93.004 31.4016 88.319 21.9301 81.1356 14.6091C77.712 11.1199 73.8306 8.20152 69.5984 5.93532C68.8425 5.52979 67.8797 5.83564 67.4825 6.60581C67.0854 7.37619 67.3847 8.35743 68.1405 8.76232C72.0929 10.8792 75.7194 13.6061 78.9195 16.8676C86.4058 24.4973 90.8429 34.1847 91.751 44.882C91.8594 46.1583 93.3957 46.7917 94.3438 45.9461L99.7827 41.0957L103.222 45.1016L91.0304 55.9737C90.0584 56.8405 88.5633 56.8405 87.5911 55.9737L75.3996 45.1016L78.8389 41.0957L83.8392 45.5549C84.8963 46.4974 86.5911 45.5862 86.4273 44.1664C84.1082 24.0835 67.3851 8.93868 47.5282 8.93868C25.9288 8.93868 8.35659 26.8476 8.35659 48.8609C8.35659 70.8741 25.9288 88.7831 47.5282 88.7831C48.3936 88.7831 49.095 88.0683 49.095 87.1861C49.095 86.3039 48.3934 85.5893 47.5282 85.5893C27.6569 85.5893 11.4903 69.1132 11.4903 48.8609C11.4903 28.6086 27.6567 12.1324 47.528 12.1324C64.3199 12.1324 78.6765 23.905 82.544 40.156L79.7235 37.6409C79.0811 37.0681 78.0742 37.1371 77.5127 37.7912L72.0099 44.2009C71.44 44.8646 71.506 45.8733 72.1574 46.4541L85.528 58.3774C87.6666 60.2845 90.9558 60.2845 93.0945 58.3774L106.465 46.4541C107.116 45.8733 107.182 44.8646 106.612 44.2007Z" stroke="#1F1C1D" stroke-width="2" mask="url(#path-1-inside-1)"/>
<path d="M73.4335 91.5509H61.8029C66.9836 87.6221 75.0005 80.3138 75.0005 72.7076C75.0005 67.1311 70.5487 62.594 65.077 62.594C59.6054 62.594 55.1536 67.1311 55.1536 72.7076C55.1536 73.5898 55.8552 74.3043 56.7204 74.3043C57.5856 74.3043 58.2871 73.5895 58.2871 72.7076C58.2871 68.8919 61.3331 65.7878 65.0768 65.7878C68.8206 65.7878 71.8665 68.8919 71.8665 72.7076C71.8665 81.9027 56.0732 91.6808 55.9139 91.7781C55.2987 92.1543 55.0096 92.934 55.2268 93.6309C55.431 94.2865 56.0456 94.7444 56.7202 94.7444H73.4333C74.2987 94.7444 75 94.0296 75 93.1477C75.0005 92.2657 74.2989 91.5509 73.4335 91.5509Z" stroke="#1F1C1D" stroke-width="2" mask="url(#path-1-inside-1)"/>
<path d="M98.5034 84.7377H95.0563V64.1911C95.0563 63.5365 94.6492 62.9334 94.0496 62.6995C93.4101 62.4501 92.665 62.6639 92.2475 63.2171L75.5344 85.3605C74.7566 86.3911 75.503 87.931 76.7764 87.931H91.9227V93.1475C91.9227 94.0297 92.6243 94.7443 93.4895 94.7443C94.3547 94.7443 95.0563 94.0295 95.0563 93.1475V87.931H98.5034C99.3689 87.931 100.07 87.2162 100.07 86.3342C100.07 85.4522 99.3686 84.7377 98.5034 84.7377ZM91.9225 84.7377H79.9582L91.9225 68.8862V84.7377Z" stroke="#1F1C1D" stroke-width="2" mask="url(#path-1-inside-1)"/>
</svg>
