<svg width="71" height="111" viewBox="0 0 71 111" fill="none" xmlns="http://www.w3.org/2000/svg">
<mask id="path-1-inside-1" fill="white">
<path d="M70.4381 33.7243L63.8728 18.5283V1.63892C63.8728 0.460406 62.6267 -0.333941 61.6001 0.194047L55.6019 3.27943L49.6036 0.194047C49.1616 -0.0336155 48.6408 -0.0336155 48.1988 0.194047L42.2006 3.27943L36.2025 0.194047C35.7605 -0.0336155 35.2397 -0.0336155 34.7977 0.194047L28.7995 3.27943L22.8012 0.194047C22.3592 -0.0336155 21.8386 -0.0336155 21.3966 0.194047L15.3984 3.27943L9.40011 0.194047C8.37358 -0.333941 7.12741 0.460621 7.12741 1.63892V18.5281L0.561971 33.7241C0.472944 33.9294 0.426758 34.1558 0.426758 34.3802V108.477C0.426758 109.37 1.12999 110.093 1.99727 110.093H69.003C69.8705 110.093 70.5735 109.37 70.5735 108.477V34.3802C70.5733 34.1543 70.5275 33.9309 70.4381 33.7243ZM10.2682 4.25285L14.696 6.53034C15.138 6.758 15.6586 6.758 16.1006 6.53034L22.0988 3.44518L28.0971 6.53034C28.5391 6.758 29.0597 6.758 29.5017 6.53034L35.4999 3.44518L41.4982 6.53034C41.9402 6.758 42.461 6.758 42.903 6.53034L48.901 3.44518L54.8993 6.53034C55.3413 6.758 55.8621 6.758 56.3041 6.53034L60.7316 4.25285V17.2554H10.2682V4.25285ZM3.56758 82.5216H38.2995L44.7121 87.7989L38.2995 93.0762H3.56758V82.5216ZM43.8758 35.9954H54.0314V106.862H3.56758V96.3073H38.8503C39.2069 96.3073 39.5529 96.1824 39.8315 95.9532L48.2072 89.0604C48.9806 88.4236 48.9806 87.1741 48.2072 86.5374L39.8315 79.6445C39.5529 79.4156 39.2071 79.2904 38.8503 79.2904H3.56758V35.9954H36.5469C37.4144 35.9954 38.1174 35.2722 38.1174 34.3798C38.1174 33.4874 37.4144 32.7642 36.5469 32.7642H4.41396L9.7186 20.4863H59.886L54.5816 32.7642H43.8758C43.0083 32.7642 42.3053 33.4874 42.3053 34.3798C42.3053 35.2722 43.0083 35.9954 43.8758 35.9954ZM67.4325 106.862H57.1722V34.7231L62.3023 22.8488L67.4325 34.7231V106.862Z"/>
<path d="M28.7995 51.7194C21.6989 51.7194 15.9219 57.6621 15.9219 64.9664C15.9219 71.6428 20.7361 75.6287 28.7995 75.6287C36.8632 75.6287 41.6771 71.6428 41.6771 64.9664C41.6771 57.6621 35.9002 51.7194 28.7995 51.7194ZM28.7995 72.3978C25.1632 72.3978 19.0627 71.4323 19.0627 64.9664C19.0627 59.4434 23.4307 54.9503 28.7995 54.9503C34.1685 54.9503 38.5363 59.4434 38.5363 64.9664C38.5363 71.4326 32.4358 72.3978 28.7995 72.3978Z"/>
<path d="M22.5176 38.7955C19.3076 38.7955 17.1781 42.8794 17.1781 45.5806C17.1781 48.6095 19.5734 51.0734 22.5176 51.0734C25.462 51.0734 27.8572 48.6095 27.8572 45.5806C27.8572 42.8794 25.7276 38.7955 22.5176 38.7955ZM22.5176 47.8422C21.3053 47.8422 20.3189 46.8277 20.3189 45.5804C20.3189 44.0526 21.5724 42.0264 22.5176 42.0264C23.4628 42.0264 24.7163 44.0524 24.7163 45.5804C24.7163 46.8277 23.7299 47.8422 22.5176 47.8422Z"/>
<path d="M35.0811 38.7955C31.8713 38.7955 29.7416 42.8794 29.7416 45.5806C29.7416 48.6095 32.1369 51.0734 35.0811 51.0734C38.0255 51.0734 40.4206 48.6095 40.4206 45.5806C40.4206 42.8794 38.2909 38.7955 35.0811 38.7955ZM35.0811 47.8422C33.8688 47.8422 32.8824 46.8277 32.8824 45.5804C32.8824 44.0526 34.1361 42.0264 35.0811 42.0264C36.0263 42.0264 37.2798 44.0524 37.2798 45.5804C37.2798 46.8277 36.2936 47.8422 35.0811 47.8422Z"/>
<path d="M45.132 46.5497C41.9222 46.5497 39.7924 50.6337 39.7924 53.3349C39.7924 56.3637 42.1876 58.8276 45.132 58.8276C48.0763 58.8276 50.4715 56.3637 50.4715 53.3349C50.4715 50.6339 48.3418 46.5497 45.132 46.5497ZM45.132 55.5967C43.9197 55.5967 42.9332 54.5822 42.9332 53.3349C42.9332 51.8068 44.1867 49.7808 45.132 49.7808C46.0772 49.7808 47.3307 51.8068 47.3307 53.3349C47.3307 54.5822 46.3445 55.5967 45.132 55.5967Z"/>
<path d="M12.4668 46.5497C9.25677 46.5497 7.12722 50.6337 7.12722 53.3349C7.12722 56.3637 9.52239 58.8276 12.4668 58.8276C15.4111 58.8276 17.8063 56.3637 17.8063 53.3349C17.8063 50.6339 15.6768 46.5497 12.4668 46.5497ZM12.4668 55.5967C11.2544 55.5967 10.268 54.5822 10.268 53.3349C10.268 51.8068 11.5215 49.7808 12.4668 49.7808C13.412 49.7808 14.6655 51.8068 14.6655 53.3349C14.6655 54.5822 13.6791 55.5967 12.4668 55.5967Z"/>
<path d="M15.3984 99.9691H8.69773C7.83045 99.9691 7.12722 100.692 7.12722 101.585C7.12722 102.477 7.83045 103.2 8.69773 103.2H15.3984C16.2657 103.2 16.9689 102.477 16.9689 101.585C16.9687 100.692 16.2657 99.9691 15.3984 99.9691Z"/>
<path d="M37.1751 99.9691H22.0988C21.2315 99.9691 20.5283 100.692 20.5283 101.585C20.5283 102.477 21.2315 103.2 22.0988 103.2H37.1751C38.0426 103.2 38.7456 102.477 38.7456 101.585C38.7456 100.692 38.0426 99.9691 37.1751 99.9691Z"/>
<path d="M20.4237 86.1836H8.69762C7.83034 86.1836 7.12711 86.9068 7.12711 87.7991C7.12711 88.6915 7.83034 89.4147 8.69762 89.4147H20.4237C21.291 89.4147 21.9942 88.6915 21.9942 87.7991C21.9942 86.9065 21.2912 86.1836 20.4237 86.1836Z"/>
<path d="M35.5 86.1836H27.1243C26.2571 86.1836 25.5538 86.9068 25.5538 87.7991C25.5538 88.6915 26.2571 89.4147 27.1243 89.4147H35.5C36.3675 89.4147 37.0705 88.6915 37.0705 87.7991C37.0705 86.9065 36.3677 86.1836 35.5 86.1836Z"/>
</mask>
<path d="M70.4381 33.7243L63.8728 18.5283V1.63892C63.8728 0.460406 62.6267 -0.333941 61.6001 0.194047L55.6019 3.27943L49.6036 0.194047C49.1616 -0.0336155 48.6408 -0.0336155 48.1988 0.194047L42.2006 3.27943L36.2025 0.194047C35.7605 -0.0336155 35.2397 -0.0336155 34.7977 0.194047L28.7995 3.27943L22.8012 0.194047C22.3592 -0.0336155 21.8386 -0.0336155 21.3966 0.194047L15.3984 3.27943L9.40011 0.194047C8.37358 -0.333941 7.12741 0.460621 7.12741 1.63892V18.5281L0.561971 33.7241C0.472944 33.9294 0.426758 34.1558 0.426758 34.3802V108.477C0.426758 109.37 1.12999 110.093 1.99727 110.093H69.003C69.8705 110.093 70.5735 109.37 70.5735 108.477V34.3802C70.5733 34.1543 70.5275 33.9309 70.4381 33.7243ZM10.2682 4.25285L14.696 6.53034C15.138 6.758 15.6586 6.758 16.1006 6.53034L22.0988 3.44518L28.0971 6.53034C28.5391 6.758 29.0597 6.758 29.5017 6.53034L35.4999 3.44518L41.4982 6.53034C41.9402 6.758 42.461 6.758 42.903 6.53034L48.901 3.44518L54.8993 6.53034C55.3413 6.758 55.8621 6.758 56.3041 6.53034L60.7316 4.25285V17.2554H10.2682V4.25285ZM3.56758 82.5216H38.2995L44.7121 87.7989L38.2995 93.0762H3.56758V82.5216ZM43.8758 35.9954H54.0314V106.862H3.56758V96.3073H38.8503C39.2069 96.3073 39.5529 96.1824 39.8315 95.9532L48.2072 89.0604C48.9806 88.4236 48.9806 87.1741 48.2072 86.5374L39.8315 79.6445C39.5529 79.4156 39.2071 79.2904 38.8503 79.2904H3.56758V35.9954H36.5469C37.4144 35.9954 38.1174 35.2722 38.1174 34.3798C38.1174 33.4874 37.4144 32.7642 36.5469 32.7642H4.41396L9.7186 20.4863H59.886L54.5816 32.7642H43.8758C43.0083 32.7642 42.3053 33.4874 42.3053 34.3798C42.3053 35.2722 43.0083 35.9954 43.8758 35.9954ZM67.4325 106.862H57.1722V34.7231L62.3023 22.8488L67.4325 34.7231V106.862Z" fill="#A07B50"/>
<path d="M28.7995 51.7194C21.6989 51.7194 15.9219 57.6621 15.9219 64.9664C15.9219 71.6428 20.7361 75.6287 28.7995 75.6287C36.8632 75.6287 41.6771 71.6428 41.6771 64.9664C41.6771 57.6621 35.9002 51.7194 28.7995 51.7194ZM28.7995 72.3978C25.1632 72.3978 19.0627 71.4323 19.0627 64.9664C19.0627 59.4434 23.4307 54.9503 28.7995 54.9503C34.1685 54.9503 38.5363 59.4434 38.5363 64.9664C38.5363 71.4326 32.4358 72.3978 28.7995 72.3978Z" fill="#A07B50"/>
<path d="M22.5176 38.7955C19.3076 38.7955 17.1781 42.8794 17.1781 45.5806C17.1781 48.6095 19.5734 51.0734 22.5176 51.0734C25.462 51.0734 27.8572 48.6095 27.8572 45.5806C27.8572 42.8794 25.7276 38.7955 22.5176 38.7955ZM22.5176 47.8422C21.3053 47.8422 20.3189 46.8277 20.3189 45.5804C20.3189 44.0526 21.5724 42.0264 22.5176 42.0264C23.4628 42.0264 24.7163 44.0524 24.7163 45.5804C24.7163 46.8277 23.7299 47.8422 22.5176 47.8422Z" fill="#A07B50"/>
<path d="M35.0811 38.7955C31.8713 38.7955 29.7416 42.8794 29.7416 45.5806C29.7416 48.6095 32.1369 51.0734 35.0811 51.0734C38.0255 51.0734 40.4206 48.6095 40.4206 45.5806C40.4206 42.8794 38.2909 38.7955 35.0811 38.7955ZM35.0811 47.8422C33.8688 47.8422 32.8824 46.8277 32.8824 45.5804C32.8824 44.0526 34.1361 42.0264 35.0811 42.0264C36.0263 42.0264 37.2798 44.0524 37.2798 45.5804C37.2798 46.8277 36.2936 47.8422 35.0811 47.8422Z" fill="#A07B50"/>
<path d="M45.132 46.5497C41.9222 46.5497 39.7924 50.6337 39.7924 53.3349C39.7924 56.3637 42.1876 58.8276 45.132 58.8276C48.0763 58.8276 50.4715 56.3637 50.4715 53.3349C50.4715 50.6339 48.3418 46.5497 45.132 46.5497ZM45.132 55.5967C43.9197 55.5967 42.9332 54.5822 42.9332 53.3349C42.9332 51.8068 44.1867 49.7808 45.132 49.7808C46.0772 49.7808 47.3307 51.8068 47.3307 53.3349C47.3307 54.5822 46.3445 55.5967 45.132 55.5967Z" fill="#A07B50"/>
<path d="M12.4668 46.5497C9.25677 46.5497 7.12722 50.6337 7.12722 53.3349C7.12722 56.3637 9.52239 58.8276 12.4668 58.8276C15.4111 58.8276 17.8063 56.3637 17.8063 53.3349C17.8063 50.6339 15.6768 46.5497 12.4668 46.5497ZM12.4668 55.5967C11.2544 55.5967 10.268 54.5822 10.268 53.3349C10.268 51.8068 11.5215 49.7808 12.4668 49.7808C13.412 49.7808 14.6655 51.8068 14.6655 53.3349C14.6655 54.5822 13.6791 55.5967 12.4668 55.5967Z" fill="#A07B50"/>
<path d="M15.3984 99.9691H8.69773C7.83045 99.9691 7.12722 100.692 7.12722 101.585C7.12722 102.477 7.83045 103.2 8.69773 103.2H15.3984C16.2657 103.2 16.9689 102.477 16.9689 101.585C16.9687 100.692 16.2657 99.9691 15.3984 99.9691Z" fill="#A07B50"/>
<path d="M37.1751 99.9691H22.0988C21.2315 99.9691 20.5283 100.692 20.5283 101.585C20.5283 102.477 21.2315 103.2 22.0988 103.2H37.1751C38.0426 103.2 38.7456 102.477 38.7456 101.585C38.7456 100.692 38.0426 99.9691 37.1751 99.9691Z" fill="#A07B50"/>
<path d="M20.4237 86.1836H8.69762C7.83034 86.1836 7.12711 86.9068 7.12711 87.7991C7.12711 88.6915 7.83034 89.4147 8.69762 89.4147H20.4237C21.291 89.4147 21.9942 88.6915 21.9942 87.7991C21.9942 86.9065 21.2912 86.1836 20.4237 86.1836Z" fill="#A07B50"/>
<path d="M35.5 86.1836H27.1243C26.2571 86.1836 25.5538 86.9068 25.5538 87.7991C25.5538 88.6915 26.2571 89.4147 27.1243 89.4147H35.5C36.3675 89.4147 37.0705 88.6915 37.0705 87.7991C37.0705 86.9065 36.3677 86.1836 35.5 86.1836Z" fill="#A07B50"/>
<path d="M70.4381 33.7243L63.8728 18.5283V1.63892C63.8728 0.460406 62.6267 -0.333941 61.6001 0.194047L55.6019 3.27943L49.6036 0.194047C49.1616 -0.0336155 48.6408 -0.0336155 48.1988 0.194047L42.2006 3.27943L36.2025 0.194047C35.7605 -0.0336155 35.2397 -0.0336155 34.7977 0.194047L28.7995 3.27943L22.8012 0.194047C22.3592 -0.0336155 21.8386 -0.0336155 21.3966 0.194047L15.3984 3.27943L9.40011 0.194047C8.37358 -0.333941 7.12741 0.460621 7.12741 1.63892V18.5281L0.561971 33.7241C0.472944 33.9294 0.426758 34.1558 0.426758 34.3802V108.477C0.426758 109.37 1.12999 110.093 1.99727 110.093H69.003C69.8705 110.093 70.5735 109.37 70.5735 108.477V34.3802C70.5733 34.1543 70.5275 33.9309 70.4381 33.7243ZM10.2682 4.25285L14.696 6.53034C15.138 6.758 15.6586 6.758 16.1006 6.53034L22.0988 3.44518L28.0971 6.53034C28.5391 6.758 29.0597 6.758 29.5017 6.53034L35.4999 3.44518L41.4982 6.53034C41.9402 6.758 42.461 6.758 42.903 6.53034L48.901 3.44518L54.8993 6.53034C55.3413 6.758 55.8621 6.758 56.3041 6.53034L60.7316 4.25285V17.2554H10.2682V4.25285ZM3.56758 82.5216H38.2995L44.7121 87.7989L38.2995 93.0762H3.56758V82.5216ZM43.8758 35.9954H54.0314V106.862H3.56758V96.3073H38.8503C39.2069 96.3073 39.5529 96.1824 39.8315 95.9532L48.2072 89.0604C48.9806 88.4236 48.9806 87.1741 48.2072 86.5374L39.8315 79.6445C39.5529 79.4156 39.2071 79.2904 38.8503 79.2904H3.56758V35.9954H36.5469C37.4144 35.9954 38.1174 35.2722 38.1174 34.3798C38.1174 33.4874 37.4144 32.7642 36.5469 32.7642H4.41396L9.7186 20.4863H59.886L54.5816 32.7642H43.8758C43.0083 32.7642 42.3053 33.4874 42.3053 34.3798C42.3053 35.2722 43.0083 35.9954 43.8758 35.9954ZM67.4325 106.862H57.1722V34.7231L62.3023 22.8488L67.4325 34.7231V106.862Z" stroke="#1F1C1D" stroke-width="2" mask="url(#path-1-inside-1)"/>
<path d="M28.7995 51.7194C21.6989 51.7194 15.9219 57.6621 15.9219 64.9664C15.9219 71.6428 20.7361 75.6287 28.7995 75.6287C36.8632 75.6287 41.6771 71.6428 41.6771 64.9664C41.6771 57.6621 35.9002 51.7194 28.7995 51.7194ZM28.7995 72.3978C25.1632 72.3978 19.0627 71.4323 19.0627 64.9664C19.0627 59.4434 23.4307 54.9503 28.7995 54.9503C34.1685 54.9503 38.5363 59.4434 38.5363 64.9664C38.5363 71.4326 32.4358 72.3978 28.7995 72.3978Z" stroke="#1F1C1D" stroke-width="2" mask="url(#path-1-inside-1)"/>
<path d="M22.5176 38.7955C19.3076 38.7955 17.1781 42.8794 17.1781 45.5806C17.1781 48.6095 19.5734 51.0734 22.5176 51.0734C25.462 51.0734 27.8572 48.6095 27.8572 45.5806C27.8572 42.8794 25.7276 38.7955 22.5176 38.7955ZM22.5176 47.8422C21.3053 47.8422 20.3189 46.8277 20.3189 45.5804C20.3189 44.0526 21.5724 42.0264 22.5176 42.0264C23.4628 42.0264 24.7163 44.0524 24.7163 45.5804C24.7163 46.8277 23.7299 47.8422 22.5176 47.8422Z" stroke="#1F1C1D" stroke-width="2" mask="url(#path-1-inside-1)"/>
<path d="M35.0811 38.7955C31.8713 38.7955 29.7416 42.8794 29.7416 45.5806C29.7416 48.6095 32.1369 51.0734 35.0811 51.0734C38.0255 51.0734 40.4206 48.6095 40.4206 45.5806C40.4206 42.8794 38.2909 38.7955 35.0811 38.7955ZM35.0811 47.8422C33.8688 47.8422 32.8824 46.8277 32.8824 45.5804C32.8824 44.0526 34.1361 42.0264 35.0811 42.0264C36.0263 42.0264 37.2798 44.0524 37.2798 45.5804C37.2798 46.8277 36.2936 47.8422 35.0811 47.8422Z" stroke="#1F1C1D" stroke-width="2" mask="url(#path-1-inside-1)"/>
<path d="M45.132 46.5497C41.9222 46.5497 39.7924 50.6337 39.7924 53.3349C39.7924 56.3637 42.1876 58.8276 45.132 58.8276C48.0763 58.8276 50.4715 56.3637 50.4715 53.3349C50.4715 50.6339 48.3418 46.5497 45.132 46.5497ZM45.132 55.5967C43.9197 55.5967 42.9332 54.5822 42.9332 53.3349C42.9332 51.8068 44.1867 49.7808 45.132 49.7808C46.0772 49.7808 47.3307 51.8068 47.3307 53.3349C47.3307 54.5822 46.3445 55.5967 45.132 55.5967Z" stroke="#1F1C1D" stroke-width="2" mask="url(#path-1-inside-1)"/>
<path d="M12.4668 46.5497C9.25677 46.5497 7.12722 50.6337 7.12722 53.3349C7.12722 56.3637 9.52239 58.8276 12.4668 58.8276C15.4111 58.8276 17.8063 56.3637 17.8063 53.3349C17.8063 50.6339 15.6768 46.5497 12.4668 46.5497ZM12.4668 55.5967C11.2544 55.5967 10.268 54.5822 10.268 53.3349C10.268 51.8068 11.5215 49.7808 12.4668 49.7808C13.412 49.7808 14.6655 51.8068 14.6655 53.3349C14.6655 54.5822 13.6791 55.5967 12.4668 55.5967Z" stroke="#1F1C1D" stroke-width="2" mask="url(#path-1-inside-1)"/>
<path d="M15.3984 99.9691H8.69773C7.83045 99.9691 7.12722 100.692 7.12722 101.585C7.12722 102.477 7.83045 103.2 8.69773 103.2H15.3984C16.2657 103.2 16.9689 102.477 16.9689 101.585C16.9687 100.692 16.2657 99.9691 15.3984 99.9691Z" stroke="#1F1C1D" stroke-width="2" mask="url(#path-1-inside-1)"/>
<path d="M37.1751 99.9691H22.0988C21.2315 99.9691 20.5283 100.692 20.5283 101.585C20.5283 102.477 21.2315 103.2 22.0988 103.2H37.1751C38.0426 103.2 38.7456 102.477 38.7456 101.585C38.7456 100.692 38.0426 99.9691 37.1751 99.9691Z" stroke="#1F1C1D" stroke-width="2" mask="url(#path-1-inside-1)"/>
<path d="M20.4237 86.1836H8.69762C7.83034 86.1836 7.12711 86.9068 7.12711 87.7991C7.12711 88.6915 7.83034 89.4147 8.69762 89.4147H20.4237C21.291 89.4147 21.9942 88.6915 21.9942 87.7991C21.9942 86.9065 21.2912 86.1836 20.4237 86.1836Z" stroke="#1F1C1D" stroke-width="2" mask="url(#path-1-inside-1)"/>
<path d="M35.5 86.1836H27.1243C26.2571 86.1836 25.5538 86.9068 25.5538 87.7991C25.5538 88.6915 26.2571 89.4147 27.1243 89.4147H35.5C36.3675 89.4147 37.0705 88.6915 37.0705 87.7991C37.0705 86.9065 36.3677 86.1836 35.5 86.1836Z" stroke="#1F1C1D" stroke-width="2" mask="url(#path-1-inside-1)"/>
</svg>
