<svg width="98" height="110" viewBox="0 0 98 110" fill="none" xmlns="http://www.w3.org/2000/svg">
<mask id="path-1-inside-1" fill="white">
<path d="M13.2964 24.7222C5.96462 24.7222 0 30.8013 0 38.2734C0 45.2038 5.13224 50.9322 11.7261 51.7268V62.1748C11.7261 63.0587 12.4293 63.7754 13.2966 63.7754C14.1639 63.7754 14.8671 63.0587 14.8671 62.1748V51.7268C21.461 50.9322 26.5933 45.2036 26.5933 38.2734C26.5931 30.8013 20.6282 24.7222 13.2964 24.7222ZM13.2964 48.6236C7.69669 48.6236 3.14083 43.9804 3.14083 38.2734C3.14083 32.5664 7.69669 27.9232 13.2964 27.9232C18.8962 27.9232 23.452 32.5664 23.452 38.2734C23.452 43.9804 18.8964 48.6236 13.2964 48.6236Z"/>
<path d="M13.2964 31.5513C9.65948 31.5513 6.70047 34.567 6.70047 38.2737C6.70047 41.9803 9.65948 44.996 13.2964 44.996C16.9334 44.996 19.8924 41.9803 19.8924 38.2737C19.8924 34.567 16.9334 31.5513 13.2964 31.5513ZM13.2964 41.7948C11.3913 41.7948 9.84151 40.215 9.84151 38.2737C9.84151 36.3323 11.3915 34.7525 13.2964 34.7525C15.2015 34.7525 16.7514 36.3323 16.7514 38.2737C16.7514 40.215 15.2015 41.7948 13.2964 41.7948Z"/>
<path d="M96.2162 39.2338H95.2739V11.8112C95.2739 7.16318 91.5634 3.38178 87.0029 3.38178H83.548V2.42141C83.548 1.53751 82.845 0.820801 81.9775 0.820801H77.7896C75.5383 0.820801 73.7065 2.68765 73.7065 4.98218C73.7065 7.27671 75.5383 9.14355 77.7896 9.14355H81.9775C82.845 9.14355 83.548 8.42685 83.548 7.54294V6.58258H87.0029C89.8317 6.58258 92.1331 8.92822 92.1331 11.811V39.2336H91.1908C90.3233 39.2336 89.6202 39.9503 89.6202 40.8342V43.3949C89.6202 50.5141 83.9371 56.3059 76.952 56.3059H56.8502C49.8651 56.3059 44.182 50.5141 44.182 43.3949V40.8342C44.182 39.9503 43.4788 39.2336 42.6115 39.2336H41.6692V11.8112C41.6692 8.92844 43.9707 6.58279 46.7993 6.58279H50.2543V7.54316C50.2543 8.42706 50.9573 9.14377 51.8248 9.14377H56.0126C58.264 9.14377 60.0958 7.27692 60.0958 4.98239C60.096 2.68765 58.2642 0.820801 56.0126 0.820801H51.8248C50.9573 0.820801 50.2543 1.53751 50.2543 2.42141V3.38178H46.7993C42.2387 3.38178 38.5284 7.1634 38.5284 11.8112V39.2338H37.5861C36.7188 39.2338 36.0155 39.9505 36.0155 40.8344V43.3952C36.0155 55.1034 45.3619 64.6291 56.8502 64.6291H62.818V72.4183C62.818 73.3022 63.521 74.0189 64.3885 74.0189H65.3308V82.6618C65.3308 95.8999 54.7631 106.67 41.7741 106.67H38.4239C25.4347 106.67 14.8672 95.8999 14.8672 82.6618V69.9285C14.8672 69.0446 14.1639 68.3278 13.2966 68.3278C12.4293 68.3278 11.7261 69.0446 11.7261 69.9285V82.6618C11.7261 97.6651 23.7026 109.871 38.4239 109.871H41.7741C56.4954 109.871 68.4719 97.6651 68.4719 82.6618V74.0189H69.4142C70.2817 74.0189 70.9847 73.3022 70.9847 72.4183V64.6291H76.9525C88.4405 64.6291 97.7872 55.1036 97.7872 43.3952V40.8344C97.7867 39.9505 97.0837 39.2338 96.2162 39.2338ZM80.407 5.94254H77.7896C77.2701 5.94254 76.8473 5.51167 76.8473 4.98218C76.8473 4.45269 77.2701 4.02181 77.7896 4.02181H80.407V5.94254ZM53.3953 4.02181H56.0126C56.5322 4.02181 56.9549 4.45269 56.9549 4.98218C56.9549 5.51167 56.5322 5.94254 56.0126 5.94254H53.3953V4.02181ZM94.6459 43.3952C94.6459 53.3383 86.7087 61.4279 76.9522 61.4279H69.4142C68.5467 61.4279 67.8437 62.1446 67.8437 63.0285V70.8177H65.959V63.0285C65.959 62.1446 65.256 61.4279 64.3885 61.4279H56.8504C47.094 61.4279 39.1568 53.3383 39.1568 43.3952V42.4348H41.0414V43.3952C41.0414 52.2796 48.1333 59.5073 56.8507 59.5073H76.9525C85.6698 59.5073 92.7617 52.2796 92.7617 43.3952V42.4348H94.6463L94.6459 43.3952Z"/>
<path d="M66.9011 26.4295C59.8005 26.4295 54.0235 32.3171 54.0235 39.5538C54.0235 46.1684 58.8375 50.1175 66.9011 50.1175C74.9648 50.1175 79.7787 46.1684 79.7787 39.5538C79.7789 32.3171 74.002 26.4295 66.9011 26.4295ZM66.9011 46.9164C63.2648 46.9164 57.1643 45.9599 57.1643 39.5538C57.1643 34.0822 61.5321 29.6305 66.9011 29.6305C72.2701 29.6305 76.6379 34.0822 76.6379 39.5538C76.6379 45.9599 70.5374 46.9164 66.9011 46.9164Z"/>
<path d="M60.6194 13.6251C57.4097 13.6251 55.2799 17.671 55.2799 20.3475C55.2799 23.3483 57.6751 25.7893 60.6194 25.7893C63.5638 25.7893 65.959 23.3483 65.959 20.3475C65.9588 17.6713 63.8292 13.6251 60.6194 13.6251ZM60.6194 22.5883C59.4071 22.5883 58.4207 21.5832 58.4207 20.3475C58.4207 18.8337 59.6742 16.8263 60.6194 16.8263C61.5647 16.8263 62.8182 18.8337 62.8182 20.3475C62.818 21.583 61.8318 22.5883 60.6194 22.5883Z"/>
<path d="M73.183 13.6251C69.9732 13.6251 67.8434 17.671 67.8434 20.3475C67.8434 23.3483 70.2386 25.7893 73.183 25.7893C76.1273 25.7893 78.5225 23.3483 78.5225 20.3475C78.5225 17.6713 76.3927 13.6251 73.183 13.6251ZM73.183 22.5883C71.9706 22.5883 70.9842 21.5832 70.9842 20.3475C70.9842 18.8337 72.2377 16.8263 73.183 16.8263C74.1282 16.8263 75.3817 18.8337 75.3817 20.3475C75.3817 21.583 74.3953 22.5883 73.183 22.5883Z"/>
<path d="M83.2338 21.3078C80.024 21.3078 77.8943 25.3537 77.8943 28.0301C77.8943 31.0309 80.2895 33.472 83.2338 33.472C86.1782 33.472 88.5734 31.0309 88.5734 28.0301C88.5734 25.3537 86.4436 21.3078 83.2338 21.3078ZM83.2338 30.2708C82.0215 30.2708 81.0351 29.2657 81.0351 28.0299C81.0351 26.5162 82.2886 24.5088 83.2338 24.5088C84.1791 24.5088 85.4326 26.5162 85.4326 28.0299C85.4324 29.2657 84.4462 30.2708 83.2338 30.2708Z"/>
<path d="M50.5686 21.3078C47.3588 21.3078 45.229 25.3537 45.229 28.0301C45.229 31.0309 47.6242 33.472 50.5686 33.472C53.5129 33.472 55.9081 31.0309 55.9081 28.0301C55.9081 25.3537 53.7784 21.3078 50.5686 21.3078ZM50.5686 30.2708C49.3562 30.2708 48.3698 29.2657 48.3698 28.0299C48.3698 26.5162 49.6233 24.5088 50.5686 24.5088C51.5138 24.5088 52.7673 26.5162 52.7673 28.0299C52.7671 29.2657 51.7809 30.2708 50.5686 30.2708Z"/>
</mask>
<path d="M13.2964 24.7222C5.96462 24.7222 0 30.8013 0 38.2734C0 45.2038 5.13224 50.9322 11.7261 51.7268V62.1748C11.7261 63.0587 12.4293 63.7754 13.2966 63.7754C14.1639 63.7754 14.8671 63.0587 14.8671 62.1748V51.7268C21.461 50.9322 26.5933 45.2036 26.5933 38.2734C26.5931 30.8013 20.6282 24.7222 13.2964 24.7222ZM13.2964 48.6236C7.69669 48.6236 3.14083 43.9804 3.14083 38.2734C3.14083 32.5664 7.69669 27.9232 13.2964 27.9232C18.8962 27.9232 23.452 32.5664 23.452 38.2734C23.452 43.9804 18.8964 48.6236 13.2964 48.6236Z" fill="white"/>
<path d="M13.2964 31.5513C9.65948 31.5513 6.70047 34.567 6.70047 38.2737C6.70047 41.9803 9.65948 44.996 13.2964 44.996C16.9334 44.996 19.8924 41.9803 19.8924 38.2737C19.8924 34.567 16.9334 31.5513 13.2964 31.5513ZM13.2964 41.7948C11.3913 41.7948 9.84151 40.215 9.84151 38.2737C9.84151 36.3323 11.3915 34.7525 13.2964 34.7525C15.2015 34.7525 16.7514 36.3323 16.7514 38.2737C16.7514 40.215 15.2015 41.7948 13.2964 41.7948Z" fill="white"/>
<path d="M96.2162 39.2338H95.2739V11.8112C95.2739 7.16318 91.5634 3.38178 87.0029 3.38178H83.548V2.42141C83.548 1.53751 82.845 0.820801 81.9775 0.820801H77.7896C75.5383 0.820801 73.7065 2.68765 73.7065 4.98218C73.7065 7.27671 75.5383 9.14355 77.7896 9.14355H81.9775C82.845 9.14355 83.548 8.42685 83.548 7.54294V6.58258H87.0029C89.8317 6.58258 92.1331 8.92822 92.1331 11.811V39.2336H91.1908C90.3233 39.2336 89.6202 39.9503 89.6202 40.8342V43.3949C89.6202 50.5141 83.9371 56.3059 76.952 56.3059H56.8502C49.8651 56.3059 44.182 50.5141 44.182 43.3949V40.8342C44.182 39.9503 43.4788 39.2336 42.6115 39.2336H41.6692V11.8112C41.6692 8.92844 43.9707 6.58279 46.7993 6.58279H50.2543V7.54316C50.2543 8.42706 50.9573 9.14377 51.8248 9.14377H56.0126C58.264 9.14377 60.0958 7.27692 60.0958 4.98239C60.096 2.68765 58.2642 0.820801 56.0126 0.820801H51.8248C50.9573 0.820801 50.2543 1.53751 50.2543 2.42141V3.38178H46.7993C42.2387 3.38178 38.5284 7.1634 38.5284 11.8112V39.2338H37.5861C36.7188 39.2338 36.0155 39.9505 36.0155 40.8344V43.3952C36.0155 55.1034 45.3619 64.6291 56.8502 64.6291H62.818V72.4183C62.818 73.3022 63.521 74.0189 64.3885 74.0189H65.3308V82.6618C65.3308 95.8999 54.7631 106.67 41.7741 106.67H38.4239C25.4347 106.67 14.8672 95.8999 14.8672 82.6618V69.9285C14.8672 69.0446 14.1639 68.3278 13.2966 68.3278C12.4293 68.3278 11.7261 69.0446 11.7261 69.9285V82.6618C11.7261 97.6651 23.7026 109.871 38.4239 109.871H41.7741C56.4954 109.871 68.4719 97.6651 68.4719 82.6618V74.0189H69.4142C70.2817 74.0189 70.9847 73.3022 70.9847 72.4183V64.6291H76.9525C88.4405 64.6291 97.7872 55.1036 97.7872 43.3952V40.8344C97.7867 39.9505 97.0837 39.2338 96.2162 39.2338ZM80.407 5.94254H77.7896C77.2701 5.94254 76.8473 5.51167 76.8473 4.98218C76.8473 4.45269 77.2701 4.02181 77.7896 4.02181H80.407V5.94254ZM53.3953 4.02181H56.0126C56.5322 4.02181 56.9549 4.45269 56.9549 4.98218C56.9549 5.51167 56.5322 5.94254 56.0126 5.94254H53.3953V4.02181ZM94.6459 43.3952C94.6459 53.3383 86.7087 61.4279 76.9522 61.4279H69.4142C68.5467 61.4279 67.8437 62.1446 67.8437 63.0285V70.8177H65.959V63.0285C65.959 62.1446 65.256 61.4279 64.3885 61.4279H56.8504C47.094 61.4279 39.1568 53.3383 39.1568 43.3952V42.4348H41.0414V43.3952C41.0414 52.2796 48.1333 59.5073 56.8507 59.5073H76.9525C85.6698 59.5073 92.7617 52.2796 92.7617 43.3952V42.4348H94.6463L94.6459 43.3952Z" fill="white"/>
<path d="M66.9011 26.4295C59.8005 26.4295 54.0235 32.3171 54.0235 39.5538C54.0235 46.1684 58.8375 50.1175 66.9011 50.1175C74.9648 50.1175 79.7787 46.1684 79.7787 39.5538C79.7789 32.3171 74.002 26.4295 66.9011 26.4295ZM66.9011 46.9164C63.2648 46.9164 57.1643 45.9599 57.1643 39.5538C57.1643 34.0822 61.5321 29.6305 66.9011 29.6305C72.2701 29.6305 76.6379 34.0822 76.6379 39.5538C76.6379 45.9599 70.5374 46.9164 66.9011 46.9164Z" fill="white"/>
<path d="M60.6194 13.6251C57.4097 13.6251 55.2799 17.671 55.2799 20.3475C55.2799 23.3483 57.6751 25.7893 60.6194 25.7893C63.5638 25.7893 65.959 23.3483 65.959 20.3475C65.9588 17.6713 63.8292 13.6251 60.6194 13.6251ZM60.6194 22.5883C59.4071 22.5883 58.4207 21.5832 58.4207 20.3475C58.4207 18.8337 59.6742 16.8263 60.6194 16.8263C61.5647 16.8263 62.8182 18.8337 62.8182 20.3475C62.818 21.583 61.8318 22.5883 60.6194 22.5883Z" fill="white"/>
<path d="M73.183 13.6251C69.9732 13.6251 67.8434 17.671 67.8434 20.3475C67.8434 23.3483 70.2386 25.7893 73.183 25.7893C76.1273 25.7893 78.5225 23.3483 78.5225 20.3475C78.5225 17.6713 76.3927 13.6251 73.183 13.6251ZM73.183 22.5883C71.9706 22.5883 70.9842 21.5832 70.9842 20.3475C70.9842 18.8337 72.2377 16.8263 73.183 16.8263C74.1282 16.8263 75.3817 18.8337 75.3817 20.3475C75.3817 21.583 74.3953 22.5883 73.183 22.5883Z" fill="white"/>
<path d="M83.2338 21.3078C80.024 21.3078 77.8943 25.3537 77.8943 28.0301C77.8943 31.0309 80.2895 33.472 83.2338 33.472C86.1782 33.472 88.5734 31.0309 88.5734 28.0301C88.5734 25.3537 86.4436 21.3078 83.2338 21.3078ZM83.2338 30.2708C82.0215 30.2708 81.0351 29.2657 81.0351 28.0299C81.0351 26.5162 82.2886 24.5088 83.2338 24.5088C84.1791 24.5088 85.4326 26.5162 85.4326 28.0299C85.4324 29.2657 84.4462 30.2708 83.2338 30.2708Z" fill="white"/>
<path d="M50.5686 21.3078C47.3588 21.3078 45.229 25.3537 45.229 28.0301C45.229 31.0309 47.6242 33.472 50.5686 33.472C53.5129 33.472 55.9081 31.0309 55.9081 28.0301C55.9081 25.3537 53.7784 21.3078 50.5686 21.3078ZM50.5686 30.2708C49.3562 30.2708 48.3698 29.2657 48.3698 28.0299C48.3698 26.5162 49.6233 24.5088 50.5686 24.5088C51.5138 24.5088 52.7673 26.5162 52.7673 28.0299C52.7671 29.2657 51.7809 30.2708 50.5686 30.2708Z" fill="white"/>
<path d="M13.2964 24.7222C5.96462 24.7222 0 30.8013 0 38.2734C0 45.2038 5.13224 50.9322 11.7261 51.7268V62.1748C11.7261 63.0587 12.4293 63.7754 13.2966 63.7754C14.1639 63.7754 14.8671 63.0587 14.8671 62.1748V51.7268C21.461 50.9322 26.5933 45.2036 26.5933 38.2734C26.5931 30.8013 20.6282 24.7222 13.2964 24.7222ZM13.2964 48.6236C7.69669 48.6236 3.14083 43.9804 3.14083 38.2734C3.14083 32.5664 7.69669 27.9232 13.2964 27.9232C18.8962 27.9232 23.452 32.5664 23.452 38.2734C23.452 43.9804 18.8964 48.6236 13.2964 48.6236Z" stroke="#A07B50" stroke-width="2" mask="url(#path-1-inside-1)"/>
<path d="M13.2964 31.5513C9.65948 31.5513 6.70047 34.567 6.70047 38.2737C6.70047 41.9803 9.65948 44.996 13.2964 44.996C16.9334 44.996 19.8924 41.9803 19.8924 38.2737C19.8924 34.567 16.9334 31.5513 13.2964 31.5513ZM13.2964 41.7948C11.3913 41.7948 9.84151 40.215 9.84151 38.2737C9.84151 36.3323 11.3915 34.7525 13.2964 34.7525C15.2015 34.7525 16.7514 36.3323 16.7514 38.2737C16.7514 40.215 15.2015 41.7948 13.2964 41.7948Z" stroke="#A07B50" stroke-width="2" mask="url(#path-1-inside-1)"/>
<path d="M96.2162 39.2338H95.2739V11.8112C95.2739 7.16318 91.5634 3.38178 87.0029 3.38178H83.548V2.42141C83.548 1.53751 82.845 0.820801 81.9775 0.820801H77.7896C75.5383 0.820801 73.7065 2.68765 73.7065 4.98218C73.7065 7.27671 75.5383 9.14355 77.7896 9.14355H81.9775C82.845 9.14355 83.548 8.42685 83.548 7.54294V6.58258H87.0029C89.8317 6.58258 92.1331 8.92822 92.1331 11.811V39.2336H91.1908C90.3233 39.2336 89.6202 39.9503 89.6202 40.8342V43.3949C89.6202 50.5141 83.9371 56.3059 76.952 56.3059H56.8502C49.8651 56.3059 44.182 50.5141 44.182 43.3949V40.8342C44.182 39.9503 43.4788 39.2336 42.6115 39.2336H41.6692V11.8112C41.6692 8.92844 43.9707 6.58279 46.7993 6.58279H50.2543V7.54316C50.2543 8.42706 50.9573 9.14377 51.8248 9.14377H56.0126C58.264 9.14377 60.0958 7.27692 60.0958 4.98239C60.096 2.68765 58.2642 0.820801 56.0126 0.820801H51.8248C50.9573 0.820801 50.2543 1.53751 50.2543 2.42141V3.38178H46.7993C42.2387 3.38178 38.5284 7.1634 38.5284 11.8112V39.2338H37.5861C36.7188 39.2338 36.0155 39.9505 36.0155 40.8344V43.3952C36.0155 55.1034 45.3619 64.6291 56.8502 64.6291H62.818V72.4183C62.818 73.3022 63.521 74.0189 64.3885 74.0189H65.3308V82.6618C65.3308 95.8999 54.7631 106.67 41.7741 106.67H38.4239C25.4347 106.67 14.8672 95.8999 14.8672 82.6618V69.9285C14.8672 69.0446 14.1639 68.3278 13.2966 68.3278C12.4293 68.3278 11.7261 69.0446 11.7261 69.9285V82.6618C11.7261 97.6651 23.7026 109.871 38.4239 109.871H41.7741C56.4954 109.871 68.4719 97.6651 68.4719 82.6618V74.0189H69.4142C70.2817 74.0189 70.9847 73.3022 70.9847 72.4183V64.6291H76.9525C88.4405 64.6291 97.7872 55.1036 97.7872 43.3952V40.8344C97.7867 39.9505 97.0837 39.2338 96.2162 39.2338ZM80.407 5.94254H77.7896C77.2701 5.94254 76.8473 5.51167 76.8473 4.98218C76.8473 4.45269 77.2701 4.02181 77.7896 4.02181H80.407V5.94254ZM53.3953 4.02181H56.0126C56.5322 4.02181 56.9549 4.45269 56.9549 4.98218C56.9549 5.51167 56.5322 5.94254 56.0126 5.94254H53.3953V4.02181ZM94.6459 43.3952C94.6459 53.3383 86.7087 61.4279 76.9522 61.4279H69.4142C68.5467 61.4279 67.8437 62.1446 67.8437 63.0285V70.8177H65.959V63.0285C65.959 62.1446 65.256 61.4279 64.3885 61.4279H56.8504C47.094 61.4279 39.1568 53.3383 39.1568 43.3952V42.4348H41.0414V43.3952C41.0414 52.2796 48.1333 59.5073 56.8507 59.5073H76.9525C85.6698 59.5073 92.7617 52.2796 92.7617 43.3952V42.4348H94.6463L94.6459 43.3952Z" stroke="#A07B50" stroke-width="2" mask="url(#path-1-inside-1)"/>
<path d="M66.9011 26.4295C59.8005 26.4295 54.0235 32.3171 54.0235 39.5538C54.0235 46.1684 58.8375 50.1175 66.9011 50.1175C74.9648 50.1175 79.7787 46.1684 79.7787 39.5538C79.7789 32.3171 74.002 26.4295 66.9011 26.4295ZM66.9011 46.9164C63.2648 46.9164 57.1643 45.9599 57.1643 39.5538C57.1643 34.0822 61.5321 29.6305 66.9011 29.6305C72.2701 29.6305 76.6379 34.0822 76.6379 39.5538C76.6379 45.9599 70.5374 46.9164 66.9011 46.9164Z" stroke="#A07B50" stroke-width="2" mask="url(#path-1-inside-1)"/>
<path d="M60.6194 13.6251C57.4097 13.6251 55.2799 17.671 55.2799 20.3475C55.2799 23.3483 57.6751 25.7893 60.6194 25.7893C63.5638 25.7893 65.959 23.3483 65.959 20.3475C65.9588 17.6713 63.8292 13.6251 60.6194 13.6251ZM60.6194 22.5883C59.4071 22.5883 58.4207 21.5832 58.4207 20.3475C58.4207 18.8337 59.6742 16.8263 60.6194 16.8263C61.5647 16.8263 62.8182 18.8337 62.8182 20.3475C62.818 21.583 61.8318 22.5883 60.6194 22.5883Z" stroke="#A07B50" stroke-width="2" mask="url(#path-1-inside-1)"/>
<path d="M73.183 13.6251C69.9732 13.6251 67.8434 17.671 67.8434 20.3475C67.8434 23.3483 70.2386 25.7893 73.183 25.7893C76.1273 25.7893 78.5225 23.3483 78.5225 20.3475C78.5225 17.6713 76.3927 13.6251 73.183 13.6251ZM73.183 22.5883C71.9706 22.5883 70.9842 21.5832 70.9842 20.3475C70.9842 18.8337 72.2377 16.8263 73.183 16.8263C74.1282 16.8263 75.3817 18.8337 75.3817 20.3475C75.3817 21.583 74.3953 22.5883 73.183 22.5883Z" stroke="#A07B50" stroke-width="2" mask="url(#path-1-inside-1)"/>
<path d="M83.2338 21.3078C80.024 21.3078 77.8943 25.3537 77.8943 28.0301C77.8943 31.0309 80.2895 33.472 83.2338 33.472C86.1782 33.472 88.5734 31.0309 88.5734 28.0301C88.5734 25.3537 86.4436 21.3078 83.2338 21.3078ZM83.2338 30.2708C82.0215 30.2708 81.0351 29.2657 81.0351 28.0299C81.0351 26.5162 82.2886 24.5088 83.2338 24.5088C84.1791 24.5088 85.4326 26.5162 85.4326 28.0299C85.4324 29.2657 84.4462 30.2708 83.2338 30.2708Z" stroke="#A07B50" stroke-width="2" mask="url(#path-1-inside-1)"/>
<path d="M50.5686 21.3078C47.3588 21.3078 45.229 25.3537 45.229 28.0301C45.229 31.0309 47.6242 33.472 50.5686 33.472C53.5129 33.472 55.9081 31.0309 55.9081 28.0301C55.9081 25.3537 53.7784 21.3078 50.5686 21.3078ZM50.5686 30.2708C49.3562 30.2708 48.3698 29.2657 48.3698 28.0299C48.3698 26.5162 49.6233 24.5088 50.5686 24.5088C51.5138 24.5088 52.7673 26.5162 52.7673 28.0299C52.7671 29.2657 51.7809 30.2708 50.5686 30.2708Z" stroke="#A07B50" stroke-width="2" mask="url(#path-1-inside-1)"/>
</svg>
